<svg version="1.1" xmlns="http://www.w3.org/2000/svg" xmlns:xlink="http://www.w3.org/1999/xlink" width="482.66667" height="419.9791" viewBox="0,0,482.66667,419.9791"><defs><linearGradient x1="33.03914" y1="311.10391" x2="91.24089" y2="311.10391" gradientTransform="translate(-70.6145,-676.95318) scale(2.13744,2.13744)" gradientUnits="userSpaceOnUse" id="color-1"><stop offset="0" stop-color="#0066ff"/><stop offset="1" stop-color="#00ff66"/></linearGradient><linearGradient x1="300.28942" y1="115.05133" x2="309.66303" y2="115.05133" gradientUnits="userSpaceOnUse" id="color-2"><stop offset="0" stop-color="#ff0000"/><stop offset="1" stop-color="#ffad00"/></linearGradient><linearGradient x1="311.67328" y1="108.30924" x2="314.43481" y2="108.30924" gradientUnits="userSpaceOnUse" id="color-3"><stop offset="0" stop-color="#ff0000"/><stop offset="1" stop-color="#ffad00"/></linearGradient><linearGradient x1="315.6543" y1="111.84632" x2="321.90736" y2="111.84632" gradientUnits="userSpaceOnUse" id="color-4"><stop offset="0" stop-color="#ff0000"/><stop offset="1" stop-color="#ffad00"/></linearGradient><linearGradient x1="323.88867" y1="112.04546" x2="329.94981" y2="112.04546" gradientUnits="userSpaceOnUse" id="color-5"><stop offset="0" stop-color="#ff0000"/><stop offset="1" stop-color="#ffad00"/></linearGradient><linearGradient x1="331.64981" y1="102.75938" x2="339.53233" y2="102.75938" gradientUnits="userSpaceOnUse" id="color-6"><stop offset="0" stop-color="#ff0000"/><stop offset="1" stop-color="#ffad00"/></linearGradient><linearGradient x1="335.0567" y1="102.75939" x2="336.12541" y2="102.75939" gradientUnits="userSpaceOnUse" id="color-7"><stop offset="0" stop-color="#ff0000"/><stop offset="1" stop-color="#ffad00"/></linearGradient><linearGradient x1="214.92873" y1="142.4593" x2="225.97838" y2="142.4593" gradientUnits="userSpaceOnUse" id="color-8"><stop offset="0" stop-color="#009eff"/><stop offset="1" stop-color="#bd00ff"/></linearGradient><linearGradient x1="76.31014" y1="192.97922" x2="122.93299" y2="192.97922" gradientUnits="userSpaceOnUse" id="color-9"><stop offset="0" stop-color="#0038ff"/><stop offset="1" stop-color="#00ff5b"/></linearGradient></defs><g transform="translate(1.33334,54.89328)"><g data-paper-data="{&quot;isPaintingLayer&quot;:true}" fill-rule="nonzero" stroke-linejoin="miter" stroke-miterlimit="10" stroke-dasharray="" stroke-dashoffset="0" style="mix-blend-mode: normal"><path d="M-1.33333,365.08583v-343.95252h482.66667v343.95252z" fill-opacity="0.80784" fill="#ffffff" stroke="none" stroke-width="0" stroke-linecap="butt"/><text transform="translate(31.7978,343.0047) scale(0.26944,0.26944)" font-size="40" xml:space="preserve" fill="#ff2f2f" fill-rule="nonzero" stroke="none" stroke-width="1" stroke-linecap="butt" stroke-linejoin="miter" stroke-miterlimit="10" stroke-dasharray="" stroke-dashoffset="0" font-family="&quot;Microsoft YaHei&quot;, &quot;微软雅黑&quot;, STXihei, &quot;华文细黑&quot;" font-weight="normal" text-anchor="start" style="mix-blend-mode: normal"><tspan x="0" dy="0">未经允许，严禁转载</tspan></text><text transform="translate(336.25132,342.82877) scale(0.25478,0.25478)" font-size="40" xml:space="preserve" fill="#000000" fill-rule="nonzero" stroke="none" stroke-width="1" stroke-linecap="butt" stroke-linejoin="miter" stroke-miterlimit="10" stroke-dasharray="" stroke-dashoffset="0" font-family="&quot;Microsoft YaHei&quot;, &quot;微软雅黑&quot;, STXihei, &quot;华文细黑&quot;" font-weight="normal" text-anchor="start" style="mix-blend-mode: normal"><tspan x="0" dy="0">2023/4</tspan></text><text transform="translate(33.03699,316.71254) scale(0.46785,0.46785)" font-size="40" xml:space="preserve" fill="url(#color-1)" fill-rule="nonzero" stroke="none" stroke-width="1" stroke-linecap="butt" stroke-linejoin="miter" stroke-miterlimit="10" stroke-dasharray="" stroke-dashoffset="0" font-family="Handwriting" font-weight="normal" text-anchor="start" style="mix-blend-mode: normal"><tspan x="0" dy="0">by SQY</tspan></text><text transform="translate(126.03701,-36.14328) scale(0.5,0.5)" font-size="40" xml:space="preserve" fill="#0066ff" fill-rule="nonzero" stroke="none" stroke-width="1" stroke-linecap="butt" stroke-linejoin="miter" stroke-miterlimit="10" stroke-dasharray="" stroke-dashoffset="0" font-family="Handwriting" font-weight="normal" text-anchor="start" style="mix-blend-mode: normal"><tspan x="0" dy="0"> </tspan></text><g fill="#000000" stroke="none" stroke-width="1" stroke-linecap="butt"><path d="M44.87587,72.26431c-0.08203,0.32815 -0.10254,0.38968 -0.28713,0.38968c-0.06153,0 -0.22561,0 -0.22561,-0.18458c0,-0.08203 0.10254,-0.63577 0.10254,-1.16903c0,-1.94835 -0.9434,-3.17891 -2.9533,-3.17891c-1.94835,0 -3.69163,1.76379 -3.69163,3.48655c0,0.69732 0.26662,1.18953 0.61527,1.53816c0.36917,0.32815 0.55375,0.38968 1.92784,0.75884c1.88684,0.49222 2.256,0.59476 2.68669,1.02544c0.77935,0.75884 0.98444,1.51768 0.98444,2.37905c0,2.56364 -2.42006,5.12727 -5.06573,5.12727c-1.90735,0 -2.97383,-0.82036 -3.46605,-1.55869l-0.9434,1.23053c-0.2461,0.30764 -0.26664,0.32815 -0.34866,0.32815c-0.04102,0 -0.2051,0 -0.2051,-0.18458c0,-0.02051 0.08203,-0.28713 0.08203,-0.30764l1.04595,-4.20436c0.08203,-0.34865 0.10254,-0.38968 0.28713,-0.38968c0.16407,0 0.2051,0.10254 0.2051,0.18458c0,0.04102 -0.02051,0.14356 -0.02051,0.2051c-0.06153,0.2051 -0.14356,0.69732 -0.14356,1.08698c0,2.29703 1.86632,3.01483 3.54806,3.01483c2.05089,0 3.81468,-1.96888 3.81468,-3.87623c0,-0.96393 -0.41017,-1.43562 -0.49222,-1.53816c-0.43069,-0.4512 -0.69731,-0.53325 -1.74326,-0.82037c-0.61527,-0.14356 -1.82531,-0.47171 -2.05089,-0.55375c-1.00495,-0.34865 -1.92786,-1.25106 -1.92786,-2.78925c0,-2.31753 2.35855,-4.69658 4.9632,-4.69658c0.86139,0 2.21497,0.22561 2.89177,1.55869c0.02051,-0.02051 0.86139,-1.08698 0.98444,-1.23054c0.24611,-0.30763 0.26663,-0.32815 0.34865,-0.32815c0.04102,0 0.18458,0 0.18458,0.18459z"/><path d="M56.65651,84.18009c0.90239,0 1.96888,-0.73831 2.42007,-2.03038c0.06153,-0.22561 0.10254,-0.32815 0.22561,-0.32815c0.10254,0 0.18458,0.08203 0.18458,0.2051c0,0.12305 -0.9024,3.95825 -3.34297,3.95825c-1.64072,0 -1.64072,-1.53817 -1.64072,-2.13294c0,-0.38968 0,-0.49222 0.12305,-1.72276c-0.65629,0.2051 -1.33308,0.30764 -2.03039,0.30764c-2.97383,0 -5.10675,-2.19447 -5.10675,-5.41439c0,-4.7376 4.42996,-9.45468 8.81891,-9.45468c2.87127,0 5.08625,2.07142 5.08625,5.45542c0,3.71214 -2.62516,7.44481 -6.15272,8.85992c0.10254,1.5792 0.36916,2.29702 1.41511,2.29702zM51.38566,81.10372c0,-1.00495 0.94342,-2.11245 2.05091,-2.11245c1.35361,0 1.64072,1.23055 1.74326,2.27652c3.85571,-2.25601 4.57353,-7.34224 4.57353,-8.85992c0,-2.66618 -1.43563,-4.38895 -3.56859,-4.38895c-1.59971,0 -3.6301,1.04595 -5.14778,3.38401c-1.35361,2.07142 -1.88684,4.79912 -1.88684,6.23476c0,1.88684 0.77934,3.5891 2.39957,4.14283c-0.08203,-0.14356 -0.16407,-0.45119 -0.16407,-0.6768zM54.68764,81.12424c0,-1.02546 -0.22558,-1.72276 -1.25105,-1.72276c-0.9229,0 -1.64072,0.94342 -1.64072,1.68175c0,0.90239 0.7178,0.90239 0.9229,0.90239c0.57425,0 1.21005,-0.12305 1.94835,-0.4512c0.02051,-0.12305 0.02051,-0.28712 0.02051,-0.41017z"/><path d="M69.32089,76.20206c-0.18458,0.2051 -0.18459,0.24611 -0.30764,0.67681l-0.73831,2.95331c-0.10254,0.41017 -0.26664,1.06647 -0.26664,1.21005c0,0.22561 0,0.36917 1.27156,0.36917c0.34865,0 0.49222,0 0.49222,0.22561c0,0.36917 -0.2461,0.36918 -0.38968,0.36918c-0.36917,0 -0.79985,-0.04102 -1.16902,-0.04102h-2.42008c-0.38968,0 -0.82037,0.04102 -1.18954,0.04102c-0.06153,0 -0.28713,0 -0.28713,-0.2051c0,-0.38968 0.16408,-0.38968 0.51274,-0.38968c1.31258,-0.02051 1.51765,-0.12305 1.68175,-0.6768c0.06153,-0.2051 1.06647,-4.24538 1.06647,-4.30691c0,-0.06153 -0.06153,-0.28713 -0.08203,-0.34866l-2.54312,-6.82953c-0.18458,-0.47171 -0.36918,-0.65629 -1.3741,-0.65629c-0.30764,0 -0.49222,0 -0.49222,-0.2051c0,-0.38968 0.2256,-0.38968 0.36916,-0.38968c0.34865,0 0.73833,0.04103 1.1075,0.04103h2.27652c0.34865,0 0.75884,-0.04103 1.10749,-0.04103c0.12305,0 0.30764,0 0.30764,0.22561c0,0.36917 -0.22561,0.36919 -0.47171,0.36919c-0.2461,0 -1.08698,0.04102 -1.08698,0.47171c0,0.04102 0,0.08203 0.12305,0.36917l2.31754,6.23476l4.88116,-5.59898c0.41017,-0.47171 0.57425,-0.77935 0.57425,-1.00495c0,-0.12305 -0.00001,-0.43068 -0.61528,-0.47171c-0.06153,0 -0.26661,-0.02051 -0.26661,-0.2051c0,-0.38968 0.22561,-0.38968 0.36917,-0.38968c0.57425,0 1.21005,0.04102 1.80481,0.04102h0.84088c0.24611,0 0.51273,-0.04102 0.75883,-0.04102c0.04102,0 0.2461,0 0.2461,0.2051c0,0.34865 -0.18458,0.36917 -0.41018,0.38968c-0.71783,0.06153 -1.47666,0.28713 -2.37905,1.21004l-0.47173,0.47171z"/><g><path d="M98.72243,72.98213c-0.08203,0.36917 -0.10254,0.38967 -0.32815,0.38967c-0.06153,0 -0.26662,0.00001 -0.26662,-0.18458c0,-0.28713 0.08203,-0.73833 0.08203,-1.06647c0,-1.88684 -0.86139,-3.95825 -3.28145,-3.95825c-1.80481,0 -3.71215,1.00495 -5.00422,2.48161c-1.98939,2.31754 -2.48161,5.45541 -2.48161,6.82953c0,3.54806 2.56364,4.36844 4.14283,4.36844c1.21004,0 2.83024,-0.47171 3.60961,-1.62022c0.38968,-0.61527 0.77934,-2.68669 0.77934,-2.70721c0,-0.30764 0,-0.47171 -1.62022,-0.47171h-0.51273c0,-0.02051 -0.16407,-0.02051 -0.16407,-0.22561c0,-0.36917 0.2461,-0.36916 0.43068,-0.36916c0.84087,0 1.74326,0.04102 2.60465,0.04102h1.10749c0.36917,0 0.75884,-0.04102 1.10749,-0.04102c0.06153,0 0.26662,0 0.26662,0.2051c0,0.38968 -0.2461,0.38967 -0.32815,0.38967c-1.12799,0.02051 -1.16902,0.08203 -1.3741,0.86139c-0.14356,0.61527 -0.22561,0.90239 -0.38968,1.5792l-0.32815,1.31258c-0.10254,0.36917 -0.26662,1.08698 -0.28713,1.12799c-0.02051,0 -0.04102,0.06153 -0.14356,0.06153c-0.14356,0 -0.59476,-0.55375 -0.82037,-1.33308c-1.02546,1.29207 -2.89179,1.7843 -4.36845,1.7843c-3.07637,0 -5.41439,-2.17398 -5.41439,-5.55796c0,-4.84014 4.61454,-9.31112 9.00349,-9.31112c0.30764,0 1.18954,0 2.07142,0.55375c0.79985,0.47171 1.21005,1.18953 1.31259,1.3536l1.41511,-1.70225c0.16407,-0.2051 0.24611,-0.2051 0.28713,-0.2051c0.04102,0 0.18458,0 0.18458,0.18458z"/><path d="M107.61011,73.37177c-0.84087,0 -1.37411,0.47171 -1.62022,0.69731c-0.51273,0.4512 -1.06647,1.45615 -1.12799,1.64073c-0.06153,0.26662 -0.14356,0.59476 -0.22561,0.8819c-0.10254,0.4512 -0.2256,0.8819 -0.32815,1.33308c-0.12305,0.47171 -0.8819,3.56859 -0.9434,3.73265c-0.12305,0.41017 -0.51273,0.55375 -0.73833,0.55375c-0.30764,0 -0.53324,-0.22561 -0.53324,-0.51273c0,-0.10254 0.22561,-1.06647 0.36917,-1.59971c0.10254,-0.36917 0.32815,-1.29208 0.41018,-1.68176l0.57425,-2.21498c0.14356,-0.63578 0.34865,-1.43563 0.34865,-1.88684c0,-0.59476 -0.14356,-0.94341 -0.63578,-0.94341c-0.82037,0 -1.21005,1.18954 -1.51766,2.42007c-0.12305,0.47171 -0.14356,0.49222 -0.30763,0.49222c-0.14356,0 -0.22561,-0.10254 -0.22561,-0.18458c0,-0.10254 0.30764,-1.3331 0.65629,-2.07142c0.24611,-0.4512 0.6563,-1.06647 1.45615,-1.06647c0.82036,0 1.64072,0.53325 1.78429,1.62023c0.86139,-1.25105 1.8048,-1.62023 2.62516,-1.62023c1.02546,0 1.66124,0.57428 1.66124,1.23055c0,0.61527 -0.47171,1.10749 -1.04595,1.10749c-0.28713,0 -0.6768,-0.16407 -0.6768,-0.65629c0,-0.4512 0.32814,-0.90239 0.96392,-1.02544c-0.26662,-0.18458 -0.59476,-0.2461 -0.9229,-0.2461z"/><path d="M117.34078,75.54575c0.02051,-0.04102 0.08203,-0.30764 0.08203,-0.32815c0,-0.16407 -0.26661,-1.8458 -1.62022,-1.8458c-0.79985,0 -1.76378,0.73831 -2.4611,2.17397c-0.38968,0.86139 -1.02543,3.15839 -1.02543,4.28641c0,1.21004 0.47171,1.96888 1.31258,1.96888c0.96393,0 1.86632,-0.8819 2.31751,-1.45615c0.28713,-0.38968 0.28713,-0.43067 0.38968,-0.77934zM118.50978,73.35129c0.30764,0 0.53324,0.22561 0.53324,0.51273c0,0.12305 -0.18458,0.86139 -0.94342,3.93773c-0.16407,0.59476 -0.26661,1.04595 -0.41017,1.55869c-0.18458,0.79985 -0.2461,1.02546 -0.2461,1.49717c0,0.41017 0.04102,0.9434 0.63578,0.9434c0.84087,0 1.23054,-1.29208 1.53816,-2.50212c0.08203,-0.30764 0.10254,-0.41017 0.28713,-0.41017c0.12305,0 0.2051,0.08203 0.2051,0.18458c0,0.08203 -0.28712,1.33309 -0.61527,2.03039c-0.36917,0.73831 -0.86139,1.10749 -1.47666,1.10749c-0.61527,0 -1.5792,-0.34866 -1.7843,-1.55869c-0.57425,0.67681 -1.53818,1.55869 -2.66618,1.55869c-1.39461,0 -2.58416,-1.18955 -2.58416,-3.21993c0,-3.03534 2.5021,-6.02967 4.81964,-6.02967c1.06647,0 1.62022,0.82036 1.8458,1.35361c0.04102,-0.2461 0.2051,-0.96393 0.86139,-0.96393z"/><path d="M123.90363,75.38165c0.08203,-0.36917 0.14357,-0.57425 0.14357,-1.06647c0,-0.61527 -0.16407,-0.94341 -0.63578,-0.94341c-0.82036,0 -1.21005,1.21002 -1.51765,2.42007c-0.12305,0.47171 -0.14356,0.49222 -0.30764,0.49222c-0.14357,0 -0.22561,-0.10254 -0.22561,-0.18458c0,-0.08203 0.28712,-1.3331 0.65629,-2.07142c0.38968,-0.77935 0.86139,-1.06647 1.45615,-1.06647c0.82037,0 1.62022,0.53324 1.7843,1.55869c0.2256,-0.28713 1.33308,-1.55869 2.64566,-1.55869c1.53816,0 2.60466,1.3331 2.60466,3.21994c0,3.01483 -2.50209,6.02967 -4.81963,6.02967c-1.06647,0 -1.62023,-0.79985 -1.8458,-1.3741c-0.12305,0.47171 -1.04595,3.99927 -1.04595,4.24538c0,0.16407 0.06153,0.30764 1.00495,0.30764c0.34866,0 0.49222,0 0.49222,0.22561c0,0.36917 -0.2461,0.36916 -0.36917,0.36916c-0.43069,0 -1.47665,-0.04102 -1.90734,-0.04102h-0.8819c-0.26662,0 -0.55375,0.04102 -0.82037,0.04102c-0.22561,0 -0.2461,-0.16407 -0.2461,-0.20509c0,-0.38968 0.2051,-0.38968 0.4512,-0.38968c0.84088,0 0.9229,-0.16408 1.06647,-0.77935zM124.12925,79.62707c-0.02051,0.10254 -0.06154,0.26662 -0.06154,0.32815c0,0.08203 0.22561,1.8458 1.62023,1.8458c0.94341,0 1.88683,-0.98444 2.39955,-2.09193c0.51273,-1.06647 1.08698,-3.384 1.08698,-4.36844c0,-1.06647 -0.41018,-1.96888 -1.31257,-1.96888c-0.77935,0 -1.45615,0.57425 -1.68176,0.77934c-0.32815,0.28713 -0.9024,0.8819 -1.04595,1.45615z"/><path d="M134.9669,74.58182c0.84088,-1.06647 1.86632,-1.62022 3.03534,-1.62022c1.55869,0 2.27651,0.92291 2.27651,2.15346c0,1.18954 -0.9229,3.60961 -1.29207,4.59405c-0.08203,0.22561 -0.32815,0.8819 -0.32815,1.41512c0,0.6563 0.32814,0.6768 0.53323,0.6768c0.82037,0 1.5792,-0.86138 2.05091,-2.50212c0.10254,-0.34865 0.12305,-0.41018 0.30764,-0.41018c0.12305,0 0.2051,0.08203 0.2051,0.18458c0,0.12305 -0.71783,3.13787 -2.62516,3.13787c-0.98444,0 -1.62023,-0.73832 -1.62023,-1.66124c0,-0.36917 0.10254,-0.63577 0.28713,-1.12799c0.4512,-1.23053 1.25106,-3.46605 1.25106,-4.61453c0,-0.82036 -0.28713,-1.43563 -1.10748,-1.43563c-1.5792,0 -2.50212,1.23055 -2.89178,1.82532c-0.38968,0.59476 -0.38968,0.61527 -0.61527,1.47666c-0.10254,0.4512 -0.22561,0.8819 -0.32815,1.33308l-0.9229,3.71215c-0.10254,0.22561 -0.36917,0.49222 -0.71783,0.49222c-0.2051,0 -0.55375,-0.08205 -0.55375,-0.53324c0,-0.12305 0,-0.16407 0.08203,-0.47171l2.97383,-11.87476c0.02051,-0.06153 0.06153,-0.22561 0.06153,-0.34866c0,-0.2051 -0.02051,-0.38968 -1.02546,-0.38968c-0.28713,0 -0.4512,0 -0.4512,-0.2051c0,-0.36917 0.14356,-0.38968 0.6563,-0.43069c0.36917,-0.02051 0.67681,-0.06153 1.02546,-0.08203c0.10254,-0.02051 1.10748,-0.10254 1.12799,-0.10254c0.04102,0 0.2461,0 0.2461,0.2051c0,0.10254 -0.04101,0.22561 -0.06153,0.30764z"/><path d="M145.52196,82.21121c-0.98444,0 -1.62022,-0.73833 -1.62022,-1.66125c0,-0.36917 0.12305,-0.69731 0.2461,-1.02546l1.43562,-3.81468c0.16407,-0.4512 0.43069,-1.12801 0.43069,-1.66125c0,-0.65629 -0.34865,-0.67681 -0.53324,-0.67681c-0.79986,0 -1.57921,0.82037 -2.07143,2.54312c-0.08203,0.28713 -0.10254,0.36917 -0.28713,0.36917c-0.14356,0 -0.22561,-0.10254 -0.22561,-0.18458c0,-0.16407 0.75884,-3.13788 2.64566,-3.13788c1.00495,0 1.62022,0.77935 1.62022,1.64072c0,0.38968 -0.14356,0.75883 -0.2051,0.92291l-1.43563,3.81468c-0.22561,0.61527 -0.47171,1.23053 -0.47171,1.7843c0,0.61527 0.28713,0.67681 0.53324,0.67681c0.67681,0 1.51766,-0.63579 2.0509,-2.50213c0.10254,-0.34865 0.12305,-0.41017 0.30763,-0.41017c0.12305,0 0.2051,0.08203 0.2051,0.18458c0,0.14356 -0.73833,3.13788 -2.62516,3.13788zM146.95758,70.19291c-0.2461,0 -0.67681,-0.16407 -0.67681,-0.67681c0,-0.53324 0.53324,-0.98443 1.00495,-0.98443c0.4512,0 0.69732,0.36916 0.69732,0.6768c0,0.4512 -0.47171,0.98444 -1.02544,0.98444z"/><path d="M155.40802,73.37177c-1.29208,0 -2.39956,1.10749 -2.93279,2.07142c-0.73831,1.39462 -1.08698,3.38401 -1.08698,4.1018c0,1.02546 0.4512,2.25601 1.86632,2.25601c0.77935,0 2.7277,-0.30763 4.04029,-2.05089c0.18458,-0.18458 0.2051,-0.2051 0.26664,-0.2051c0.08203,0 0.2051,0.10254 0.2051,0.22561c0,0.26662 -1.76379,2.44058 -4.55302,2.44058c-2.09193,0 -3.1994,-1.62022 -3.1994,-3.4045c0,-2.91228 2.68669,-5.8451 5.37339,-5.8451c1.41511,0 2.35854,0.75884 2.35854,1.74326c0,0.82036 -0.55375,1.23053 -1.04594,1.23053c-0.38968,0 -0.69732,-0.2461 -0.69732,-0.65629c0,-0.32815 0.22561,-0.63577 0.34866,-0.73831c0.28713,-0.2461 0.47172,-0.2461 0.86139,-0.2461c-0.41018,-0.8819 -1.53818,-0.92291 -1.80481,-0.92291z"/></g><path d="M178.05603,72.98213c-0.08203,0.36917 -0.10255,0.38967 -0.32815,0.38967c-0.06153,0 -0.26664,0.00001 -0.26664,-0.18458c0,-0.08203 0.06154,-0.53324 0.06154,-1.06647c0,-2.09193 -1.00495,-3.95825 -3.26096,-3.95825c-1.94835,0 -3.87622,1.14852 -5.00421,2.4611c-2.31753,2.68669 -2.52262,6.25525 -2.52262,6.91156c0,2.91228 1.88684,4.3069 4.0608,4.3069c2.05089,0 4.81962,-1.53817 5.76304,-4.7376c0.04102,-0.08203 0.06153,-0.2051 0.24611,-0.2051c0.06153,0 0.22561,0 0.22561,0.18458c0,0.16407 -0.53322,2.15346 -2.31751,3.65061c-1.18954,1.00495 -2.62516,1.70225 -4.26591,1.70225c-2.99433,0 -5.39388,-2.13296 -5.39388,-5.55796c0,-4.81963 4.59402,-9.31112 9.02399,-9.31112c1.53816,0 2.66618,0.69731 3.38401,1.92786l1.41513,-1.72276c0.16407,-0.2051 0.24611,-0.2051 0.28713,-0.2051c0.04102,0 0.18458,0 0.18458,0.18459z"/><path d="M187.04626,75.54575c0.02051,-0.04102 0.08203,-0.30764 0.08203,-0.32815c0,-0.16407 -0.26662,-1.8458 -1.62023,-1.8458c-0.79986,0 -1.76378,0.73831 -2.4611,2.17397c-0.38968,0.86139 -1.02544,3.15839 -1.02544,4.28641c0,1.21004 0.47171,1.96888 1.31257,1.96888c0.96393,0 1.86632,-0.8819 2.31753,-1.45615c0.28713,-0.38968 0.28713,-0.43067 0.38968,-0.77934zM188.21527,73.35129c0.30764,0 0.53324,0.22561 0.53324,0.51273c0,0.12305 -0.18458,0.86139 -0.94341,3.93773c-0.16407,0.59476 -0.26664,1.04595 -0.41018,1.55869c-0.18458,0.79985 -0.2461,1.02546 -0.2461,1.49717c0,0.41017 0.04102,0.9434 0.63577,0.9434c0.84088,0 1.23055,-1.29208 1.53818,-2.50212c0.08203,-0.30764 0.10254,-0.41017 0.28713,-0.41017c0.12305,0 0.2051,0.08203 0.2051,0.18458c0,0.08203 -0.28713,1.33309 -0.61527,2.03039c-0.36917,0.73831 -0.86139,1.10749 -1.47666,1.10749c-0.61527,0 -1.5792,-0.34866 -1.7843,-1.55869c-0.57425,0.67681 -1.53816,1.55869 -2.66618,1.55869c-1.39461,0 -2.58415,-1.18955 -2.58415,-3.21993c0,-3.03534 2.50212,-6.02967 4.81963,-6.02967c1.06647,0 1.62023,0.82036 1.84581,1.35361c0.04102,-0.2461 0.20509,-0.96393 0.86139,-0.96393z"/><path d="M192.72724,79.77063c-0.14356,0.57425 -0.14356,1.00495 -0.14356,1.08698c0,0.28713 0,0.9434 0.61527,0.9434c0.82037,0 1.18954,-1.08698 1.55869,-2.50212c0.08203,-0.30764 0.10254,-0.41017 0.28713,-0.41017c0.12305,0 0.2051,0.08203 0.2051,0.18458c0,0.08203 -0.28713,1.37411 -0.63578,2.0509c-0.32815,0.63578 -0.77935,1.08698 -1.45615,1.08698c-1.04594,0 -1.80481,-0.82037 -1.80481,-1.8458c0,-0.32815 0.04103,-0.49222 0.10255,-0.71782l2.54312,-10.1725c0.10254,-0.36917 0.10254,-0.41018 0.10254,-0.49222c0,-0.2051 0,-0.38968 -1.04594,-0.38968c-0.2051,0 -0.41018,0 -0.41018,-0.2051c0,-0.36917 0.14356,-0.38968 0.63578,-0.43069c0.36917,-0.02051 0.67681,-0.06153 1.02546,-0.08203c0.36917,-0.04102 1.10748,-0.10254 1.12799,-0.10254c0.04102,0 0.24611,0 0.24611,0.2051c0,0.10254 -0.04102,0.22561 -0.06153,0.30764z"/><path d="M203.05674,73.37177c-1.29208,0 -2.39955,1.10749 -2.93279,2.07142c-0.73831,1.39462 -1.08698,3.38401 -1.08698,4.1018c0,1.02546 0.4512,2.25601 1.86632,2.25601c0.77935,0 2.7277,-0.30763 4.04029,-2.05089c0.18458,-0.18458 0.2051,-0.2051 0.26664,-0.2051c0.08203,0 0.2051,0.10254 0.2051,0.22561c0,0.26662 -1.76378,2.44058 -4.55302,2.44058c-2.09193,0 -3.19941,-1.62022 -3.19941,-3.4045c0,-2.91228 2.68669,-5.8451 5.3734,-5.8451c1.41511,0 2.35854,0.75884 2.35854,1.74326c0,0.82036 -0.55375,1.23053 -1.04594,1.23053c-0.38968,0 -0.69732,-0.2461 -0.69732,-0.65629c0,-0.32815 0.22561,-0.63577 0.34866,-0.73831c0.28713,-0.2461 0.47171,-0.2461 0.86139,-0.2461c-0.41018,-0.8819 -1.53818,-0.92291 -1.80481,-0.92291z"/><path d="M210.03818,82.21121c-0.84088,0 -2.42007,-0.32815 -2.42007,-2.42008c0,-0.61527 0.10254,-1.39462 1.00495,-3.83519c0.30764,-0.77935 0.53324,-1.3741 0.53324,-1.90735c0,-0.65629 -0.32815,-0.67681 -0.53324,-0.67681c-0.77935,0 -1.5792,0.77935 -2.07142,2.54312c-0.08203,0.28713 -0.10254,0.36917 -0.28713,0.36917c-0.14356,0 -0.22561,-0.10254 -0.22561,-0.18458c0,-0.16407 0.75884,-3.13787 2.64566,-3.13787c0.98444,0 1.62022,0.75884 1.62022,1.64072c0,0.41017 -0.10254,0.6768 -0.34866,1.33308c-0.53324,1.37411 -1.1075,3.01483 -1.1075,4.18386c0,0.75884 0.20509,1.68175 1.27156,1.68175c1.49717,0 2.29701,-1.68175 2.31751,-1.68175c0.14356,-0.71783 1.25105,-5.12727 1.45615,-5.92713c0.12305,-0.51273 0.26664,-1.02546 0.86139,-1.02546c0.30764,0 0.55375,0.2051 0.55375,0.51273c0,0.06153 0,0.10254 -0.14356,0.61527l-0.84086,3.34297c-0.12305,0.57425 -0.26665,1.12799 -0.41018,1.68176c-0.2051,0.86139 -0.26661,1.06649 -0.26661,1.53817c0,0.26662 0,0.94341 0.61527,0.94341c0.82037,0 1.18953,-1.08699 1.55869,-2.50213c0.08203,-0.30764 0.10254,-0.41017 0.28713,-0.41017c0.12305,0 0.2051,0.08203 0.2051,0.18458c0,0.06153 -0.26662,1.27156 -0.61527,2.0099c-0.32815,0.69732 -0.82036,1.128 -1.47665,1.128c-0.49222,0 -1.47666,-0.2461 -1.74327,-1.39462c-0.41018,0.49222 -1.12799,1.39462 -2.44057,1.39462z"/><path d="M219.23213,79.77063c-0.14356,0.57425 -0.14356,1.00495 -0.14356,1.08698c0,0.28713 0,0.9434 0.61527,0.9434c0.82037,0 1.18953,-1.08698 1.55869,-2.50212c0.08203,-0.30764 0.10254,-0.41017 0.28713,-0.41017c0.12305,0 0.2051,0.08203 0.2051,0.18458c0,0.08203 -0.28713,1.37411 -0.63578,2.0509c-0.32815,0.63578 -0.77934,1.08698 -1.45615,1.08698c-1.04594,0 -1.80481,-0.82037 -1.80481,-1.8458c0,-0.32815 0.04102,-0.49222 0.10254,-0.71782l2.54312,-10.1725c0.10254,-0.36917 0.10254,-0.41018 0.10254,-0.49222c0,-0.2051 0,-0.38968 -1.04597,-0.38968c-0.2051,0 -0.41017,0 -0.41017,-0.2051c0,-0.36917 0.14356,-0.38968 0.63577,-0.43069c0.36917,-0.02051 0.67681,-0.06153 1.02546,-0.08203c0.36917,-0.04102 1.10748,-0.10254 1.12799,-0.10254c0.04102,0 0.2461,0 0.2461,0.2051c0,0.10254 -0.04102,0.22561 -0.06153,0.30764z"/><path d="M230.52554,75.54575c0.02051,-0.04102 0.08204,-0.30764 0.08204,-0.32815c0,-0.16407 -0.26662,-1.8458 -1.62023,-1.8458c-0.79985,0 -1.76378,0.73831 -2.4611,2.17397c-0.38968,0.86139 -1.02544,3.15839 -1.02544,4.28641c0,1.21004 0.47171,1.96888 1.31259,1.96888c0.96393,0 1.86633,-0.8819 2.31751,-1.45615c0.28713,-0.38968 0.28712,-0.43067 0.38968,-0.77934zM231.69458,73.35129c0.30764,0 0.53323,0.22561 0.53323,0.51273c0,0.12305 -0.18459,0.86139 -0.9434,3.93773c-0.16408,0.59476 -0.26661,1.04595 -0.41017,1.55869c-0.18459,0.79985 -0.24611,1.02546 -0.24611,1.49717c0,0.41017 0.04102,0.9434 0.63577,0.9434c0.84088,0 1.23054,-1.29208 1.53817,-2.50212c0.08203,-0.30764 0.10254,-0.41017 0.28712,-0.41017c0.12305,0 0.2051,0.08203 0.2051,0.18458c0,0.08203 -0.28712,1.33309 -0.61527,2.03039c-0.36917,0.73831 -0.86139,1.10749 -1.47666,1.10749c-0.61527,0 -1.5792,-0.34866 -1.78429,-1.55869c-0.57425,0.67681 -1.53816,1.55869 -2.66618,1.55869c-1.39461,0 -2.58415,-1.18955 -2.58415,-3.21993c0,-3.03534 2.50209,-6.02967 4.81963,-6.02967c1.06647,0 1.62023,0.82036 1.8458,1.35361c0.04102,-0.2461 0.20509,-0.96393 0.86138,-0.96393z"/><path d="M236.41165,80.18082c-0.06153,0.24611 -0.06154,0.63577 -0.06154,0.65629c0,0.4512 0.04102,0.96393 0.6563,0.96393c1.18953,0 2.13295,-1.43563 2.56364,-2.4611c0.14357,-0.32815 0.16407,-0.34865 0.18459,-0.36916c0.04102,-0.08203 0.12305,-0.08203 0.16407,-0.08203c0.12305,0 0.2051,0.06153 0.2051,0.18458c0,0.14356 -1.10749,3.13788 -3.17891,3.13788c-1.14852,0 -1.82532,-0.8819 -1.82532,-1.8458c0,-0.26662 0.06153,-0.47171 0.22558,-1.18954l1.35361,-5.41439h-1.82532c-0.38968,0 -0.53323,0 -0.53323,-0.2051c0,-0.38968 0.18459,-0.38967 0.59476,-0.38967h1.92786l0.79986,-3.26095c0.16407,-0.65629 0.63577,-0.7178 0.79985,-0.7178c0.26662,0 0.53324,0.18458 0.53324,0.51272c0,0.14357 0,0.18459 -0.08203,0.47173l-0.75884,2.99432h1.80481c0.41018,0 0.53324,0 0.53324,0.22561c0,0.36917 -0.2051,0.36916 -0.59476,0.36916h-1.88684z"/><path d="M245.11947,82.21121c-1.86632,0 -3.13788,-1.45615 -3.13788,-3.40451c0,-2.89177 2.66618,-5.84509 5.37338,-5.84509c1.86632,0 3.13788,1.45614 3.13788,3.4045c0,2.89177 -2.64566,5.8451 -5.3734,5.8451zM247.90872,79.89369c0.77934,-1.25105 1.21002,-3.44553 1.21002,-4.26591c0,-1.43563 -0.77935,-2.25601 -1.7843,-2.25601c-0.84087,0 -1.98939,0.53325 -2.91228,2.11245c-0.57425,1.02546 -1.06647,3.11737 -1.06647,4.06079c0,1.43563 0.75883,2.25601 1.7843,2.25601c0.79985,0 1.92786,-0.53323 2.76873,-1.90735z"/><path d="M257.84968,73.37177c-0.84087,0 -1.37411,0.47171 -1.62023,0.69731c-0.51273,0.4512 -1.06647,1.45615 -1.128,1.64073c-0.06153,0.26662 -0.14356,0.59476 -0.2256,0.8819c-0.10254,0.4512 -0.22561,0.8819 -0.32815,1.33308c-0.12305,0.47171 -0.8819,3.56859 -0.94342,3.73265c-0.12305,0.41017 -0.51272,0.55375 -0.73831,0.55375c-0.30764,0 -0.53324,-0.22561 -0.53324,-0.51273c0,-0.10254 0.22561,-1.06647 0.36918,-1.59971c0.10254,-0.36917 0.32815,-1.29208 0.41017,-1.68176l0.57425,-2.21498c0.14357,-0.63578 0.34866,-1.43563 0.34866,-1.88684c0,-0.59476 -0.14356,-0.94341 -0.63578,-0.94341c-0.82037,0 -1.21005,1.18954 -1.51765,2.42007c-0.12305,0.47171 -0.14356,0.49222 -0.30764,0.49222c-0.14357,0 -0.22561,-0.10254 -0.22561,-0.18458c0,-0.10254 0.30763,-1.3331 0.65629,-2.07142c0.24611,-0.4512 0.6563,-1.06647 1.45615,-1.06647c0.82036,0 1.64072,0.53325 1.78429,1.62023c0.86139,-1.25105 1.8048,-1.62023 2.62516,-1.62023c1.02546,0 1.66125,0.57428 1.66125,1.23055c0,0.61527 -0.47172,1.10749 -1.04595,1.10749c-0.28713,0 -0.6768,-0.16407 -0.6768,-0.65629c0,-0.4512 0.32814,-0.90239 0.96392,-1.02544c-0.26662,-0.18458 -0.59476,-0.2461 -0.9229,-0.2461z"/></g><text transform="translate(421.53699,42.49863) scale(0.30499,0.30499)" font-size="40" xml:space="preserve" fill-opacity="0.71765" fill="#ff0000" fill-rule="nonzero" stroke="none" stroke-width="1" stroke-linecap="butt" stroke-linejoin="miter" stroke-miterlimit="10" stroke-dasharray="" stroke-dashoffset="0" font-family="&quot;Microsoft YaHei&quot;, &quot;微软雅黑&quot;, STXihei, &quot;华文细黑&quot;" font-weight="normal" text-anchor="start" style="mix-blend-mode: normal"><tspan x="0" dy="0">点击关闭</tspan></text><text transform="translate(213.18152,175.92017) scale(0.26666,0.26666)" font-size="40" xml:space="preserve" fill="#e07d00" fill-rule="nonzero" stroke="none" stroke-width="1" stroke-linecap="butt" stroke-linejoin="miter" stroke-miterlimit="10" stroke-dasharray="" stroke-dashoffset="0" font-family="&quot;Microsoft YaHei&quot;, &quot;微软雅黑&quot;, STXihei, &quot;华文细黑&quot;" font-weight="normal" text-anchor="start" style="mix-blend-mode: normal"><tspan x="0" dy="0">新一代函数计算器，全新架构，性能超强</tspan><tspan x="0" dy="46.15px">妈妈再也不怕我忘记函数图像！</tspan><tspan x="0" dy="46.15px"> </tspan><tspan x="0" dy="46.15px">支持24种三角函数，数十种特殊函数</tspan><tspan x="0" dy="46.15px">同样支持求和，求积，求导，积分</tspan><tspan x="0" dy="46.15px">正态分布，伽马函数，误差函数都能画</tspan><tspan x="0" dy="46.15px">支持平面坐标系，3D坐标系，编程以及几何</tspan><tspan x="0" dy="46.15px"> </tspan><tspan x="0" dy="46.15px">此作还未完全开发完，请各位提出宝贵意见！</tspan></text><text transform="translate(365.2786,320.89488) scale(0.30249,0.30249)" font-size="40" xml:space="preserve" fill="#000000" fill-rule="nonzero" stroke="none" stroke-width="1" stroke-linecap="butt" stroke-linejoin="miter" stroke-miterlimit="10" stroke-dasharray="" stroke-dashoffset="0" font-family="&quot;Microsoft YaHei&quot;, &quot;微软雅黑&quot;, STXihei, &quot;华文细黑&quot;" font-weight="normal" text-anchor="start" style="mix-blend-mode: normal"><tspan x="0" dy="0">原作者：SQY(419)</tspan></text><g stroke-width="1"><text transform="translate(213.13114,115.38962) scale(0.39008,0.39008)" font-size="40" xml:space="preserve" fill="#000000" fill-rule="nonzero" stroke="none" stroke-width="1" stroke-linecap="butt" stroke-linejoin="miter" stroke-miterlimit="10" stroke-dasharray="" stroke-dashoffset="0" font-family="&quot;Microsoft YaHei&quot;, &quot;微软雅黑&quot;, STXihei, &quot;华文细黑&quot;" font-weight="normal" text-anchor="start" style="mix-blend-mode: normal"><tspan x="0" dy="0">稽何计算器</tspan></text><g fill="none" stroke-linecap="round"><g><path d="M300.28942,122.70863c0,0 0.79406,-5.72434 1.54305,-11.18708c0.19659,-2.5061 1.99184,-4.56799 4.53588,-4.04613c1.48572,-0.09414 3.11696,1.52341 3.26346,3.15202c0.17461,1.94145 -0.31138,4.57255 -3.29425,4.98273c-2.4231,0.33321 -3.45955,-1.62333 -3.45955,-1.62333" stroke="url(#color-2)"/><path d="M312.75457,115.51343c0,0 -1.28613,0.01029 -1.05306,-1.8105c0.34022,-2.65781 2.73327,-12.59787 2.73327,-12.59787" stroke="url(#color-3)"/><path d="M321.90736,107.96253c-0.69964,6.12199 -1.9154,8.05927 -4.33901,7.97454c-2.21664,-0.07751 -2.3301,-2.57404 -1.24482,-8.18414" stroke="url(#color-4)"/><path d="M323.88867,115.22491c0,0 1.26554,1.13457 2.79813,0.88443c0.72694,-0.11865 2.1048,-0.60788 2.33953,-1.56782c0.43819,-1.85965 -0.6024,-2.36718 -2.01634,-2.61044c-1.34365,-0.23119 -3.06881,-0.19418 -2.52695,-1.9558c0.31515,-1.02458 1.39638,-2.02017 2.81595,-2.02959c1.82896,-0.01215 2.65081,1.02752 2.65081,1.02752" stroke="url(#color-5)"/></g><g><path d="M339.53235,102.75938h-7.88254" stroke="url(#color-6)"/><path d="M335.59109,106.81014v-8.1015" stroke="url(#color-7)"/></g></g></g><g><text transform="translate(230.87434,145.45204) scale(0.26072,0.26072)" font-size="40" xml:space="preserve" fill="#000000" fill-rule="nonzero" stroke="none" stroke-width="1" stroke-linecap="butt" stroke-linejoin="miter" stroke-miterlimit="10" stroke-dasharray="" stroke-dashoffset="0" font-family="Sans Serif" font-weight="normal" text-anchor="start" style="mix-blend-mode: normal"><tspan x="0" dy="0">beta math project</tspan></text><g fill="none" stroke-linecap="round"><path d="M214.92873,152.95931c0,0 2.11638,-12.80505 4.38951,-18.15944c1.59794,-3.76398 7.51532,-3.96286 6.55549,0.46246c-1.21045,5.58075 -7.14826,4.61326 -8.01543,4.43317c-1.04646,-0.21735 7.91309,-1.22918 6.06131,4.06434c-1.5591,4.54856 -7.19623,1.98937 -7.19623,1.98937" stroke="url(#color-8)" stroke-width="1.5"/><path d="M218.64271,151.93092c0,0 -0.14003,-5.47405 0.12345,-5.47405c0.14003,0 2.4257,5.43666 2.6628,5.22715c0.19147,-0.1692 3.06021,-5.29333 3.00815,-5.2006c-0.10267,0.18292 -0.12345,5.29905 -0.12345,5.29905" stroke="#0041ff" stroke-width="1"/></g></g><text transform="translate(386.22234,342.82878) scale(0.25478,0.25478)" font-size="40" xml:space="preserve" fill="#000000" fill-rule="nonzero" stroke="none" stroke-width="1" stroke-linecap="butt" stroke-linejoin="miter" stroke-miterlimit="10" stroke-dasharray="" stroke-dashoffset="0" font-family="Handwriting" font-weight="normal" text-anchor="start" style="mix-blend-mode: normal"><tspan x="0" dy="0">SQY保留所有权利</tspan></text><text transform="translate(17.12705,49.34872) scale(0.4375,0.4375)" font-size="40" xml:space="preserve" fill="#000000" fill-rule="nonzero" stroke="none" stroke-width="1" stroke-linecap="butt" stroke-linejoin="miter" stroke-miterlimit="10" stroke-dasharray="" stroke-dashoffset="0" font-family="Sans Serif" font-weight="normal" text-anchor="start" style="mix-blend-mode: normal"><tspan x="0" dy="0">关于</tspan></text><g><g fill="#ffca00" stroke="none" stroke-width="0" stroke-linecap="butt"><path d="M49.01668,222.15929v-55.85911h101.77076v55.85911z"/><path d="M72.07948,246.64548v-107.07183h53.51369v107.07183z"/><path d="M49.01668,163.79394c0,-13.31207 10.79156,-24.10361 24.10361,-24.10361c13.31207,0 24.10361,10.79157 24.10361,24.10361c0,13.31207 -10.79157,24.10361 -24.10361,24.10361c-13.31207,0 -24.10359,-10.79156 -24.10359,-24.10359z"/><path d="M102.65761,163.74078c0,-13.31207 10.79156,-24.10361 24.10361,-24.10361c13.31207,0 24.10361,10.79156 24.10361,24.10361c0,13.31207 -10.79157,24.10361 -24.10361,24.10361c-13.31207,0 -24.10359,-10.79156 -24.10359,-24.10359z"/><path d="M49.02598,222.5318c0,-13.31207 10.79156,-24.10361 24.10361,-24.10361c13.31207,0 24.10361,10.79156 24.10361,24.10361c0,13.31207 -10.79156,24.10361 -24.10361,24.10361c-13.31207,0 -24.10359,-10.79156 -24.10359,-24.10359z"/><path d="M102.5573,222.4355c0,-13.31207 10.79156,-24.10361 24.10361,-24.10361c13.31207,0 24.10361,10.79157 24.10361,24.10361c0,13.31207 -10.79156,24.10361 -24.10361,24.10361c-13.31207,0 -24.10359,-10.79156 -24.10359,-24.10359z"/></g><g fill="none" stroke="#000000" stroke-width="0.5" stroke-linecap="round"><path d="M133.51445,185.24056l8.26044,8.26044h-80.40181"/><path d="M98.82051,234.2526v-83.70597l9.36185,9.36185"/></g><path d="M78.02996,235.76121c-2.50679,0 -1.70049,-5.01079 -1.70049,-5.01079c1.722,-13.57227 7.55918,-40.81742 23.05929,-39.86676c10.42049,-0.2287 15.13766,-17.72257 16.54761,-33.3779c0,0 0.07496,-7.3003 2.89371,-7.02006c2.49447,0.24801 1.51531,7.15399 1.51531,7.15399c-2.01316,17.25613 -4.53324,36.93846 -20.95041,38.08421c-12.37869,-0.16589 -16.54278,22.95578 -18.79634,35.36618c0,0 -0.02769,4.67119 -2.53447,4.67119z" fill="url(#color-9)" stroke="none" stroke-width="0.5" stroke-linecap="butt"/></g><text transform="translate(331.37678,146.14177) scale(0.31917,0.31917)" font-size="40" xml:space="preserve" fill="#1500ff" fill-rule="nonzero" stroke="none" stroke-width="1" stroke-linecap="butt" stroke-linejoin="miter" stroke-miterlimit="10" stroke-dasharray="" stroke-dashoffset="0" font-family="&quot;Microsoft YaHei&quot;, &quot;微软雅黑&quot;, STXihei, &quot;华文细黑&quot;" font-weight="normal" text-anchor="start" style="mix-blend-mode: normal"><tspan x="0" dy="0">beta math 项目</tspan></text></g></g></svg>