<svg version="1.1" xmlns="http://www.w3.org/2000/svg" xmlns:xlink="http://www.w3.org/1999/xlink" width="32.38359" height="32.7622" viewBox="0,0,32.38359,32.7622"><g transform="translate(-223.80825,-163.6189)"><g data-paper-data="{&quot;isPaintingLayer&quot;:true}" fill-rule="nonzero" stroke-linecap="butt" stroke-linejoin="miter" stroke-miterlimit="10" stroke-dasharray="" stroke-dashoffset="0" style="mix-blend-mode: normal"><path d="M223.87138,186.22216v-13.12651h32.32046l-0.14426,13.27071z" data-paper-data="{&quot;origPos&quot;:null}" fill="#ffca00" stroke="#000000" stroke-width="0"/><g fill="#ffca00" stroke="#000000" stroke-width="0"><path d="M237.06103,186.90589c0,-5.22808 4.23817,-9.46625 9.46625,-9.46625c5.22808,0 9.4662,4.23823 9.4662,9.46625c0,5.22808 -4.23817,9.4662 -9.4662,9.4662c-5.22808,0 -9.46625,-4.23818 -9.46625,-9.4662z" data-paper-data="{&quot;origPos&quot;:null}"/><path d="M223.80825,173.14827c0,-5.22808 4.23817,-9.46625 9.4662,-9.46625c5.22808,0 9.46626,4.23823 9.46626,9.46625c0,5.22808 -4.23818,9.4662 -9.46626,9.4662c-5.22808,0 -9.4662,-4.23818 -9.4662,-9.4662z" data-paper-data="{&quot;origPos&quot;:null}"/><path d="M223.80825,186.90589c0,-5.22808 4.23817,-9.46625 9.4662,-9.46625c5.22808,0 9.46626,4.23823 9.46626,9.46625c0,5.22808 -4.23818,9.4662 -9.46626,9.4662c-5.22808,0 -9.4662,-4.23818 -9.4662,-9.4662z" data-paper-data="{&quot;origPos&quot;:null}"/><path d="M237.25032,173.08515c0,-5.22808 4.23818,-9.46625 9.46626,-9.46625c5.22808,0 9.46626,4.23817 9.46626,9.46625c0,5.22808 -4.23818,9.4662 -9.46626,9.4662c-5.22808,0 -9.46626,-4.23818 -9.46626,-9.4662z" data-paper-data="{&quot;origPos&quot;:null}"/><path d="M233.58404,196.3811l-0.03606,-32.69914l13.63139,-0.03605v32.69908z" data-paper-data="{&quot;origPos&quot;:null}"/></g><text transform="translate(236.54703,184.55748) scale(0.37979,0.37979)" font-size="40" xml:space="preserve" fill="#000000" fill-rule="nonzero" stroke="none" stroke-width="1" stroke-linecap="butt" stroke-linejoin="miter" stroke-miterlimit="10" stroke-dasharray="" stroke-dashoffset="0" font-family="Cambria Math" font-weight="normal" text-anchor="start" style="mix-blend-mode: normal"><tspan x="0" dy="0">z</tspan></text></g></g></svg>