<svg version="1.1" xmlns="http://www.w3.org/2000/svg" xmlns:xlink="http://www.w3.org/1999/xlink" width="61.53101" height="76.20015" viewBox="0,0,61.53101,76.20015"><g transform="translate(-209.62681,-149.37302)"><g data-paper-data="{&quot;isPaintingLayer&quot;:true}" fill-rule="nonzero" stroke-linejoin="miter" stroke-miterlimit="10" stroke-dasharray="" stroke-dashoffset="0" style="mix-blend-mode: normal"><text transform="translate(225.1056,222.48541) scale(0.24702,0.24702)" font-size="40" xml:space="preserve" fill="#000000" fill-rule="nonzero" stroke="none" stroke-width="1" stroke-linecap="butt" stroke-linejoin="miter" stroke-miterlimit="10" stroke-dasharray="" stroke-dashoffset="0" font-family="Sans Serif" font-weight="normal" text-anchor="start" style="mix-blend-mode: normal"><tspan x="0" dy="0">幂函数</tspan></text><path d="M271.15782,201.25138c0,5.35145 -2.60591,9.69054 -5.81833,9.69054h-49.89502c-3.2131,0 -5.81766,-4.34019 -5.81766,-9.69054v-42.18897c0,-5.35145 2.60456,-9.68939 5.81766,-9.68939h49.89435c3.21445,0 5.81833,4.33794 5.81833,9.68939v42.18897z" fill-opacity="0.21569" fill="#ffcc00" stroke="none" stroke-width="0" stroke-linecap="butt"/><path d="M218.52021,207.01591c0,0 -0.91224,-10.73145 7.15062,-18.29151c12.63082,-11.84315 36.62464,-9.76956 36.62464,-9.76956" fill="none" stroke="#0077ff" stroke-width="1.5" stroke-linecap="round"/><path d="M246.42093,153.29902c0,0 0.86006,10.15329 -12.56158,25.73782c-6.01531,6.98468 -13.73566,8.25615 -13.73566,8.25615" fill="none" stroke="#ff0000" stroke-width="1.5" stroke-linecap="round"/><path d="M261.81442,193.5466c0,0 -28.69591,2.00582 -38.58162,-21.25046c-1.8847,-4.43378 -1.98666,-15.3091 -1.98666,-15.3091" fill="none" stroke="#00ff46" stroke-width="1.5" stroke-linecap="round"/><path d="M218.68056,188.25509c0,0 3.24952,-7.27243 9.91263,-10.81802c13.35509,-7.10654 32.57985,-5.69792 32.57985,-5.69792" fill="none" stroke="#ff00ea" stroke-width="1.5" stroke-linecap="round"/></g></g></svg>