<svg version="1.1" xmlns="http://www.w3.org/2000/svg" xmlns:xlink="http://www.w3.org/1999/xlink" width="9.94968" height="18.78323" viewBox="0,0,9.94968,18.78323"><g transform="translate(-235.02516,-165.83334)"><g data-paper-data="{&quot;isPaintingLayer&quot;:true}" fill-rule="nonzero" stroke-width="1" stroke-linecap="butt" stroke-linejoin="miter" stroke-miterlimit="10" stroke-dasharray="" stroke-dashoffset="0" style="mix-blend-mode: normal"><path d="M238.66666,165.83334z" fill="none" stroke-opacity="0.57255" stroke="#000000"/><path d="M243.11183,175.7929c-0.94174,0 -1.6378,0.90079 -1.94489,2.12914l-0.71654,2.78427c-0.32756,1.35119 -0.40945,1.67875 -0.40945,2.12914c0,0.83937 0.38898,1.37166 1.10552,1.37166c0.92127,0 2.10867,-0.83938 2.66143,-2.64096c0.06142,-0.16378 0.08189,-0.26614 0.26614,-0.26614c0.12284,0 0.20473,0.08188 0.20473,0.18425c0,0.45039 -1.10552,3.13231 -3.19373,3.13231c-0.75749,0 -1.78111,-0.40946 -2.10867,-1.61733c-0.42992,0.83937 -1.12599,1.61733 -2.10868,1.61733c-0.88032,0 -1.84253,-0.38898 -1.84253,-1.24883c0,-0.65512 0.53229,-1.08505 1.02363,-1.08505c0.38898,0 0.69607,0.24568 0.69607,0.65512c0,0.24567 -0.16378,0.85984 -0.90079,1.00315c0.42992,0.26614 0.94173,0.26614 1.0441,0.26614c1.08505,0 1.67875,-1.12599 1.98584,-2.35434l0.69607,-2.80474c0.24567,-0.98269 0.3685,-1.45355 0.3685,-1.90395c0,-0.49134 -0.18426,-1.35119 -1.10552,-1.35119c-0.5937,0 -1.96536,0.42992 -2.66143,2.70238c-0.04094,0.08189 -0.08189,0.20473 -0.24567,0.20473c-0.14331,0 -0.22519,-0.10237 -0.22519,-0.18426c0,-0.45039 1.10552,-3.1323 3.19372,-3.1323c0.36851,0 1.63781,0.08189 2.10868,1.61733c0.18425,-0.38898 0.88032,-1.61733 2.12914,-1.61733c0.85985,0 1.84253,0.38898 1.84253,1.24883c0,0.55276 -0.42993,1.08504 -1.0441,1.08504c-0.28661,0 -0.67559,-0.16378 -0.67559,-0.65512c0,-0.38898 0.24567,-0.88032 0.9008,-1.00316c-0.42993,-0.26614 -1.00316,-0.26614 -1.04411,-0.26614z" fill-opacity="0.74118" fill="#505050" stroke="none"/></g></g></svg>