<svg version="1.1" xmlns="http://www.w3.org/2000/svg" xmlns:xlink="http://www.w3.org/1999/xlink" width="24.41667" height="28.33333" viewBox="0,0,24.41667,28.33333"><g transform="translate(-228.27022,-166.8184)"><g data-paper-data="{&quot;isPaintingLayer&quot;:true}" fill-rule="nonzero" stroke="none" stroke-linecap="butt" stroke-linejoin="miter" stroke-miterlimit="10" stroke-dasharray="" stroke-dashoffset="0" style="mix-blend-mode: normal"><path d="M237.61495,179.08897c0.53229,-0.57323 1.43308,-1.08505 2.60002,-1.08505c2.14962,0 3.78742,2.02678 3.78742,4.46302c0,2.60002 -2.02678,4.54492 -4.34018,4.54492c-2.27246,0 -3.66459,-1.98585 -3.66459,-3.72601c0,-0.79843 0.53229,-0.98269 0.9008,-0.98269c0.51182,0 0.90079,0.32757 0.90079,0.9008c0,0.69607 -0.55276,0.90079 -0.90079,0.90079c-0.10236,0 -0.2252,-0.02048 -0.32757,-0.06142c0.3685,1.4945 1.69923,2.41576 3.05042,2.41576c0.90079,0 1.69923,-0.51182 2.14962,-1.24883c0.57323,-0.92127 0.57323,-2.08821 0.57323,-2.86616c0,-0.77795 -0.02047,-1.78111 -0.3685,-2.57954c-0.16378,-0.34804 -0.69607,-1.35119 -1.78111,-1.35119c-1.02363,0 -1.98584,0.49134 -2.55907,1.33071c-0.20472,0.24567 -0.2252,0.26614 -0.32756,0.26614c-0.24567,0 -0.24567,-0.12284 -0.24567,-0.49134v-6.08035c0,-0.32756 0,-0.45039 0.16378,-0.45039c0.02047,0 0.06141,0 0.20472,0.06142c0.38898,0.16378 1.35118,0.57323 2.70237,0.57323c0.53229,0 1.51497,-0.06142 2.66144,-0.55276c0.18426,-0.08189 0.2252,-0.08189 0.26614,-0.08189c0.12284,0 0.16378,0.10236 0.16378,0.18425c0,0.28662 -1.47403,1.98584 -3.78743,1.98584c-0.2252,0 -0.94173,-0.02047 -1.82206,-0.30709z" fill="#ff0000" stroke-width="1"/><path d="M228.27022,195.15173v-28.33333h24.41667v28.33333z" fill="none" stroke-width="0"/></g></g></svg>