<svg version="1.1" xmlns="http://www.w3.org/2000/svg" xmlns:xlink="http://www.w3.org/1999/xlink" width="62.07973" height="76.71684" viewBox="0,0,62.07973,76.71684"><g transform="translate(-208.96015,-148.88966)"><g data-paper-data="{&quot;isPaintingLayer&quot;:true}" fill-rule="nonzero" stroke-linejoin="miter" stroke-miterlimit="10" stroke-dasharray="" stroke-dashoffset="0" style="mix-blend-mode: normal"><path d="M271.03989,201.31722c0,5.4081 -2.62915,9.79312 -5.87022,9.79312h-50.33997c-3.24176,0 -5.86954,-4.38614 -5.86954,-9.79312v-42.63559c0,-5.4081 2.62778,-9.79196 5.86954,-9.79196h50.33929c3.24312,0 5.87022,4.38386 5.87022,9.79196v42.63559z" fill-opacity="0.21569" fill="#ffcc00" stroke="none" stroke-width="0" stroke-linecap="butt"/><text transform="translate(220.23842,222.51876) scale(0.24702,0.24702)" font-size="40" xml:space="preserve" fill="#000000" fill-rule="nonzero" stroke="none" stroke-width="1" stroke-linecap="butt" stroke-linejoin="miter" stroke-miterlimit="10" stroke-dasharray="" stroke-dashoffset="0" font-family="Sans Serif" font-weight="normal" text-anchor="start" style="mix-blend-mode: normal"><tspan x="0" dy="0">初等函数</tspan></text><path d="M221.97576,197.74034l37.16667,-37.16667" fill="none" stroke="#ff0000" stroke-width="1" stroke-linecap="round"/><path d="M240.64242,157.57367c0,0 -1.37055,11.65777 4.82191,16.82893c6.95392,5.80703 17.34476,5.67107 17.34476,5.67107" fill="none" stroke="#0021ff" stroke-width="1" stroke-linecap="round"/><path d="M217.01339,177.24061c0,0 10.39084,-0.13596 17.34476,5.67108c6.19245,5.17116 4.82191,16.82892 4.82191,16.82892" data-paper-data="{&quot;index&quot;:null}" fill="none" stroke="#0021ff" stroke-width="1" stroke-linecap="round"/><path d="M220.91667,160.91667l38.16667,38.16667" fill="none" stroke="#00ff07" stroke-width="1" stroke-linecap="round"/></g></g></svg>