<svg version="1.1" xmlns="http://www.w3.org/2000/svg" xmlns:xlink="http://www.w3.org/1999/xlink" width="61.58151" height="76.38319" viewBox="0,0,61.58151,76.38319"><g transform="translate(-208.21428,-149.02331)"><g data-paper-data="{&quot;isPaintingLayer&quot;:true}" fill-rule="nonzero" stroke-linejoin="miter" stroke-miterlimit="10" stroke-dasharray="" stroke-dashoffset="0" style="mix-blend-mode: normal"><path d="M269.79579,201.16692c0,5.37881 -2.60805,9.74009 -5.82311,9.74009h-49.93596c-3.21574,0 -5.82243,-4.36238 -5.82243,-9.74009v-42.40468c0,-5.37881 2.60669,-9.73893 5.82243,-9.73893h49.93529c3.21709,0 5.82311,4.36012 5.82311,9.73893v42.40468z" fill-opacity="0.21569" fill="#ffcc00" stroke="none" stroke-width="0" stroke-linecap="butt"/><text transform="translate(220.2384,222.31875) scale(0.24702,0.24702)" font-size="40" xml:space="preserve" fill="#000000" fill-rule="nonzero" stroke="none" stroke-width="1" stroke-linecap="butt" stroke-linejoin="miter" stroke-miterlimit="10" stroke-dasharray="" stroke-dashoffset="0" font-family="Sans Serif" font-weight="normal" text-anchor="start" style="mix-blend-mode: normal"><tspan x="0" dy="0">其他函数</tspan></text><path d="M255.05075,156.33598c0,0 -2.08296,23.21615 -20.47536,23.12836c-3.00376,-0.01433 -3.0943,-23.60452 -3.0943,-23.60452" fill="none" stroke="#ef00ff" stroke-width="1.5" stroke-linecap="round"/><path d="M216.30266,190.23922c0,0 18.67362,-0.54463 22.65487,-7.43284c4.20826,-7.28096 22.74989,-7.46401 22.74989,-7.46401" fill="none" stroke="#00d9ff" stroke-width="1.5" stroke-linecap="round"/><path d="M228.67578,179.414c0,0 0.9958,-8.06551 0.96035,-5.5689c-0.04073,2.86881 0.54748,9.18118 0.78345,11.08379c0.13807,1.1132 1.28622,-15.90304 1.55642,-14.3709c0.53659,3.04268 0.08732,10.12054 0.53462,17.18456c0.05972,0.94309 1.21786,-18.85007 1.29328,-17.91871c0.34642,4.27806 0.60702,13.23682 0.69054,21.60577c0.0083,0.83163 1.6765,-22.33245 1.69493,-21.51702c0.08314,3.68046 0.25932,14.91018 -0.05745,23.93004c-0.01894,0.53934 2.00864,-22.87102 1.97365,-22.34573c-0.22744,3.41402 0.70723,16.82143 -0.31072,25.22366c-0.08274,0.68293 2.2334,-23.8011 2.09585,-23.18026c-0.6579,2.96931 1.6597,11.14994 -0.03285,20.5651c-0.29648,1.64925 2.03292,-25.30382 2.62837,-23.2061c0.6381,2.24794 -0.04519,10.50226 -0.58716,20.55211c-0.06625,1.22842 3.97365,-25.64966 3.52567,-21.38751c-0.27011,2.56988 0.28909,9.16371 -1.26554,19.12098c-0.15245,0.97643 3.54232,-19.86423 3.5828,-18.52851c0.0891,2.94043 -0.78761,10.64952 -1.02537,14.54647c-0.13251,2.17179 1.51384,-7.92758 2.74492,-12.08038c0.4166,-1.4053 0.38527,5.94428 0.38527,5.94428" fill="none" stroke="#ff0000" stroke-width="1.5" stroke-linecap="round"/><g fill="none" stroke="#00ff90" stroke-width="1.5" stroke-linecap="round"><path d="M251.5041,187.67528l-0.08209,6.46114l-23.48758,-23.48758"/><path d="M251.29303,194.28887h-5.06571"/></g><path d="M219.33914,203.83242c0,0 2.28026,-17.93347 6.4247,-18.57547c3.3696,-0.52197 1.55089,18.81355 1.55089,18.81355" fill="none" stroke="#ef00ff" stroke-width="1.5" stroke-linecap="round"/></g></g></svg>