<svg version="1.1" xmlns="http://www.w3.org/2000/svg" xmlns:xlink="http://www.w3.org/1999/xlink" width="9.82682" height="14.41267" viewBox="0,0,9.82682,14.41267"><g transform="translate(-235.08659,-170.09369)"><g data-paper-data="{&quot;isPaintingLayer&quot;:true}" fill="#ff0000" fill-rule="nonzero" stroke="none" stroke-width="1" stroke-linecap="butt" stroke-linejoin="miter" stroke-miterlimit="10" stroke-dasharray="" stroke-dashoffset="0" style="mix-blend-mode: normal"><path d="M238.13698,176.89055c0.83937,-1.06457 1.86301,-1.61733 3.02994,-1.61733c1.55591,0 2.27246,0.92126 2.27246,2.14962c0,1.18741 -0.92127,3.60317 -1.28978,4.58585c-0.08189,0.2252 -0.32755,0.88032 -0.32755,1.41261c0,0.65512 0.32756,0.67559 0.53229,0.67559c0.81891,0 1.57639,-0.85985 2.04726,-2.49765c0.10236,-0.34804 0.12284,-0.40945 0.30709,-0.40945c0.12284,0 0.20472,0.08188 0.20472,0.18425c0,0.12284 -0.71654,3.13231 -2.62049,3.13231c-0.98269,0 -1.61733,-0.73701 -1.61733,-1.65828c0,-0.3685 0.10237,-0.63465 0.28662,-1.12599c0.45039,-1.22835 1.24882,-3.45986 1.24882,-4.60632c0,-0.81891 -0.28661,-1.43308 -1.10551,-1.43308c-1.57639,0 -2.49765,1.22835 -2.88663,1.82206c-0.38898,0.5937 -0.38898,0.61418 -0.61418,1.47403c-0.10236,0.45039 -0.2252,0.88032 -0.32756,1.33072l-0.92126,3.70553c-0.10236,0.2252 -0.3685,0.49134 -0.71654,0.49134c-0.20472,0 -0.55276,-0.0819 -0.55276,-0.53229c0,-0.12284 0,-0.16378 0.08189,-0.47087l2.96852,-11.85361c0.02047,-0.06142 0.06142,-0.2252 0.06142,-0.34803c0,-0.20472 -0.02048,-0.38898 -1.02363,-0.38898c-0.28662,0 -0.45039,0 -0.45039,-0.20472c0,-0.3685 0.1433,-0.38898 0.65512,-0.42992c0.3685,-0.02047 0.6756,-0.06142 1.02363,-0.08189c0.10236,-0.02047 1.10552,-0.10236 1.12599,-0.10236c0.04094,0 0.24567,0 0.24567,0.20472c0,0.10236 -0.04095,0.2252 -0.06142,0.30709z"/></g></g></svg>