<svg version="1.1" xmlns="http://www.w3.org/2000/svg" xmlns:xlink="http://www.w3.org/1999/xlink" width="10.13391" height="18.58907" viewBox="0,0,10.13391,18.58907"><g transform="translate(-234.93305,-173.14992)"><g data-paper-data="{&quot;isPaintingLayer&quot;:true}" fill="#ff0000" fill-rule="nonzero" stroke="none" stroke-width="1" stroke-linecap="butt" stroke-linejoin="miter" stroke-miterlimit="10" stroke-dasharray="" stroke-dashoffset="0" style="mix-blend-mode: normal"><path d="M241.27955,179.33261c-0.10236,0.61417 -1.10552,6.05988 -1.47402,7.63627c-0.2252,1.02363 -1.08505,4.77011 -3.17325,4.77011c-0.79843,0 -1.69922,-0.45039 -1.69922,-1.33071c0,-0.77795 0.61418,-1.12599 1.02363,-1.12599c0.38898,0 0.69606,0.24567 0.69606,0.65512c0,0.02047 0,0.92127 -1.0441,1.00316c0.3685,0.38898 0.96221,0.38898 1.02363,0.38898c1.02363,0 1.33071,-1.4945 1.67874,-3.27561c0.47087,-2.19056 1.31025,-6.81736 1.67876,-8.72131h-1.31025c-0.40945,0 -0.53229,0 -0.53229,-0.2252c0,-0.3685 0.20472,-0.3685 0.5937,-0.3685h1.37167c0.47087,-2.68191 0.6756,-3.41892 1.0441,-4.13546c0.40945,-0.79843 1.2693,-1.45355 2.14962,-1.45355c0.90079,0 1.76064,0.47087 1.76064,1.33071c0,0.77795 -0.61418,1.12599 -1.02363,1.12599c-0.38898,0 -0.69607,-0.24567 -0.69607,-0.65512c0,-0.34803 0.24567,-0.94174 1.0441,-1.02363c-0.20472,-0.18425 -0.63465,-0.3685 -1.06457,-0.3685c-0.53229,0 -0.96221,0.47087 -1.08505,0.96221c-0.16378,0.65512 -0.45039,2.10868 -0.83937,4.21735h1.65828c0.3685,0 0.53229,0 0.53229,0.20472c0,0.38898 -0.16378,0.38898 -0.57323,0.38898z"/></g></g></svg>