<svg version="1.1" xmlns="http://www.w3.org/2000/svg" xmlns:xlink="http://www.w3.org/1999/xlink" width="7.73863" height="9.23313" viewBox="0,0,7.73863,9.23313"><g transform="translate(-236.13068,-175.38344)"><g data-paper-data="{&quot;isPaintingLayer&quot;:true}" fill="#ff0000" fill-rule="nonzero" stroke="none" stroke-width="1" stroke-linecap="butt" stroke-linejoin="miter" stroke-miterlimit="10" stroke-dasharray="" stroke-dashoffset="0" style="mix-blend-mode: normal"><path d="M241.51497,175.79289c-1.28977,0 -2.3953,1.10551 -2.92758,2.06772c-0.73701,1.39213 -1.08505,3.37797 -1.08505,4.09452c0,1.02363 0.4504,2.25198 1.86301,2.25198c0.77796,0 2.72285,-0.30709 4.03309,-2.04726c0.18426,-0.18426 0.20473,-0.20472 0.26615,-0.20472c0.08189,0 0.20472,0.10236 0.20472,0.2252c0,0.26614 -1.76064,2.43624 -4.54491,2.43624c-2.0882,0 -3.19372,-1.61733 -3.19372,-3.39845c0,-2.90711 2.68191,-5.83468 5.36381,-5.83468c1.41261,0 2.35434,0.75748 2.35434,1.74016c0,0.81891 -0.55276,1.22835 -1.0441,1.22835c-0.38898,0 -0.69606,-0.24568 -0.69606,-0.65512c0,-0.32756 0.22519,-0.63465 0.34803,-0.73701c0.28662,-0.24567 0.47087,-0.24567 0.85985,-0.24567c-0.40945,-0.88032 -1.53544,-0.92127 -1.80158,-0.92127z"/></g></g></svg>