<svg version="1.1" xmlns="http://www.w3.org/2000/svg" xmlns:xlink="http://www.w3.org/1999/xlink" width="26.02065" height="139.07783" viewBox="0,0,26.02065,139.07783"><g transform="translate(0.47888,-15.48218)"><g data-paper-data="{&quot;isPaintingLayer&quot;:true}" fill-rule="nonzero" stroke-linejoin="miter" stroke-miterlimit="10" stroke-dasharray="" stroke-dashoffset="0" style="mix-blend-mode: normal"><path d="M-0.47888,154.56001v-139.07783h26.02065v139.07783z" fill-opacity="0.01176" fill="#ffffff" stroke="none" stroke-width="0" stroke-linecap="butt"/><g fill="none" stroke="#a08723" stroke-width="1"><path d="M15.23619,41.26142c-0.92534,-0.03835 -1.66931,-1.49104 -1.66931,-3.27748c0,-1.78644 0.74397,-3.23914 1.66931,-3.27748" stroke-linecap="butt"/><path d="M22.09891,34.70647c0.92534,0.03835 1.66931,1.49104 1.66931,3.27748c0,1.78644 -0.74397,3.23914 -1.66931,3.27748" data-paper-data="{&quot;index&quot;:null}" stroke-linecap="butt"/><g stroke-linecap="round"><path d="M10.16643,41.29548c0,0 0,-5.69342 0,-7.73701c0,-0.58058 0.36314,-1.60533 0.91517,-1.8496c0.72297,-0.31991 1.68154,0.23773 1.68154,0.23773"/><path d="M7.94068,34.68678h4.45149"/></g><g stroke-linecap="round"><path d="M16.72001,35.00197l3.99371,5.74903"/><path d="M16.72001,40.96593l4.08054,-5.91022"/></g></g><text transform="translate(7.94056,64.85018) scale(0.29376,0.29376)" font-size="40" xml:space="preserve" fill="#a08723" fill-rule="nonzero" stroke="none" stroke-width="1" stroke-linecap="butt" stroke-linejoin="miter" stroke-miterlimit="10" stroke-dasharray="" stroke-dashoffset="0" font-family="Handwriting" font-weight="normal" text-anchor="start" style="mix-blend-mode: normal"><tspan x="0" dy="0">abc</tspan></text><g fill="none" stroke="#a08723" stroke-width="1"><path d="M18.58146,112.78483l-9.31033,3.26633l4.30602,-10.45224z" stroke-linecap="round"/><path d="M13.75174,113.70534c0,-1.75474 1.3938,-3.17723 3.11313,-3.17723c1.71934,0 3.11314,1.42249 3.11314,3.17723c0,1.75474 -1.3938,3.17724 -3.11314,3.17724c-1.71934,0 -3.11313,-1.42251 -3.11313,-3.17724z" stroke-linecap="butt"/><path d="M23.93489,117.12013l-15.82754,-9.73958" stroke-linecap="round"/></g><g fill="none" stroke="#a08723" stroke-width="1" stroke-linecap="round"><path d="M21.26472,80.10941l-10.82055,10.82055"/><path d="M13.03994,84.60095l-2.34786,-2.34786l2.55201,-2.55201"/><path d="M18.58875,86.23427l2.55201,2.55201l-2.43602,2.43602"/></g><text transform="translate(7.94055,140.64136) scale(0.32675,0.32675)" font-size="40" xml:space="preserve" fill="#a08723" fill-rule="nonzero" stroke="none" stroke-width="1" stroke-linecap="butt" stroke-linejoin="miter" stroke-miterlimit="10" stroke-dasharray="" stroke-dashoffset="0" font-family="Handwriting" font-weight="normal" text-anchor="start" style="mix-blend-mode: normal"><tspan x="0" dy="0">2+i</tspan></text></g></g></svg>