<svg version="1.1" xmlns="http://www.w3.org/2000/svg" xmlns:xlink="http://www.w3.org/1999/xlink" width="32.38359" height="32.7622" viewBox="0,0,32.38359,32.7622"><g transform="translate(-223.80821,-163.6189)"><g data-paper-data="{&quot;isPaintingLayer&quot;:true}" fill-rule="nonzero" stroke-linejoin="miter" stroke-miterlimit="10" stroke-dasharray="" stroke-dashoffset="0" style="mix-blend-mode: normal"><g fill="#ffca00" stroke="#000000" stroke-width="0" stroke-linecap="butt"><path d="M223.87135,186.22216v-13.12651h32.32046l-0.14426,13.27071z" data-paper-data="{&quot;origPos&quot;:null}"/><g><path d="M237.06097,186.90589c0,-5.22808 4.23817,-9.46625 9.46625,-9.46625c5.22808,0 9.4662,4.23823 9.4662,9.46625c0,5.22808 -4.23817,9.4662 -9.4662,9.4662c-5.22808,0 -9.46625,-4.23818 -9.46625,-9.4662z" data-paper-data="{&quot;origPos&quot;:null}"/><path d="M223.80822,173.14827c0,-5.22808 4.23817,-9.46625 9.4662,-9.46625c5.22808,0 9.46626,4.23823 9.46626,9.46625c0,5.22808 -4.23818,9.4662 -9.46626,9.4662c-5.22808,0 -9.4662,-4.23818 -9.4662,-9.4662z" data-paper-data="{&quot;origPos&quot;:null}"/><path d="M223.80822,186.90589c0,-5.22808 4.23817,-9.46625 9.4662,-9.46625c5.22808,0 9.46626,4.23823 9.46626,9.46625c0,5.22808 -4.23818,9.4662 -9.46626,9.4662c-5.22808,0 -9.4662,-4.23818 -9.4662,-9.4662z" data-paper-data="{&quot;origPos&quot;:null}"/><path d="M237.25028,173.08515c0,-5.22808 4.23818,-9.46625 9.46626,-9.46625c5.22808,0 9.46626,4.23817 9.46626,9.46625c0,5.22808 -4.23818,9.4662 -9.46626,9.4662c-5.22808,0 -9.46626,-4.23818 -9.46626,-9.4662z" data-paper-data="{&quot;origPos&quot;:null}"/><path d="M233.584,196.3811l-0.03606,-32.69914l13.63139,-0.03605v32.69908z" data-paper-data="{&quot;origPos&quot;:null}"/></g></g><path d="M227.90001,184.9l2.2,-3.6l3.8,8l4.8,-18.6h13.4" fill="none" stroke="#000000" stroke-width="1" stroke-linecap="round"/><path d="M247.44808,178.39017c-0.87799,0 -1.52694,0.83981 -1.81324,1.98501l-0.66804,2.5958c-0.30539,1.25972 -0.38174,1.56511 -0.38174,1.98501c0,0.78256 0.36265,1.27881 1.03069,1.27881c0.85891,0 1.96593,-0.78256 2.48127,-2.46219c0.05726,-0.15269 0.07635,-0.24812 0.24812,-0.24812c0.11452,0 0.19087,0.07633 0.19087,0.17178c0,0.4199 -1.03069,2.92028 -2.97755,2.92028c-0.70621,0 -1.66054,-0.38174 -1.96593,-1.50785c-0.40082,0.78256 -1.04977,1.50785 -1.96594,1.50785c-0.82073,0 -1.71781,-0.36265 -1.71781,-1.1643c0,-0.61077 0.49626,-1.0116 0.95434,-1.0116c0.36265,0 0.64895,0.22905 0.64895,0.61077c0,0.22904 -0.15269,0.80164 -0.83981,0.93525c0.40082,0.24812 0.87798,0.24812 0.97343,0.24812c1.0116,0 1.56511,-1.04977 1.85142,-2.19497l0.64895,-2.61489c0.22904,-0.91617 0.34355,-1.35516 0.34355,-1.77507c0,-0.45808 -0.17179,-1.25972 -1.03069,-1.25972c-0.55351,0 -1.83232,0.40082 -2.48127,2.51945c-0.03817,0.07635 -0.07635,0.19087 -0.22904,0.19087c-0.13361,0 -0.20995,-0.09544 -0.20995,-0.17179c0,-0.4199 1.03069,-2.92027 2.97753,-2.92027c0.34356,0 1.52694,0.07635 1.96594,1.50785c0.17178,-0.36265 0.82073,-1.50785 1.98501,-1.50785c0.80165,0 1.71781,0.36265 1.71781,1.1643c0,0.51534 -0.40083,1.01159 -0.97343,1.01159c-0.26721,0 -0.62986,-0.15269 -0.62986,-0.61077c0,-0.36265 0.22904,-0.82073 0.83982,-0.93525c-0.40083,-0.24812 -0.93525,-0.24812 -0.97343,-0.24812z" fill="#000000" stroke="none" stroke-width="1" stroke-linecap="butt"/><text transform="translate(227.44212,178.45698) scale(0.32936,0.32936)" font-size="40" xml:space="preserve" fill="#000000" fill-rule="nonzero" stroke="none" stroke-width="1" stroke-linecap="butt" stroke-linejoin="miter" stroke-miterlimit="10" stroke-dasharray="" stroke-dashoffset="0" font-family="&quot;Microsoft YaHei&quot;, &quot;微软雅黑&quot;, STXihei, &quot;华文细黑&quot;" font-weight="normal" text-anchor="start" style="mix-blend-mode: normal"><tspan x="0" dy="0">3</tspan></text></g></g></svg>