<svg version="1.1" xmlns="http://www.w3.org/2000/svg" xmlns:xlink="http://www.w3.org/1999/xlink" width="39.8" height="39.8" viewBox="0,0,39.8,39.8"><g transform="translate(-220.1,-160.1)"><g data-paper-data="{&quot;isPaintingLayer&quot;:true}" fill-rule="nonzero" stroke-linecap="butt" stroke-linejoin="miter" stroke-miterlimit="10" stroke-dasharray="" stroke-dashoffset="0" style="mix-blend-mode: normal"><path d="M220.1,199.9v-39.8h39.8v39.8z" fill-opacity="0.12941" fill="#ffcc00" stroke="none" stroke-width="0"/><text transform="translate(235.72591,190.11378) scale(0.23014,0.23014)" font-size="40" xml:space="preserve" fill="#000000" fill-rule="nonzero" stroke="none" stroke-width="1" stroke-linecap="butt" stroke-linejoin="miter" stroke-miterlimit="10" stroke-dasharray="" stroke-dashoffset="0" font-family="Sans Serif" font-weight="normal" text-anchor="start" style="mix-blend-mode: normal"><tspan x="0" dy="0">圆</tspan></text><text transform="translate(221.03603,197.60985) scale(0.13718,0.13718)" font-size="40" xml:space="preserve" fill="#000000" fill-rule="nonzero" stroke="none" stroke-width="1" stroke-linecap="butt" stroke-linejoin="miter" stroke-miterlimit="10" stroke-dasharray="" stroke-dashoffset="0" font-family="Sans Serif" font-weight="normal" text-anchor="start" style="mix-blend-mode: normal"><tspan x="0" dy="0">（圆心与一点）</tspan></text><g><g><path d="M231.3,171.65c0,-4.88772 3.96228,-8.85 8.85,-8.85c4.88772,0 8.85,3.96228 8.85,8.85c0,4.88772 -3.96228,8.85 -8.85,8.85c-4.88772,0 -8.85,-3.96228 -8.85,-8.85z" fill="none" stroke="#000000" stroke-width="1"/><path d="M238.9,171.65c0,-0.69036 0.55964,-1.25 1.25,-1.25c0.69036,0 1.25,0.55964 1.25,1.25c0,0.69036 -0.55964,1.25 -1.25,1.25c-0.69036,0 -1.25,-0.55964 -1.25,-1.25z" fill="#000000" stroke="none" stroke-width="0.5"/></g><path d="M245.25369,165.29546c0,-0.69036 0.55964,-1.25 1.25,-1.25c0.69036,0 1.25,0.55964 1.25,1.25c0,0.69036 -0.55964,1.25 -1.25,1.25c-0.69036,0 -1.25,-0.55964 -1.25,-1.25z" fill="#000000" stroke="none" stroke-width="0.5"/></g></g></g></svg>