<svg version="1.1" xmlns="http://www.w3.org/2000/svg" xmlns:xlink="http://www.w3.org/1999/xlink" width="15.71429" height="18.42857" viewBox="0,0,15.71429,18.42857"><g transform="translate(-233.75,-173.85714)"><g data-paper-data="{&quot;isPaintingLayer&quot;:true}" fill-rule="nonzero" stroke="none" stroke-linecap="butt" stroke-linejoin="miter" stroke-miterlimit="10" stroke-dasharray="" stroke-dashoffset="0" style="mix-blend-mode: normal"><path d="M237.93227,180.9426c0,-0.83937 0.71654,-2.94805 3.39845,-2.94805c1.59686,0 2.37482,0.88031 2.37482,1.74016c0,0.85985 -0.57323,1.08505 -0.85985,1.08505c-0.18425,0 -0.57323,-0.12283 -0.57323,-0.55275c0,-0.02048 0.04095,-0.79844 0.94174,-0.79844c-0.20472,-0.73701 -1.0441,-1.06457 -1.90395,-1.06457c-1.9449,0 -2.3134,1.47403 -2.3134,1.88348c0,0.92127 0.88032,1.10552 1.43308,1.22835c1.10552,0.2252 1.59686,0.32756 2.10868,0.8189c0.65512,0.65512 0.65512,1.22835 0.65512,1.53544c0,1.06457 -0.92127,3.3575 -4.0331,3.3575c-1.6378,0 -2.86616,-0.75749 -2.86616,-1.96536c0,-0.92127 0.5937,-1.2693 1.0441,-1.2693c0.40945,0 0.69607,0.2252 0.69607,0.65512c0,0.45039 -0.40945,1.08505 -1.22835,0.98269c0.40945,1.12599 1.94489,1.1874 2.37482,1.1874c2.37482,0 2.94805,-1.65828 2.94805,-2.29292c0,-0.98269 -0.92126,-1.31025 -1.18741,-1.39213c-0.12284,-0.02047 -0.67559,-0.1433 -1.02363,-0.20472c-0.47087,-0.10236 -1.98584,-0.42992 -1.98584,-1.98584z" fill="#ff0000" stroke-width="1"/><path d="M233.75,192.28571v-18.42857h15.71429v18.42857z" fill="none" stroke-width="0"/></g></g></svg>