<svg version="1.1" xmlns="http://www.w3.org/2000/svg" xmlns:xlink="http://www.w3.org/1999/xlink" width="19.375" height="31.5" viewBox="0,0,19.375,31.5"><g transform="translate(-229.5625,-163.95001)"><g data-paper-data="{&quot;isPaintingLayer&quot;:true}" fill-rule="nonzero" stroke="none" stroke-linecap="butt" stroke-linejoin="miter" stroke-miterlimit="10" stroke-dasharray="" stroke-dashoffset="0" style="mix-blend-mode: normal"><path d="M240.76772,185.23074c0,0.73701 0.06142,0.98269 1.86301,0.98269h0.63464v0.5937c-0.55276,-0.04094 -2.51812,-0.04095 -3.19371,-0.04095c-0.67559,0 -2.66143,0 -3.21419,0.04095v-0.5937h0.63465c1.80158,0 1.86301,-0.24568 1.86301,-0.98269v-10.66621c-1.12599,0.53229 -2.14962,0.53229 -2.62049,0.53229v-0.5937c2.10868,0 3.13231,-0.75748 3.62365,-1.31024c0.40945,0 0.40945,0.02047 0.40945,0.49134z" fill="#ff0000" stroke-width="1"/><path d="M229.5625,194.20833v-27.75h19.375v27.75z" fill="none" stroke-width="0"/><path d="M231.25001,195.45001v-31.5h14.125v31.5z" fill="none" stroke-width="0"/></g></g></svg>