<svg version="1.1" xmlns="http://www.w3.org/2000/svg" xmlns:xlink="http://www.w3.org/1999/xlink" width="13.26623" height="9.23315" viewBox="0,0,13.26623,9.23315"><g transform="translate(-233.36688,-177.82787)"><g data-paper-data="{&quot;isPaintingLayer&quot;:true}" fill="#ff0000" fill-rule="nonzero" stroke="none" stroke-width="1" stroke-linecap="butt" stroke-linejoin="miter" stroke-miterlimit="10" stroke-dasharray="" stroke-dashoffset="0" style="mix-blend-mode: normal"><path d="M237.7685,187.061c-1.0441,0 -2.80474,-0.38898 -2.80474,-2.5386c0,-0.77796 0.20472,-1.61733 1.16693,-4.1764c0.34804,-0.90079 0.34803,-1.33071 0.34803,-1.43308c0,-0.65512 -0.32756,-0.6756 -0.53229,-0.6756c-0.75749,0 -1.55591,0.73701 -2.06773,2.5386c-0.08189,0.28662 -0.10236,0.36851 -0.28662,0.36851c-0.14331,0 -0.22519,-0.10237 -0.22519,-0.18426c0,-0.16378 0.75748,-3.1323 2.64096,-3.1323c1.00315,0 1.61733,0.77795 1.61733,1.6378c0,0.40945 -0.10236,0.6756 -0.34803,1.31025c-0.92127,2.43624 -1.06458,3.33702 -1.06458,3.99215c0,0.34804 0,1.88348 1.61733,1.88348c0.63465,0 0.96221,-0.34803 1.18741,-0.57323c0.02047,-0.04094 0.6756,-0.81891 0.6756,-1.31025c0,-0.45039 0,-0.67559 0.08189,-1.02362c0.08189,-0.45039 0.94174,-3.91026 1.14647,-4.70869c0.12284,-0.49134 0.26614,-1.00315 0.85985,-1.00315c0.30709,0 0.55276,0.20472 0.55276,0.51181c0,0.08189 -0.18425,0.79844 -0.28661,1.20789l-0.85985,3.43939c-0.08189,0.34804 -0.26614,1.06457 -0.26614,1.65828c0,0.94173 0.3685,1.80158 1.51497,1.80158c1.06457,0 1.82206,-0.81889 2.39529,-2.06772c0.42993,-0.96221 1.00315,-2.88663 1.00315,-3.5827c0,-1.06457 -0.53229,-1.61733 -0.71654,-1.80159c-0.10237,-0.08189 -0.24567,-0.2252 -0.24567,-0.47087c0,-0.40945 0.4504,-0.90079 0.94173,-0.90079c0.18425,0 0.81891,0.12283 0.81891,1.37166c0,1.20788 -0.75749,3.91026 -1.22835,5.09767c-0.57323,1.41261 -1.4945,2.7638 -3.05041,2.7638c-0.77795,0 -2.04726,-0.2252 -2.49765,-1.45355c-0.81891,1.45355 -1.74016,1.45355 -2.0882,1.45355z"/></g></g></svg>