<svg version="1.1" xmlns="http://www.w3.org/2000/svg" xmlns:xlink="http://www.w3.org/1999/xlink" width="487.25" height="25.69414" viewBox="0,0,487.25,25.69414"><defs><linearGradient x1="9.16739" y1="11.30274" x2="16.19983" y2="11.30274" gradientUnits="userSpaceOnUse" id="color-1"><stop offset="0" stop-color="#0038ff"/><stop offset="1" stop-color="#00ff5b"/></linearGradient></defs><g transform="translate(3.75,4.60917)"><g data-paper-data="{&quot;isPaintingLayer&quot;:true}" fill-rule="nonzero" stroke-linejoin="miter" stroke-miterlimit="10" stroke-dasharray="" stroke-dashoffset="0" style="mix-blend-mode: normal"><path d="M-3.75,21.08497v-25.69414h487.25v25.69414z" fill-opacity="0.78039" fill="#ffcc00" stroke="none" stroke-width="0" stroke-linecap="butt"/><g><text transform="translate(23.20366,14.34206) scale(0.24833,0.24833)" font-size="40" xml:space="preserve" fill="#000000" fill-rule="nonzero" stroke="none" stroke-width="1" stroke-linecap="butt" stroke-linejoin="miter" stroke-miterlimit="10" stroke-dasharray="" stroke-dashoffset="0" font-family="&quot;Microsoft YaHei&quot;, &quot;微软雅黑&quot;, STXihei, &quot;华文细黑&quot;" font-weight="normal" text-anchor="start" style="mix-blend-mode: normal"><tspan x="0" dy="0">稽何计算器</tspan></text><g><g fill="#ffca00" stroke="none" stroke-width="0" stroke-linecap="butt"><path d="M5.05054,15.70417v-8.4256h15.35075v8.4256z"/><path d="M8.52926,19.39758v-16.15035h8.07182v16.15035z"/><g><path d="M5.05054,6.8746c0,-2.00795 1.62776,-3.63571 3.63571,-3.63571c2.00795,0 3.63571,1.62776 3.63571,3.63571c0,2.00795 -1.62776,3.63571 -3.63571,3.63571c-2.00795,0 -3.6357,-1.62776 -3.6357,-3.6357z"/><path d="M13.05833,6.91846c0,-2.00795 1.62776,-3.63571 3.63571,-3.63571c2.00795,0 3.63571,1.62776 3.63571,3.63571c0,2.00795 -1.62776,3.63571 -3.63571,3.63571c-2.00795,0 -3.6357,-1.62776 -3.6357,-3.6357z"/></g><g><path d="M4.94818,15.68253c0,-2.00795 1.62776,-3.63571 3.63571,-3.63571c2.00795,0 3.63571,1.62776 3.63571,3.63571c0,2.00795 -1.62776,3.63571 -3.63571,3.63571c-2.00795,0 -3.6357,-1.62776 -3.6357,-3.6357z"/><path d="M12.98677,15.84959c0,-2.00795 1.62776,-3.63571 3.63571,-3.63571c2.00795,0 3.63571,1.62776 3.63571,3.63571c0,2.00795 -1.62776,3.63571 -3.63571,3.63571c-2.00795,0 -3.6357,-1.62776 -3.6357,-3.6357z"/></g></g><g fill="none" stroke="#000000" stroke-width="0.5" stroke-linecap="round"><path d="M17.7959,10.13547l1.24598,1.24598h-12.12753"/><path d="M12.56278,17.52828v-12.62592l1.41211,1.41211"/></g><path d="M9.42681,17.75583c-0.37811,0 -0.2565,-0.75581 -0.2565,-0.75581c0.25974,-2.04719 1.1402,-6.15676 3.47818,-6.01337c1.57179,-0.0345 2.28332,-2.67321 2.49598,-5.03461c0,0 0.01131,-1.10115 0.43648,-1.05888c0.37626,0.03741 0.22856,1.07908 0.22856,1.07908c-0.30366,2.60285 -0.68378,5.57167 -3.16009,5.74449c-1.86716,-0.02502 -2.49526,3.46257 -2.83517,5.33451c0,0 -0.00418,0.70459 -0.38229,0.70459z" fill="url(#color-1)" stroke="none" stroke-width="0.5" stroke-linecap="butt"/></g><g fill="none" stroke="#000000" stroke-width="0.5" stroke-linecap="round"><g><path d="M74.21579,19.89037c0,0 0.60442,-4.35723 1.17453,-8.51535c0.14964,-1.90758 1.51615,-3.47705 3.45261,-3.07982c1.1309,-0.07165 2.37256,1.15958 2.48407,2.39924c0.13291,1.47779 -0.23702,3.48052 -2.50751,3.79274c-1.84441,0.25363 -2.63334,-1.23564 -2.63334,-1.23564"/><path d="M83.70399,14.41354c0,0 -0.97898,0.00783 -0.80156,-1.37811c0.25897,-2.02306 2.0805,-9.58921 2.0805,-9.58921"/><path d="M90.67086,8.66597c-0.53255,4.65991 -1.45796,6.13453 -3.30275,6.07003c-1.68726,-0.059 -1.77361,-1.9593 -0.94753,-6.22958"/><path d="M92.17899,14.19392c0,0 0.9633,0.8636 2.12987,0.67321c0.55332,-0.09031 1.60212,-0.4627 1.7808,-1.19339c0.33354,-1.41553 -0.45853,-1.80184 -1.53479,-1.98701c-1.02276,-0.17597 -2.33591,-0.1478 -1.92345,-1.48871c0.23988,-0.77989 1.06289,-1.53771 2.14344,-1.54488c1.39216,-0.00924 2.01773,0.78212 2.01773,0.78212"/></g><g><path d="M98.08659,4.70546h6"/><path d="M101.08659,7.7888v-6.16667"/></g></g></g></g></g></svg>