<svg version="1.1" xmlns="http://www.w3.org/2000/svg" xmlns:xlink="http://www.w3.org/1999/xlink" width="327.85765" height="303.63423" viewBox="0,0,327.85765,303.63423"><g transform="translate(-138.34642,-10.95456)"><g data-paper-data="{&quot;isPaintingLayer&quot;:true}" fill-rule="nonzero" stroke-linejoin="miter" stroke-miterlimit="10" stroke-dasharray="" stroke-dashoffset="0" style="mix-blend-mode: normal"><text transform="translate(139.2915,138.23312) scale(0.37813,0.37813)" font-size="40" xml:space="preserve" fill="#000000" fill-rule="nonzero" stroke="none" stroke-width="1" stroke-linecap="butt" stroke-linejoin="miter" stroke-miterlimit="10" stroke-dasharray="" stroke-dashoffset="0" font-family="&quot;Microsoft YaHei&quot;, &quot;微软雅黑&quot;, STXihei, &quot;华文细黑&quot;" font-weight="normal" text-anchor="start" style="mix-blend-mode: normal"><tspan x="0" dy="0">绘图精度与区间</tspan></text><text transform="translate(310.03699,32.20456) scale(0.5,0.5)" font-size="40" xml:space="preserve" fill="#000000" fill-rule="nonzero" stroke="none" stroke-width="1" stroke-linecap="butt" stroke-linejoin="miter" stroke-miterlimit="10" stroke-dasharray="" stroke-dashoffset="0" font-family="&quot;Microsoft YaHei&quot;, &quot;微软雅黑&quot;, STXihei, &quot;华文细黑&quot;" font-weight="normal" text-anchor="start" style="mix-blend-mode: normal"><tspan x="0" dy="0"> </tspan></text><text transform="translate(138.53549,82.41556) scale(0.37813,0.37813)" font-size="40" xml:space="preserve" fill="#000000" fill-rule="nonzero" stroke="none" stroke-width="1" stroke-linecap="butt" stroke-linejoin="miter" stroke-miterlimit="10" stroke-dasharray="" stroke-dashoffset="0" font-family="&quot;Microsoft YaHei&quot;, &quot;微软雅黑&quot;, STXihei, &quot;华文细黑&quot;" font-weight="normal" text-anchor="start" style="mix-blend-mode: normal"><tspan x="0" dy="0">断点</tspan></text><text transform="translate(145.47905,232.0914) scale(0.30126,0.30126)" font-size="40" xml:space="preserve" fill="#000000" fill-rule="nonzero" stroke="none" stroke-width="1" stroke-linecap="butt" stroke-linejoin="miter" stroke-miterlimit="10" stroke-dasharray="" stroke-dashoffset="0" font-family="&quot;Microsoft YaHei&quot;, &quot;微软雅黑&quot;, STXihei, &quot;华文细黑&quot;" font-weight="normal" text-anchor="start" style="mix-blend-mode: normal"><tspan x="0" dy="0">极坐标/参数方程</tspan></text><path d="M178.25,287.5v-47h263.5v47z" fill="none" stroke="none" stroke-width="NaN" stroke-linecap="butt"/><text transform="translate(145.98101,159.61099) scale(0.30126,0.30126)" font-size="40" xml:space="preserve" fill="#000000" fill-rule="nonzero" stroke="none" stroke-width="1" stroke-linecap="butt" stroke-linejoin="miter" stroke-miterlimit="10" stroke-dasharray="" stroke-dashoffset="0" font-family="Sans Serif" font-weight="normal" text-anchor="start" style="mix-blend-mode: normal"><tspan x="0" dy="0">平面直角</tspan></text><g fill="none" stroke-width="2.5" stroke-linecap="round"><g><path d="M266.85834,156.01302c0,0 79.53448,0 114.69918,0c29.9398,0 83.14655,0 83.14655,0" stroke="#ffca00"/><path d="M293.0357,156.01302h-26.82819" stroke="#1dff00"/></g><path d="M330.98313,156.01302h133.53166" stroke="#ff0000"/></g><g fill="none" stroke-width="2.5" stroke-linecap="round"><g><path d="M464.70407,180.26302c0,0 -53.20675,0 -83.14655,0c-35.1647,0 -114.69918,0 -114.69918,0" stroke="#ffca00"/><path d="M265.70752,180.26302h49.57819" stroke="#1dff00"/></g><path d="M368.73313,180.26302h95.78166" stroke="#ff0000"/></g><text transform="translate(145.81032,183.87814) scale(0.30126,0.30126)" font-size="40" xml:space="preserve" fill="#000000" fill-rule="nonzero" stroke="none" stroke-width="1" stroke-linecap="butt" stroke-linejoin="miter" stroke-miterlimit="10" stroke-dasharray="" stroke-dashoffset="0" font-family="Sans Serif" font-weight="normal" text-anchor="start" style="mix-blend-mode: normal"><tspan x="0" dy="0">定积分</tspan></text><text transform="translate(145.66733,208.12814) scale(0.30126,0.30126)" font-size="40" xml:space="preserve" fill="#000000" fill-rule="nonzero" stroke="none" stroke-width="1" stroke-linecap="butt" stroke-linejoin="miter" stroke-miterlimit="10" stroke-dasharray="" stroke-dashoffset="0" font-family="Sans Serif" font-weight="normal" text-anchor="start" style="mix-blend-mode: normal"><tspan x="0" dy="0">不等/隐式</tspan></text><g fill="none" stroke-width="2.5" stroke-linecap="round"><g><path d="M464.70407,205.01302c0,0 -53.20675,0 -83.14655,0c-35.1647,0 -114.69918,0 -114.69918,0" stroke="#ffca00"/><path d="M265.70752,205.01302h19.82819" stroke="#1dff00"/></g><path d="M368.73313,205.01302h95.78166" stroke="#ff0000"/></g><g fill="none" stroke-width="2.5" stroke-linecap="round"><g><path d="M267.10834,255.01302c0,0 79.53448,0 114.69918,0c29.9398,0 83.14655,0 83.14655,0" stroke="#ffca00"/><path d="M265.95752,255.01302h21.95319" stroke="#1dff00"/></g><path d="M464.76479,255.01302h-95.78166" stroke="#ff0000"/></g><text transform="translate(154.83552,284.3414) scale(0.30126,0.30126)" font-size="40" xml:space="preserve" fill="#000000" fill-rule="nonzero" stroke="none" stroke-width="1" stroke-linecap="butt" stroke-linejoin="miter" stroke-miterlimit="10" stroke-dasharray="" stroke-dashoffset="0" font-family="&quot;Microsoft YaHei&quot;, &quot;微软雅黑&quot;, STXihei, &quot;华文细黑&quot;" font-weight="normal" text-anchor="start" style="mix-blend-mode: normal"><tspan x="0" dy="0">精度</tspan></text><g fill="none" stroke-width="2.5" stroke-linecap="round"><g><path d="M464.45408,280.76302c0,0 -53.20675,0 -83.14655,0c-35.1647,0 -114.69918,0 -114.69918,0" stroke="#ffca00"/><path d="M292.78571,280.76302h-26.82819" stroke="#1dff00"/></g><path d="M330.73314,280.76302h133.53166" stroke="#ff0000"/></g><text transform="translate(154.83552,258.62814) scale(0.30126,0.30126)" font-size="40" xml:space="preserve" fill="#000000" fill-rule="nonzero" stroke="none" stroke-width="1" stroke-linecap="butt" stroke-linejoin="miter" stroke-miterlimit="10" stroke-dasharray="" stroke-dashoffset="0" font-family="Sans Serif" font-weight="normal" text-anchor="start" style="mix-blend-mode: normal"><tspan x="0" dy="0">区间</tspan></text><text transform="translate(145.79781,310.25734) scale(0.34652,0.34652)" font-size="40" xml:space="preserve" fill="#000000" fill-rule="nonzero" stroke="none" stroke-width="1" stroke-linecap="butt" stroke-linejoin="miter" stroke-miterlimit="10" stroke-dasharray="" stroke-dashoffset="0" font-family="Sans Serif" font-weight="normal" text-anchor="start" style="mix-blend-mode: normal"><tspan x="0" dy="0">3D</tspan></text><g fill="none" stroke-width="2.5" stroke-linecap="round"><path d="M266.31496,305.26302h197.78166" stroke="#ff0000"/><g><path d="M352.79472,305.26302c-35.1647,0 -68.69918,0 -68.69918,0" stroke="#ffca00"/><path d="M344.5229,305.26302h-52.57819" stroke="#1dff00"/></g></g></g></g></svg>