<svg version="1.1" xmlns="http://www.w3.org/2000/svg" xmlns:xlink="http://www.w3.org/1999/xlink" width="8.27091" height="17.62687" viewBox="0,0,8.27091,17.62687"><g transform="translate(-234.53121,-174.18657)"><g data-paper-data="{&quot;isPaintingLayer&quot;:true}" fill="#ff0000" fill-rule="nonzero" stroke="none" stroke-width="1" stroke-linecap="butt" stroke-linejoin="miter" stroke-miterlimit="10" stroke-dasharray="" stroke-dashoffset="0" style="mix-blend-mode: normal"><path d="M240.0588,188.72208c-0.51182,2.04726 -2.37481,3.09136 -3.78742,3.09136c-0.83937,0 -1.74017,-0.34803 -1.74017,-1.18741c0,-0.61417 0.49134,-1.06457 1.02363,-1.06457c0.45039,0 0.69607,0.32756 0.69607,0.65512c0,0.49134 -0.38898,0.88032 -0.88032,0.98269c0.38898,0.20472 0.8189,0.20472 0.90079,0.20472c1.12599,0 2.0882,-1.14646 2.47718,-2.66143l1.9449,-7.71815c0.08189,-0.3685 0.14331,-0.57324 0.14331,-1.06458c0,-0.71654 -0.2252,-0.94173 -0.65512,-0.94173c-0.77795,0 -1.80158,0.63465 -2.62049,2.62049c-0.10236,0.20472 -0.12284,0.28662 -0.28662,0.28662c-0.12284,0 -0.20472,-0.0819 -0.20472,-0.18426c0,-0.14331 1.10552,-3.1323 3.17325,-3.1323c0.92127,0 1.80159,0.65512 1.80159,1.84253c0,0.08189 0,0.3685 -0.08189,0.69606zM241.79897,175.84484c-0.45039,0 -0.69607,-0.3685 -0.69607,-0.67559c0,-0.45039 0.47087,-0.98268 1.02363,-0.98268c0.24567,0 0.67559,0.16378 0.67559,0.6756c0,0.53229 -0.53229,0.98268 -1.00315,0.98268z"/></g></g></svg>