<svg version="1.1" xmlns="http://www.w3.org/2000/svg" xmlns:xlink="http://www.w3.org/1999/xlink" width="8.22997" height="13.00008" viewBox="0,0,8.22997,13.00008"><g transform="translate(-235.88501,-175.59996)"><g data-paper-data="{&quot;isPaintingLayer&quot;:true}" fill="#ff0000" fill-rule="nonzero" stroke="none" stroke-width="1" stroke-linecap="butt" stroke-linejoin="miter" stroke-miterlimit="10" stroke-dasharray="" stroke-dashoffset="0" style="mix-blend-mode: normal"><path d="M241.2693,187.31028c-0.06142,0.26614 -0.08189,0.28661 -0.08189,0.38897c0,0.16378 0.06142,0.30709 1.02363,0.30709c0.30709,0 0.47087,0 0.47087,0.20472c0,0.38898 -0.24567,0.38898 -0.36851,0.38898c-0.30709,0 -0.65512,-0.04095 -0.96221,-0.04095h-2.08821c-0.28662,0 -0.65512,0.04095 -0.94173,0.04095c-0.14331,0 -0.26614,-0.06142 -0.26614,-0.20473c0,-0.38898 0.20472,-0.38898 0.42992,-0.38898c0.96221,-0.02047 1.2693,-0.02048 1.45355,-0.63465l0.18425,-0.73701l0.77796,-3.07089l-0.02047,-0.02047c-0.42992,0.47087 -1.33071,1.28977 -2.41576,1.28977c-1.39213,0 -2.57954,-1.18741 -2.57954,-3.21419c0,-3.02994 2.49765,-6.01893 4.81105,-6.01893c0.88032,0 1.51497,0.55275 1.88348,1.47402c0.38898,-0.71654 1.18741,-1.45355 1.35119,-1.45355c0.10236,0 0.18425,0.08189 0.18425,0.18426zM242.23151,178.17952c0.02047,-0.04094 0.08189,-0.30709 0.08189,-0.32756c0,-0.16378 -0.26614,-1.84253 -1.61733,-1.84253c-0.79843,0 -1.76064,0.73701 -2.4567,2.17009c-0.38898,0.85985 -1.02363,3.15277 -1.02363,4.27876c0,1.20788 0.47087,1.96536 1.31024,1.96536c0.96221,0 1.86301,-0.88032 2.3134,-1.45355c0.28662,-0.38898 0.28662,-0.42992 0.38898,-0.77795z"/></g></g></svg>