<svg version="1.1" xmlns="http://www.w3.org/2000/svg" xmlns:xlink="http://www.w3.org/1999/xlink" width="10.52335" height="8.91199" viewBox="0,0,10.52335,8.91199"><g transform="translate(-234.38966,-178.23221)"><g data-paper-data="{&quot;isPaintingLayer&quot;:true}" fill="#ff0000" fill-rule="nonzero" stroke="none" stroke-width="1" stroke-linecap="butt" stroke-linejoin="miter" stroke-miterlimit="10" stroke-dasharray="" stroke-dashoffset="0" style="mix-blend-mode: normal"><path d="M236.31015,183.76514l-0.28939,1.77844c-0.06577,0.39522 -0.18415,1.08682 -0.21045,1.18563c-0.10523,0.29641 -0.28939,0.41497 -0.44723,0.41497c-0.19732,0 -0.34202,-0.21738 -0.34202,-0.49403c0,-0.09881 0.1447,-1.02755 0.23678,-1.54131c0.06577,-0.35568 0.21045,-1.2449 0.26308,-1.62036l0.36831,-2.13412c0.09207,-0.61257 0.22362,-1.38323 0.22362,-1.81796c0,-0.59281 -0.10523,-0.90898 -0.40777,-0.90898c-0.52616,0 -0.77609,1.16587 -0.97341,2.33174c-0.07893,0.45449 -0.09207,0.47425 -0.19732,0.47425c-0.09207,0 -0.1447,-0.09881 -0.1447,-0.17786c0,-0.07905 0.18418,-1.28444 0.42094,-1.9958c0.24991,-0.7509 0.55246,-1.02755 0.93395,-1.02755c0.57878,0 1.11811,0.61257 1.15757,1.73891c0.23676,-0.49403 0.85503,-1.73891 2.02572,-1.73891c0.98655,0 1.42064,0.84969 1.46011,1.91677c0.52616,-1.16587 1.23649,-1.91677 2.11782,-1.91677c0.99971,0 1.46011,0.88922 1.46011,2.07485c0,1.14611 -0.59193,3.47783 -0.82871,4.42635c-0.05261,0.21738 -0.21045,0.84971 -0.21045,1.36347c0,0.63233 0.21045,0.65209 0.34202,0.65209c0.52616,0 1.01287,-0.82995 1.31541,-2.41077c0.06577,-0.33594 0.07893,-0.39522 0.19732,-0.39522c0.07893,0 0.13155,0.07903 0.13155,0.17784c0,0.11857 -0.4604,3.02337 -1.68373,3.02337c-0.63141,0 -1.03917,-0.71138 -1.03917,-1.6006c0,-0.35568 0.06577,-0.61257 0.18418,-1.08682c0.28939,-1.18563 0.8024,-3.33951 0.8024,-4.44611c0,-0.79043 -0.18418,-1.38323 -0.71033,-1.38323c-1.44694,0 -2.13096,2.47007 -2.15728,2.62815l-0.78925,4.72276c-0.11839,0.71138 -0.18418,1.16587 -0.57878,1.16587c-0.19732,0 -0.34202,-0.21738 -0.34202,-0.49403c0,-0.07905 0.07893,-0.59281 0.13155,-0.88922c0.02629,-0.21738 0.27624,-1.67963 0.38148,-2.27247l0.32885,-2.03531c0.15785,-0.92874 0.15785,-1.32395 0.15785,-1.44252c0,-0.79043 -0.18418,-1.38323 -0.71033,-1.38323c-0.51301,0 -0.96025,0.31616 -1.30226,0.79041c-0.4867,0.63233 -0.81554,1.62036 -0.84186,1.73891z"/></g></g></svg>