<svg version="1.1" xmlns="http://www.w3.org/2000/svg" xmlns:xlink="http://www.w3.org/1999/xlink" width="19.25" height="50.125" viewBox="0,0,19.25,50.125"><g transform="translate(-231.25001,-157.95001)"><g data-paper-data="{&quot;isPaintingLayer&quot;:true}" fill-rule="nonzero" stroke="none" stroke-linecap="butt" stroke-linejoin="miter" stroke-miterlimit="10" stroke-dasharray="" stroke-dashoffset="0" style="mix-blend-mode: normal"><path d="M237.84015,179.6622c-0.30709,1.31025 -0.30709,1.82206 -0.30709,2.10867c0,1.51497 0.61417,2.43623 1.78111,2.43623c0.77796,0 2.72285,-0.30709 4.0331,-2.04726c0.18426,-0.18426 0.20472,-0.20472 0.26614,-0.20472c0.08189,0 0.20472,0.10236 0.20472,0.2252c0,0.26614 -1.76064,2.43624 -4.54491,2.43624c-1.863,0 -3.09135,-1.4945 -3.09135,-3.64411c0,-3.64411 3.09135,-5.58901 5.24097,-5.58901c1.35119,0 2.12914,0.81891 2.12914,1.7197c0,0.3685 -0.1433,1.55591 -1.69922,2.14962c-0.98269,0.3685 -2.37482,0.40945 -2.92758,0.40945zM238.80236,179.25275c0.85985,0 4.13546,0 4.13546,-2.14962c0,-0.77795 -0.61418,-1.31025 -1.51497,-1.31025c-0.65512,0 -2.60001,0.30709 -3.48033,3.45987z" fill="#ff0000" stroke-width="1"/><path d="M231.25001,208.07501v-50.125h19.25v50.125z" fill="none" stroke-width="0"/></g></g></svg>