<svg version="1.1" xmlns="http://www.w3.org/2000/svg" xmlns:xlink="http://www.w3.org/1999/xlink" width="12.6" height="15.9" viewBox="0,0,12.6,15.9"><g transform="translate(-233.5,-172.05)"><g data-paper-data="{&quot;isPaintingLayer&quot;:true}" fill-rule="nonzero" stroke="none" stroke-linecap="butt" stroke-linejoin="miter" stroke-miterlimit="10" stroke-dasharray="" stroke-dashoffset="0" style="mix-blend-mode: normal"><path d="M238.51339,186.13547c-1.80455,0 -1.97641,-2.66386 -1.97641,-3.45442c0,-3.78096 2.56074,-8.81652 4.96681,-8.81652c1.40927,0 1.95922,1.70143 1.95922,3.45442c0,3.90126 -2.6123,8.81652 -4.94962,8.81652zM241.88189,179.74221c0.4984,-1.92485 0.54996,-2.78416 0.54996,-3.40286c0,-1.64987 -0.3781,-2.13109 -0.94524,-2.13109c-0.75619,0 -1.35771,0.82493 -1.92485,1.85611c-0.68744,1.22022 -1.04836,2.66386 -1.30615,3.67784zM238.11811,180.25779c-0.27498,1.13429 -0.54996,2.30295 -0.54996,3.42005c0,1.70144 0.42965,2.1139 0.96242,2.1139c0.72182,0 1.32333,-0.80775 1.82174,-1.68424c0.6187,-1.08273 0.97961,-2.16546 1.40927,-3.84971z" fill="#000000" stroke-width="1"/><path d="M233.5,187.95v-15.9h12.6v15.9z" fill="none" stroke-width="0"/></g></g></svg>