<svg version="1.1" xmlns="http://www.w3.org/2000/svg" xmlns:xlink="http://www.w3.org/1999/xlink" width="26.02065" height="60.39189" viewBox="0,0,26.02065,60.39189"><g transform="translate(0.47888,-15.48218)"><g data-paper-data="{&quot;isPaintingLayer&quot;:true}" fill-rule="nonzero" stroke-linejoin="miter" stroke-miterlimit="10" stroke-dasharray="" stroke-dashoffset="0" style="mix-blend-mode: normal"><path d="M-0.47888,75.87407v-60.39189h26.02065v60.39189z" fill-opacity="0.01176" fill="#ffffff" stroke="none" stroke-width="0" stroke-linecap="butt"/><g fill="none" stroke="#a08723" stroke-width="1"><path d="M15.23619,41.26142c-0.92534,-0.03835 -1.66931,-1.49104 -1.66931,-3.27748c0,-1.78644 0.74397,-3.23914 1.66931,-3.27748" stroke-linecap="butt"/><path d="M22.09891,34.70647c0.92534,0.03835 1.66931,1.49104 1.66931,3.27748c0,1.78644 -0.74397,3.23914 -1.66931,3.27748" data-paper-data="{&quot;index&quot;:null}" stroke-linecap="butt"/><g stroke-linecap="round"><path d="M10.16643,41.29548c0,0 0,-5.69342 0,-7.73701c0,-0.58058 0.36314,-1.60533 0.91517,-1.8496c0.72297,-0.31991 1.68154,0.23773 1.68154,0.23773"/><path d="M7.94068,34.68678h4.45149"/></g><g stroke-linecap="round"><path d="M16.72001,35.00197l3.99371,5.74903"/><path d="M16.72001,40.96593l4.08054,-5.91022"/></g></g><text transform="translate(7.94056,64.85018) scale(0.29376,0.29376)" font-size="40" xml:space="preserve" fill="#a08723" fill-rule="nonzero" stroke="none" stroke-width="1" stroke-linecap="butt" stroke-linejoin="miter" stroke-miterlimit="10" stroke-dasharray="" stroke-dashoffset="0" font-family="Handwriting" font-weight="normal" text-anchor="start" style="mix-blend-mode: normal"><tspan x="0" dy="0">abc</tspan></text></g></g></svg>