<svg version="1.1" xmlns="http://www.w3.org/2000/svg" xmlns:xlink="http://www.w3.org/1999/xlink" width="9.11028" height="9.23312" viewBox="0,0,9.11028,9.23312"><g transform="translate(-235.44486,-178.05011)"><g data-paper-data="{&quot;isPaintingLayer&quot;:true}" fill="#ff0000" fill-rule="nonzero" stroke="none" stroke-width="1" stroke-linecap="butt" stroke-linejoin="miter" stroke-miterlimit="10" stroke-dasharray="" stroke-dashoffset="0" style="mix-blend-mode: normal"><path d="M241.79133,180.62966c0.02047,-0.04094 0.08189,-0.30709 0.08189,-0.32756c0,-0.16378 -0.26614,-1.84253 -1.61733,-1.84253c-0.79843,0 -1.76064,0.73701 -2.45671,2.17009c-0.38898,0.85985 -1.02363,3.15278 -1.02363,4.27877c0,1.20788 0.47087,1.96537 1.31024,1.96537c0.96221,0 1.863,-0.88032 2.3134,-1.45355c0.28662,-0.38898 0.28662,-0.42992 0.38898,-0.77796zM242.95827,178.43909c0.30709,0 0.53229,0.2252 0.53229,0.51181c0,0.12284 -0.18425,0.85985 -0.94174,3.93073c-0.16378,0.5937 -0.26614,1.0441 -0.40945,1.55591c-0.18425,0.79843 -0.24567,1.02363 -0.24567,1.4945c0,0.40945 0.04094,0.94174 0.63465,0.94174c0.83938,0 1.22835,-1.28977 1.53544,-2.49765c0.08189,-0.30709 0.10236,-0.40945 0.28662,-0.40945c0.12284,0 0.20473,0.08189 0.20473,0.18425c0,0.08189 -0.28662,1.33072 -0.61418,2.02678c-0.36851,0.73701 -0.85985,1.10552 -1.47402,1.10552c-0.61418,0 -1.57639,-0.34803 -1.78111,-1.55592c-0.57323,0.67559 -1.53544,1.55592 -2.66143,1.55592c-1.39214,0 -2.57954,-1.18741 -2.57954,-3.21419c0,-3.02994 2.49765,-6.01893 4.81105,-6.01893c1.06457,0 1.61733,0.8189 1.84253,1.35119c0.04095,-0.24567 0.20473,-0.96221 0.85985,-0.96221z"/></g></g></svg>