<svg version="1.1" xmlns="http://www.w3.org/2000/svg" xmlns:xlink="http://www.w3.org/1999/xlink" width="32.37458" height="32.76221" viewBox="0,0,32.37458,32.76221"><g transform="translate(-223.81271,-163.61891)"><g data-paper-data="{&quot;isPaintingLayer&quot;:true}" fill-rule="nonzero" stroke-linecap="butt" stroke-linejoin="miter" stroke-miterlimit="10" stroke-dasharray="" stroke-dashoffset="0" style="mix-blend-mode: normal"><g fill="#cccccc" stroke="#000000" stroke-width="0"><path d="M223.83977,186.49117v-13.12651h32.32046l-0.14426,13.27071z"/><g><path d="M237.06543,186.90589c0,-5.22808 4.23817,-9.46625 9.46625,-9.46625c5.22808,0 9.4662,4.23823 9.4662,9.46625c0,5.22808 -4.23817,9.4662 -9.4662,9.4662c-5.22808,0 -9.46625,-4.23818 -9.46625,-9.4662z" data-paper-data="{&quot;origPos&quot;:null}"/><path d="M223.81271,173.14829c0,-5.22808 4.23817,-9.46625 9.4662,-9.46625c5.22808,0 9.46626,4.23823 9.46626,9.46625c0,5.22808 -4.23818,9.4662 -9.46626,9.4662c-5.22808,0 -9.4662,-4.23818 -9.4662,-9.4662z" data-paper-data="{&quot;origPos&quot;:null}"/><path d="M223.81271,186.90589c0,-5.22808 4.23817,-9.46625 9.4662,-9.46625c5.22808,0 9.46626,4.23823 9.46626,9.46625c0,5.22808 -4.23818,9.4662 -9.46626,9.4662c-5.22808,0 -9.4662,-4.23818 -9.4662,-9.4662z" data-paper-data="{&quot;origPos&quot;:null}"/><path d="M237.25477,173.08516c0,-5.22808 4.23818,-9.46625 9.46626,-9.46625c5.22808,0 9.46626,4.23817 9.46626,9.46625c0,5.22808 -4.23818,9.4662 -9.46626,9.4662c-5.22808,0 -9.46626,-4.23818 -9.46626,-9.4662z" data-paper-data="{&quot;origPos&quot;:null}"/><path d="M233.58846,196.38112l-0.03606,-32.69914l13.63139,-0.03605v32.69908z" data-paper-data="{&quot;origPos&quot;:null}"/></g></g><text transform="translate(236.80638,185.66281) scale(0.4719,0.4719)" font-size="40" xml:space="preserve" fill="#000000" fill-rule="nonzero" stroke="none" stroke-width="1" stroke-linecap="butt" stroke-linejoin="miter" stroke-miterlimit="10" stroke-dasharray="" stroke-dashoffset="0" font-family="Cambria Math" font-weight="normal" text-anchor="start" style="mix-blend-mode: normal"><tspan x="0" dy="0">t</tspan></text></g></g></svg>