<svg version="1.1" xmlns="http://www.w3.org/2000/svg" xmlns:xlink="http://www.w3.org/1999/xlink" width="62.07973" height="76.71683" viewBox="0,0,62.07973,76.71683"><g transform="translate(-208.96013,-148.88967)"><g data-paper-data="{&quot;isPaintingLayer&quot;:true}" fill-rule="nonzero" stroke-linejoin="miter" stroke-miterlimit="10" stroke-dasharray="" stroke-dashoffset="0" style="mix-blend-mode: normal"><path d="M271.03987,201.31721c0,5.4081 -2.62915,9.79312 -5.87022,9.79312h-50.33997c-3.24176,0 -5.86954,-4.38614 -5.86954,-9.79312v-42.63559c0,-5.4081 2.62778,-9.79196 5.86954,-9.79196h50.33929c3.24312,0 5.87022,4.38386 5.87022,9.79196v42.63559z" fill-opacity="0.21569" fill="#ffcc00" stroke="none" stroke-width="0" stroke-linecap="butt"/><path d="M220.42476,162.04254c0,-2.54642 2.06428,-4.6107 4.6107,-4.6107c2.54642,0 4.6107,2.06428 4.6107,4.6107c0,2.54642 -2.06428,4.6107 -4.6107,4.6107c-2.54642,0 -4.6107,-2.06428 -4.6107,-4.6107z" fill="none" stroke="#000000" stroke-width="1" stroke-linecap="butt"/><path d="M220.42476,173.8524c0,-2.54642 2.06427,-4.6107 4.6107,-4.6107c2.54642,0 4.6107,2.06427 4.6107,4.6107c0,2.54642 -2.06427,4.6107 -4.6107,4.6107c-2.54642,0 -4.6107,-2.06428 -4.6107,-4.6107z" fill="none" stroke="#000000" stroke-width="1" stroke-linecap="butt"/><path d="M220.42476,186.01277c0,-2.54642 2.06427,-4.6107 4.6107,-4.6107c2.54642,0 4.6107,2.06427 4.6107,4.6107c0,2.54642 -2.06427,4.6107 -4.6107,4.6107c-2.54642,0 -4.6107,-2.06428 -4.6107,-4.6107z" fill="none" stroke="#000000" stroke-width="1" stroke-linecap="butt"/><path d="M220.42476,197.95745c0,-2.54642 2.06427,-4.6107 4.6107,-4.6107c2.54642,0 4.6107,2.06427 4.6107,4.6107c0,2.54642 -2.06427,4.6107 -4.6107,4.6107c-2.54642,0 -4.6107,-2.06428 -4.6107,-4.6107z" fill="none" stroke="#000000" stroke-width="1" stroke-linecap="butt"/><text transform="translate(251.16274,184.66631) scale(0.40445,0.40445)" font-size="40" xml:space="preserve" fill="#000000" fill-rule="nonzero" stroke="none" stroke-width="1" stroke-linecap="butt" stroke-linejoin="miter" stroke-miterlimit="10" stroke-dasharray="" stroke-dashoffset="0" font-family="Sans Serif" font-weight="normal" text-anchor="start" style="mix-blend-mode: normal"><tspan x="0" dy="0">f</tspan></text><path d="M233.50188,162.85144l16.04307,13.99387" fill="none" stroke="#000000" stroke-width="0.5" stroke-linecap="round"/><path d="M249.38318,178.30132l-16.01611,-4.28714" fill="none" stroke="#000000" stroke-width="0.5" stroke-linecap="round"/><path d="M233.17832,185.41959l16.36663,-5.3387" fill="none" stroke="#000000" stroke-width="0.5" stroke-linecap="round"/><path d="M232.8278,197.04071l17.04071,-15.50381" fill="none" stroke="#000000" stroke-width="0.5" stroke-linecap="round"/><text transform="translate(220.2384,222.51875) scale(0.24702,0.24702)" font-size="40" xml:space="preserve" fill="#000000" fill-rule="nonzero" stroke="none" stroke-width="1" stroke-linecap="butt" stroke-linejoin="miter" stroke-miterlimit="10" stroke-dasharray="" stroke-dashoffset="0" font-family="Sans Serif" font-weight="normal" text-anchor="start" style="mix-blend-mode: normal"><tspan x="0" dy="0">激活函数</tspan></text></g></g></svg>