<svg version="1.1" xmlns="http://www.w3.org/2000/svg" xmlns:xlink="http://www.w3.org/1999/xlink" width="139.85491" height="148.15122" viewBox="0,0,139.85491,148.15122"><defs><linearGradient x1="219.7169" y1="152.54912" x2="260.05104" y2="152.54912" gradientUnits="userSpaceOnUse" id="color-1"><stop offset="0" stop-color="#0038ff"/><stop offset="1" stop-color="#00ff5b"/></linearGradient><linearGradient x1="183.69154" y1="242.45762" x2="195.52306" y2="242.45762" gradientUnits="userSpaceOnUse" id="color-2"><stop offset="0" stop-color="#009eff"/><stop offset="1" stop-color="#bd00ff"/></linearGradient></defs><g transform="translate(-170.1388,-106.29939)"><g data-paper-data="{&quot;isPaintingLayer&quot;:true}" fill-rule="nonzero" stroke-linejoin="miter" stroke-miterlimit="10" stroke-dasharray="" stroke-dashoffset="0" style="mix-blend-mode: normal"><g><g fill="#ffca00" stroke="none" stroke-width="0" stroke-linecap="butt"><path d="M196.10496,177.79326v-48.32452h88.04332v48.32452z"/><path d="M216.05694,198.97659v-92.62938h46.29544v92.62938z"/><g><path d="M196.10496,127.15178c0,-11.51648 9.33591,-20.85239 20.85241,-20.85239c11.51647,0 20.85241,9.33591 20.85241,20.85241c0,11.51647 -9.33592,20.85241 -20.85241,20.85241c-11.51647,0 -20.85235,-9.33592 -20.85235,-20.85235z"/><path d="M242.03316,127.40334c0,-11.51648 9.33592,-20.85241 20.85241,-20.85241c11.51647,0 20.85241,9.33592 20.85241,20.85241c0,11.51647 -9.33592,20.85241 -20.85241,20.85241c-11.51647,0 -20.85235,-9.33591 -20.85235,-20.85233z"/></g><path d="M195.85173,178.003c0,-11.51647 9.33591,-20.85239 20.85241,-20.85239c11.51647,0 20.85241,9.33591 20.85241,20.85241c0,11.51647 -9.33592,20.85241 -20.85241,20.85241c-11.51647,0 -20.85235,-9.33592 -20.85235,-20.85235z"/><path d="M242.33464,177.95959c0,-11.51647 9.33591,-20.85241 20.85239,-20.85241c11.51647,0 20.85241,9.33592 20.85241,20.85241c0,11.51647 -9.33592,20.85241 -20.85241,20.85241c-11.51647,0 -20.85233,-9.33592 -20.85233,-20.85235z"/></g><g fill="none" stroke="#000000" stroke-width="0.5" stroke-linecap="round"><path d="M269.20521,145.85431l7.14623,7.14623h-69.55672"/><path d="M239.19096,188.25534v-72.41521l8.09907,8.09908"/></g><path d="M221.2048,189.56042c-2.16862,0 -1.47114,-4.33491 -1.47114,-4.33491c1.48973,-11.74154 6.53955,-35.31173 19.94889,-34.48932c9.0149,-0.19787 13.09585,-15.33204 14.31555,-28.87571c0,0 0.06487,-6.31559 2.5034,-6.07314c2.15801,0.21457 1.31089,6.189 1.31089,6.189c-1.74161,14.92849 -3.92178,31.95599 -18.1245,32.94718c-10.70899,-0.1435 -14.31142,19.85937 -16.26095,30.59577c0,0 -0.02397,4.04114 -2.19259,4.04114z" fill="url(#color-1)" stroke="none" stroke-width="0.5" stroke-linecap="butt"/></g><g><text transform="translate(170.75629,222.2126) scale(0.41166,0.41166)" font-size="40" xml:space="preserve" fill="#000000" fill-rule="nonzero" stroke="none" stroke-width="1" stroke-linecap="butt" stroke-linejoin="miter" stroke-miterlimit="10" stroke-dasharray="" stroke-dashoffset="0" font-family="&quot;Microsoft YaHei&quot;, &quot;微软雅黑&quot;, STXihei, &quot;华文细黑&quot;" font-weight="normal" text-anchor="start" style="mix-blend-mode: normal"><tspan x="0" dy="0">稽何计算器</tspan></text><g fill="none" stroke="#000000" stroke-width="1.5" stroke-linecap="round"><g><path d="M259.69806,232.15628c0,0 1.27848,-7.46362 2.9718,-13.85796c0.9963,-3.1623 2.0146,-5.5147 5.22478,-4.85618c1.87476,-0.11877 3.43431,1.67289 3.61917,3.72795c0.22034,2.44982 -0.39291,5.76985 -4.15684,6.28744c-3.05758,0.42046 -4.36545,-2.04839 -4.36545,-2.04839"/><path d="M275.45427,223.33544c0,0 -1.62291,0.01299 -1.32879,-2.28456c0.42931,-3.35375 3.44897,-15.8966 3.44897,-15.8966"/><path d="M287.00367,213.80737c-0.88284,7.72501 -2.41694,10.16957 -5.47516,10.06265c-2.79707,-0.09781 -2.94023,-3.24804 -1.57079,-10.32714"/><path d="M289.50379,222.97137c0,0 1.59693,1.43164 3.5308,1.11602c0.91726,-0.14971 2.65592,-0.76704 2.95214,-1.97835c0.55292,-2.3466 -0.76014,-2.98701 -2.54431,-3.29398c-1.69549,-0.29172 -3.87238,-0.24501 -3.18861,-2.46792c0.39766,-1.29286 1.76203,-2.54916 3.5533,-2.56104c2.30787,-0.01531 3.3449,1.29656 3.3449,1.29656"/></g><g><path d="M299.29716,207.24179h9.94655"/><path d="M304.27044,212.35323v-10.22285"/></g></g></g><g><text transform="translate(200.76545,245.66212) scale(0.27917,0.27917)" font-size="40" xml:space="preserve" fill="#000000" fill-rule="nonzero" stroke="none" stroke-width="1" stroke-linecap="butt" stroke-linejoin="miter" stroke-miterlimit="10" stroke-dasharray="" stroke-dashoffset="0" font-family="Sans Serif" font-weight="normal" text-anchor="start" style="mix-blend-mode: normal"><tspan x="0" dy="0">beta math project</tspan></text><g fill="none" stroke-linecap="round"><path d="M183.69154,253.70061c0,0 2.26614,-13.71115 4.70012,-19.44442c1.71101,-4.03033 8.04711,-4.24328 7.01936,0.49518c-1.29611,5.97565 -7.65408,4.9397 -8.58261,4.74686c-1.12051,-0.23272 8.47303,-1.31616 6.49021,4.35193c-1.66943,4.87042 -7.70544,2.13014 -7.70544,2.13014" stroke="url(#color-2)" stroke-width="1.5"/><path d="M187.66831,252.59946c0,0 -0.14994,-5.8614 0.13218,-5.8614c0.14994,0 2.59735,5.82136 2.85122,5.59703c0.20502,-0.18117 3.27675,-5.66789 3.22101,-5.5686c-0.10994,0.19587 -0.13218,5.67401 -0.13218,5.67401" stroke="#0041ff" stroke-width="1"/></g></g></g></g></svg>