<svg version="1.1" xmlns="http://www.w3.org/2000/svg" xmlns:xlink="http://www.w3.org/1999/xlink" width="32.38359" height="32.76221" viewBox="0,0,32.38359,32.76221"><g transform="translate(-223.8082,-163.61889)"><g data-paper-data="{&quot;isPaintingLayer&quot;:true}" fill-rule="nonzero" stroke-linecap="butt" stroke-linejoin="miter" stroke-miterlimit="10" stroke-dasharray="" stroke-dashoffset="0" style="mix-blend-mode: normal"><g fill="#cccccc" stroke="#000000" stroke-width="0"><path d="M223.87134,186.22217v-13.12651h32.32046l-0.14426,13.27071z" data-paper-data="{&quot;origPos&quot;:null}"/><g><path d="M237.06093,186.90586c0,-5.22808 4.23817,-9.46625 9.46625,-9.46625c5.22808,0 9.4662,4.23823 9.4662,9.46625c0,5.22808 -4.23817,9.4662 -9.4662,9.4662c-5.22808,0 -9.46625,-4.23818 -9.46625,-9.4662z" data-paper-data="{&quot;origPos&quot;:null}"/><path d="M223.80821,173.14828c0,-5.22808 4.23817,-9.46625 9.4662,-9.46625c5.22808,0 9.46626,4.23823 9.46626,9.46625c0,5.22808 -4.23818,9.4662 -9.46626,9.4662c-5.22808,0 -9.4662,-4.23818 -9.4662,-9.4662z" data-paper-data="{&quot;origPos&quot;:null}"/><path d="M223.80821,186.90586c0,-5.22808 4.23817,-9.46625 9.4662,-9.46625c5.22808,0 9.46626,4.23823 9.46626,9.46625c0,5.22808 -4.23818,9.4662 -9.46626,9.4662c-5.22808,0 -9.4662,-4.23818 -9.4662,-9.4662z" data-paper-data="{&quot;origPos&quot;:null}"/><path d="M237.25027,173.08515c0,-5.22808 4.23818,-9.46625 9.46626,-9.46625c5.22808,0 9.46626,4.23817 9.46626,9.46625c0,5.22808 -4.23818,9.4662 -9.46626,9.4662c-5.22808,0 -9.46626,-4.23818 -9.46626,-9.4662z" data-paper-data="{&quot;origPos&quot;:null}"/><path d="M233.58396,196.38111l-0.03606,-32.69914l13.63139,-0.03605v32.69908z" data-paper-data="{&quot;origPos&quot;:null}"/></g></g><path d="M237.51382,181.6715c-0.28092,1.1237 -0.28092,1.17989 -0.7304,2.6126c-0.33711,1.17989 -0.56185,1.91029 -1.37653,1.91029c-0.25283,0 -0.75849,-0.14046 -0.75849,-0.7304c0,-0.16855 -0.00001,-0.22474 0.22473,-0.67422c2.30358,-4.91619 3.0059,-7.36023 3.62394,-9.46717h-1.60127c-0.70231,0 -2.16312,0 -3.62393,2.30358c-0.14046,0.16855 -0.16856,0.25283 -0.36521,0.25283c-0.16855,0 -0.30902,-0.05619 -0.30902,-0.22474c0,-0.16855 0.89896,-1.65746 1.62937,-2.47214c1.29226,-1.37653 2.2474,-1.37653 2.89352,-1.37653h9.24243c0.50566,0 1.03942,0 1.03942,0.61803c0,0.89896 -0.92705,0.89896 -1.29226,0.89896h-3.14635c-0.58994,2.52832 -0.58995,4.52289 -0.58995,4.69145c0,0.19665 0,2.6126 0.7585,4.55098c0.19665,0.42139 0.19665,0.47757 0.19665,0.61803c0,0.47757 -0.50567,1.01133 -1.09561,1.01133c-1.15179,0 -1.15179,-3.03399 -1.15179,-3.42728c0,-2.2474 0.47757,-4.29815 1.23607,-7.44451h-3.17445z" fill="#000000" stroke="none" stroke-width="1"/></g></g></svg>