<svg version="1.1" xmlns="http://www.w3.org/2000/svg" xmlns:xlink="http://www.w3.org/1999/xlink" width="32.38359" height="32.76221" viewBox="0,0,32.38359,32.76221"><g transform="translate(-223.80823,-163.61892)"><g data-paper-data="{&quot;isPaintingLayer&quot;:true}" fill-rule="nonzero" stroke-linecap="butt" stroke-linejoin="miter" stroke-miterlimit="10" stroke-dasharray="" stroke-dashoffset="0" style="mix-blend-mode: normal"><g fill="#cccccc" stroke="#000000" stroke-width="0"><path d="M223.87136,186.2222v-13.12651h32.32046l-0.14426,13.27071z" data-paper-data="{&quot;origPos&quot;:null}"/><g><path d="M237.06095,186.90587c0,-5.22808 4.23817,-9.46625 9.46625,-9.46625c5.22808,0 9.4662,4.23823 9.4662,9.46625c0,5.22808 -4.23817,9.4662 -9.4662,9.4662c-5.22808,0 -9.46625,-4.23818 -9.46625,-9.4662z" data-paper-data="{&quot;origPos&quot;:null}"/><path d="M223.80823,173.14831c0,-5.22808 4.23817,-9.46625 9.4662,-9.46625c5.22808,0 9.46626,4.23823 9.46626,9.46625c0,5.22808 -4.23818,9.4662 -9.46626,9.4662c-5.22808,0 -9.4662,-4.23818 -9.4662,-9.4662z" data-paper-data="{&quot;origPos&quot;:null}"/><path d="M223.80823,186.90587c0,-5.22808 4.23817,-9.46625 9.4662,-9.46625c5.22808,0 9.46626,4.23823 9.46626,9.46625c0,5.22808 -4.23818,9.4662 -9.46626,9.4662c-5.22808,0 -9.4662,-4.23818 -9.4662,-9.4662z" data-paper-data="{&quot;origPos&quot;:null}"/><path d="M237.25029,173.08518c0,-5.22808 4.23818,-9.46625 9.46626,-9.46625c5.22808,0 9.46626,4.23817 9.46626,9.46625c0,5.22808 -4.23818,9.4662 -9.46626,9.4662c-5.22808,0 -9.46626,-4.23818 -9.46626,-9.4662z" data-paper-data="{&quot;origPos&quot;:null}"/><path d="M233.58398,196.38114l-0.03606,-32.69914l13.63139,-0.03605v32.69908z" data-paper-data="{&quot;origPos&quot;:null}"/></g></g><path d="M241.88095,183.38491l-0.0249,-0.02492c-0.87175,0.92157 -1.76841,1.14573 -2.49072,1.14573c-1.24536,0 -2.93904,-0.54796 -2.93904,-2.91414c0,-0.59777 0,-1.41971 1.22044,-4.68254c0.37361,-0.94646 0.64759,-1.66878 0.64759,-2.31635c0,-0.82193 -0.42343,-0.82194 -0.64759,-0.82194c-0.97138,0 -1.91785,0.99628 -2.51562,3.08849c-0.09963,0.34871 -0.12453,0.44833 -0.34871,0.44833c-0.17435,0 -0.27397,-0.12454 -0.27397,-0.22417c0,-0.19926 0.92156,-3.81079 3.21302,-3.81079c1.22044,0 1.96766,0.94646 1.96766,1.99257c0,0.49814 -0.14944,0.84685 -0.42342,1.56915c-0.67249,1.79332 -1.34499,3.71118 -1.34499,5.13088c0,0.67249 0.12453,2.04237 1.51934,2.04237c1.19555,0 2.01748,-0.84685 2.51562,-1.54423c0.19926,-0.27398 0.19924,-0.32379 0.32379,-0.77212l1.84313,-7.3227c0.19926,-0.74721 0.7223,-0.84685 0.94647,-0.84685c0.37361,0 0.67249,0.24906 0.67249,0.62267c0,0.14945 -0.04982,0.29888 -0.07472,0.42343l-2.4409,9.71379c-0.6974,2.7647 -3.21302,5.05615 -5.70373,5.05615c-1.4197,0 -2.49072,-0.87175 -2.49072,-2.14201c0,-1.22044 0.87175,-1.51934 1.27026,-1.51934c0.37361,0 0.84685,0.19926 0.84685,0.77212c0,0.57287 -0.49815,1.22044 -1.24536,1.22044c-0.04981,0 -0.17434,0 -0.24906,-0.0249c0.37361,1.14573 1.56916,1.19554 1.86805,1.19554c1.22044,0 2.19182,-0.84685 2.86432,-1.79331c0.87175,-1.22044 1.12083,-2.19183 1.49442,-3.66136z" fill="#000000" stroke="none" stroke-width="1"/></g></g></svg>