<svg version="1.1" xmlns="http://www.w3.org/2000/svg" xmlns:xlink="http://www.w3.org/1999/xlink" width="8.18225" height="17.49173" viewBox="0,0,8.18225,17.49173"><g transform="translate(-235.90887,-171.25414)"><g data-paper-data="{&quot;isPaintingLayer&quot;:true}" fill="#ff0000" fill-rule="nonzero" stroke="none" stroke-width="1" stroke-linecap="butt" stroke-linejoin="miter" stroke-miterlimit="10" stroke-dasharray="" stroke-dashoffset="0" style="mix-blend-mode: normal"><path d="M240.49562,184.45069c0.71911,0.23322 1.84635,0.62193 1.84635,1.98239c0,1.01064 -0.85515,2.31279 -2.09901,2.31279c-0.97177,0 -1.80748,-0.73853 -1.80748,-0.9329c0,-0.03887 0.03887,-0.19435 0.19435,-0.19435c0.09718,0 0.13605,0.03887 0.21378,0.11662c0.48588,0.48588 1.01064,0.62193 1.39934,0.62193c0.71911,0 1.12724,-0.75797 1.12724,-1.32159c0,-0.9329 -0.75797,-1.18555 -1.55483,-1.45764c-0.25266,-0.09718 -0.87459,-0.31097 -1.12724,-0.38871c-1.01064,-0.34984 -2.77925,-0.97177 -2.77925,-3.6344c0,-3.6344 2.83754,-7.26879 5.09204,-8.4349c-0.23322,-0.40815 -0.23322,-0.81628 -0.23322,-0.9912c0,-0.15549 0,-0.87459 0.31097,-0.87459c0.09718,0 0.19435,0.07774 0.19435,0.19435c0,0.05831 -0.07774,0.3304 -0.07774,0.68024c0,0.29153 0.05831,0.56362 0.17491,0.81628c0.50531,-0.21378 0.83571,-0.21378 1.22442,-0.21378c0.62193,0 1.49652,0.01944 1.49652,0.48588c0,0.56362 -1.18555,0.56362 -1.67143,0.56362c-0.36927,0 -0.81628,0 -1.16612,-0.3304c-2.39054,1.3799 -4.3535,4.93655 -4.3535,7.59919c0,1.45764 0.6608,2.33223 1.80748,2.77925zM242.43916,173.39203c0.81628,0 0.97177,-0.05831 1.20499,-0.15548c-0.38871,-0.09718 -0.447,-0.11662 -1.06893,-0.11662c-0.3304,0 -0.60249,0 -0.89402,0.13605c0.21378,0.13605 0.34984,0.13605 0.75797,0.13605z"/></g></g></svg>