<svg version="1.1" xmlns="http://www.w3.org/2000/svg" xmlns:xlink="http://www.w3.org/1999/xlink" width="23.25" height="45.75" viewBox="0,0,23.25,45.75"><g transform="translate(-225.18688,-157.5684)"><g data-paper-data="{&quot;isPaintingLayer&quot;:true}" fill-rule="nonzero" stroke="none" stroke-linecap="butt" stroke-linejoin="miter" stroke-miterlimit="10" stroke-dasharray="" stroke-dashoffset="0" style="mix-blend-mode: normal"><path d="M244.16617,183.19372c0,2.14962 -1.90395,3.82837 -4.1764,3.82837c-2.0882,0 -4.15593,-1.3512 -4.15593,-3.52129c0,-1.4945 1.02363,-2.86616 3.00947,-3.78742c-1.43308,-1.00315 -1.45355,-1.02363 -1.67875,-1.28977c-0.57323,-0.69607 -0.77796,-1.39213 -0.77796,-2.0882c0,-1.863 1.59686,-3.3575 3.62365,-3.3575c1.88347,0 3.60317,1.22835 3.60317,3.00947c0,1.7197 -1.49449,2.66143 -2.51812,3.21419c1.59686,0.98269 3.07088,1.90395 3.07088,3.99215zM240.68583,178.91495c1.18741,-0.65512 2.0882,-1.65828 2.0882,-2.90711c0,-1.47403 -1.31025,-2.53859 -2.78427,-2.53859c-1.37166,0 -2.7638,0.83937 -2.7638,2.17009c0,1.00315 0.8189,1.53545 1.08504,1.7197zM236.77557,183.50081c0,1.69923 1.4945,2.96852 3.23467,2.96852c1.63781,0 3.21419,-1.06457 3.21419,-2.62049c0,-1.24883 -0.94174,-1.88348 -1.47403,-2.23151l-2.47718,-1.61733c-1.33071,0.61417 -2.49765,1.90394 -2.49765,3.5008z" fill="#ff0000" stroke-width="1"/><path d="M225.18688,203.3184v-45.75h23.25v45.75z" fill="none" stroke-width="0"/></g></g></svg>