<svg version="1.1" xmlns="http://www.w3.org/2000/svg" xmlns:xlink="http://www.w3.org/1999/xlink" width="32.38359" height="32.76221" viewBox="0,0,32.38359,32.76221"><g transform="translate(-223.80822,-163.61891)"><g data-paper-data="{&quot;isPaintingLayer&quot;:true}" fill-rule="nonzero" stroke-linecap="butt" stroke-linejoin="miter" stroke-miterlimit="10" stroke-dasharray="" stroke-dashoffset="0" style="mix-blend-mode: normal"><g fill="#cccccc" stroke="#000000" stroke-width="0"><path d="M223.87136,186.22219v-13.12651h32.32046l-0.14426,13.27071z" data-paper-data="{&quot;origPos&quot;:null}"/><g><path d="M237.06095,186.90588c0,-5.22808 4.23817,-9.46625 9.46625,-9.46625c5.22808,0 9.4662,4.23823 9.4662,9.46625c0,5.22808 -4.23817,9.4662 -9.4662,9.4662c-5.22808,0 -9.46625,-4.23818 -9.46625,-9.4662z" data-paper-data="{&quot;origPos&quot;:null}"/><path d="M223.80823,173.1483c0,-5.22808 4.23817,-9.46625 9.4662,-9.46625c5.22808,0 9.46626,4.23823 9.46626,9.46625c0,5.22808 -4.23818,9.4662 -9.46626,9.4662c-5.22808,0 -9.4662,-4.23818 -9.4662,-9.4662z" data-paper-data="{&quot;origPos&quot;:null}"/><path d="M223.80823,186.90588c0,-5.22808 4.23817,-9.46625 9.4662,-9.46625c5.22808,0 9.46626,4.23823 9.46626,9.46625c0,5.22808 -4.23818,9.4662 -9.46626,9.4662c-5.22808,0 -9.4662,-4.23818 -9.4662,-9.4662z" data-paper-data="{&quot;origPos&quot;:null}"/><path d="M237.25029,173.08517c0,-5.22808 4.23818,-9.46625 9.46626,-9.46625c5.22808,0 9.46626,4.23817 9.46626,9.46625c0,5.22808 -4.23818,9.4662 -9.46626,9.4662c-5.22808,0 -9.46626,-4.23818 -9.46626,-9.4662z" data-paper-data="{&quot;origPos&quot;:null}"/><path d="M233.58398,196.38113l-0.03606,-32.69914l13.63139,-0.03605v32.69908z" data-paper-data="{&quot;origPos&quot;:null}"/></g></g><path d="M237.34307,179.58447c-0.37777,1.6118 -0.37777,2.24141 -0.37777,2.59398c0,1.86364 0.75552,2.99693 2.19103,2.99693c0.95701,0 3.34951,-0.37777 4.96132,-2.51844c0.22667,-0.22667 0.25184,-0.25184 0.32739,-0.25184c0.10074,0 0.25184,0.12592 0.25184,0.27703c0,0.32739 -2.16585,2.99694 -5.59092,2.99694c-2.29177,0 -3.80282,-1.83846 -3.80282,-4.4828c0,-4.4828 3.80282,-6.87532 6.44718,-6.87532c1.66217,0 2.61916,1.00738 2.61916,2.11549c0,0.45331 -0.17628,1.914 -2.0903,2.64435c-1.20886,0.45331 -2.92138,0.50368 -3.60136,0.50368zM238.52673,179.08078c1.05774,0 5.08723,0 5.08723,-2.64435c0,-0.95699 -0.75553,-1.6118 -1.86364,-1.6118c-0.8059,0 -3.1984,0.37777 -4.28133,4.25616z" fill="#000000" stroke="none" stroke-width="1"/></g></g></svg>