<svg version="1.1" xmlns="http://www.w3.org/2000/svg" xmlns:xlink="http://www.w3.org/1999/xlink" width="38.94286" height="45.4" viewBox="0,0,38.94286,45.4"><g transform="translate(-220.52857,-157.3)"><g data-paper-data="{&quot;isPaintingLayer&quot;:true}" fill-rule="nonzero" stroke="none" stroke-linecap="butt" stroke-linejoin="miter" stroke-miterlimit="10" stroke-dasharray="" stroke-dashoffset="0" style="mix-blend-mode: normal"><path d="M220.52857,202.7v-45.4h38.94286v45.4z" fill="none" stroke-width="0"/><path d="M238.22696,187.31765c-2.15225,0 -2.35722,-3.17713 -2.35722,-4.12002c0,-4.50947 3.05414,-10.51528 5.92381,-10.51528c1.6808,0 2.33672,2.02926 2.33672,4.12001c0,4.65295 -3.11563,10.51528 -5.90331,10.51528zM242.24449,179.69254c0.59443,-2.29573 0.65593,-3.32061 0.65593,-4.05852c0,-1.96777 -0.45095,-2.54171 -1.12736,-2.54171c-0.90189,0 -1.61931,0.98388 -2.29573,2.21375c-0.8199,1.45534 -1.25036,3.17713 -1.55782,4.38649zM237.75551,180.30746c-0.32796,1.35284 -0.65593,2.74668 -0.65593,4.07902c0,2.02927 0.51243,2.5212 1.14786,2.5212c0.8609,0 1.57831,-0.96339 2.17275,-2.00876c0.73791,-1.29135 1.16836,-2.5827 1.6808,-4.59147z" fill="#ff0000" stroke-width="1"/></g></g></svg>