<svg version="1.1" xmlns="http://www.w3.org/2000/svg" xmlns:xlink="http://www.w3.org/1999/xlink" width="32.38359" height="32.76219" viewBox="0,0,32.38359,32.76219"><g transform="translate(-223.80823,-163.61895)"><g data-paper-data="{&quot;isPaintingLayer&quot;:true}" fill-rule="nonzero" stroke-linecap="butt" stroke-linejoin="miter" stroke-miterlimit="10" stroke-dasharray="" stroke-dashoffset="0" style="mix-blend-mode: normal"><path d="M223.87136,186.2222v-13.12651h32.32046l-0.14426,13.27071z" data-paper-data="{&quot;origPos&quot;:null}" fill="#cccccc" stroke="#000000" stroke-width="0"/><g fill="#cccccc" stroke="#000000" stroke-width="0"><path d="M237.06095,186.90587c0,-5.22808 4.23817,-9.46625 9.46625,-9.46625c5.22808,0 9.4662,4.23823 9.4662,9.46625c0,5.22808 -4.23817,9.4662 -9.4662,9.4662c-5.22808,0 -9.46625,-4.23818 -9.46625,-9.4662z" data-paper-data="{&quot;origPos&quot;:null}"/><path d="M223.80823,173.14833c0,-5.22808 4.23817,-9.46625 9.4662,-9.46625c5.22808,0 9.46626,4.23823 9.46626,9.46625c0,5.22808 -4.23818,9.4662 -9.46626,9.4662c-5.22808,0 -9.4662,-4.23818 -9.4662,-9.4662z" data-paper-data="{&quot;origPos&quot;:null}"/><path d="M223.80823,186.90587c0,-5.22808 4.23817,-9.46625 9.4662,-9.46625c5.22808,0 9.46626,4.23823 9.46626,9.46625c0,5.22808 -4.23818,9.4662 -9.46626,9.4662c-5.22808,0 -9.4662,-4.23818 -9.4662,-9.4662z" data-paper-data="{&quot;origPos&quot;:null}"/><path d="M237.25029,173.0852c0,-5.22808 4.23818,-9.46625 9.46626,-9.46625c5.22808,0 9.46626,4.23817 9.46626,9.46625c0,5.22808 -4.23818,9.4662 -9.46626,9.4662c-5.22808,0 -9.46626,-4.23818 -9.46626,-9.4662z" data-paper-data="{&quot;origPos&quot;:null}"/><path d="M233.58398,196.38114l-0.03606,-32.69914l13.63139,-0.03605v32.69908z" data-paper-data="{&quot;origPos&quot;:null}"/></g><path d="M237.98034,188.33547c-2.45161,0 -2.68509,-3.61904 -2.68509,-4.69308c0,-5.1367 3.47895,-11.97786 6.74776,-11.97786c1.91459,0 2.66174,2.31151 2.66174,4.69307c0,5.30014 -3.54899,11.97786 -6.72441,11.97786zM242.55668,179.64977c0.67711,-2.61505 0.74716,-3.78248 0.74716,-4.62303c0,-2.24147 -0.51367,-2.89524 -1.28417,-2.89524c-1.02734,0 -1.84454,1.12073 -2.61505,2.52166c-0.93394,1.65776 -1.42427,3.61904 -1.7745,4.99661zM237.44332,180.35023c-0.37358,1.54101 -0.74716,3.12872 -0.74716,4.64638c0,2.31152 0.58371,2.87188 1.30752,2.87188c0.98064,0 1.79784,-1.09739 2.47496,-2.28816c0.84055,-1.47097 1.33087,-2.94193 1.91459,-5.2301z" fill="#000000" stroke="none" stroke-width="1"/></g></g></svg>