<svg version="1.1" xmlns="http://www.w3.org/2000/svg" xmlns:xlink="http://www.w3.org/1999/xlink" width="10.80951" height="9.23314" viewBox="0,0,10.80951,9.23314"><g transform="translate(-234.59524,-178.16119)"><g data-paper-data="{&quot;isPaintingLayer&quot;:true}" fill="#ff0000" fill-rule="nonzero" stroke="none" stroke-width="1" stroke-linecap="butt" stroke-linejoin="miter" stroke-miterlimit="10" stroke-dasharray="" stroke-dashoffset="0" style="mix-blend-mode: normal"><path d="M237.58424,183.89353l-0.45039,1.84253c-0.10236,0.40945 -0.28662,1.12599 -0.32756,1.22835c-0.16378,0.30709 -0.4504,0.42992 -0.69607,0.42992c-0.30709,0 -0.53229,-0.2252 -0.53229,-0.51182c0,-0.10236 0.22519,-1.06457 0.3685,-1.59686c0.10236,-0.3685 0.32756,-1.28977 0.40945,-1.67875l0.57324,-2.21104c0.14331,-0.63465 0.34803,-1.43308 0.34803,-1.88348c0,-0.61417 -0.16378,-0.94173 -0.63465,-0.94173c-0.8189,0 -1.18741,1.16693 -1.51497,2.41576c-0.12284,0.47087 -0.14331,0.49134 -0.30709,0.49134c-0.14331,0 -0.2252,-0.10237 -0.2252,-0.18426c0,-0.08189 0.28662,-1.31024 0.65512,-2.04725c0.34804,-0.69607 0.79843,-1.08505 1.45355,-1.08505c0.90079,0 1.74016,0.63465 1.80158,1.80158c0.3685,-0.51182 1.33071,-1.80158 3.15277,-1.80158c1.55592,0 2.27246,0.92126 2.27246,2.14962c0,1.16693 -0.85985,3.45986 -1.2693,4.58585c-0.12284,0.28662 -0.34803,0.90079 -0.34803,1.41261c0,0.65512 0.32756,0.67559 0.53229,0.67559c0.79843,0 1.57639,-0.8189 2.04726,-2.49765c0.10237,-0.34804 0.12284,-0.40945 0.30709,-0.40945c0.12284,0 0.20472,0.08188 0.20472,0.18425c0,0.12284 -0.71654,3.13231 -2.62049,3.13231c-0.98269,0 -1.61733,-0.73701 -1.61733,-1.65828c0,-0.3685 0.10236,-0.63465 0.28661,-1.12599c0.40945,-1.10552 1.24883,-3.43939 1.24883,-4.60632c0,-0.81891 -0.28661,-1.43308 -1.10552,-1.43308c-0.79843,0 -1.4945,0.32756 -2.02678,0.8189c-0.75749,0.65512 -1.2693,1.67875 -1.31024,1.80158z"/></g></g></svg>