<svg version="1.1" xmlns="http://www.w3.org/2000/svg" xmlns:xlink="http://www.w3.org/1999/xlink" width="9.13076" height="14.41268" viewBox="0,0,9.13076,14.41268"><g transform="translate(-235.43462,-170.19367)"><g data-paper-data="{&quot;isPaintingLayer&quot;:true}" fill="#ff0000" fill-rule="nonzero" stroke="none" stroke-width="1" stroke-linecap="butt" stroke-linejoin="miter" stroke-miterlimit="10" stroke-dasharray="" stroke-dashoffset="0" style="mix-blend-mode: normal"><path d="M237.95274,179.11969c0.75749,-0.28662 1.51497,-1.06457 1.7197,-1.31024c1.45355,-1.6378 2.37482,-2.43624 3.50081,-2.43624c0.92127,0 1.39213,0.61417 1.39213,1.20788c0,0.65512 -0.49134,1.12599 -1.0441,1.12599c-0.28662,0 -0.6756,-0.16378 -0.6756,-0.65512c0,-0.40945 0.28662,-0.94174 1.04411,-1.02363c-0.14331,-0.12284 -0.26615,-0.24567 -0.73702,-0.24567c-0.94174,0 -1.74017,0.65512 -2.90711,1.96536c-0.28662,0.30709 -1.02363,1.10552 -1.76064,1.55592c1.88348,0.24567 2.96852,0.92127 2.96852,2.12914c0,0.24567 0,0.26614 -0.08189,0.63465c-0.08189,0.30709 -0.16378,0.75749 -0.16378,1.14647c0,0.77796 0.26614,0.98268 0.67559,0.98268c1.0441,0 1.47403,-1.43308 1.76064,-2.49765c0.08189,-0.32756 0.10237,-0.40945 0.28662,-0.40945c0.12284,0 0.20472,0.08188 0.20472,0.18425c0,0.08189 -0.26614,1.22835 -0.69607,1.98584c-0.16378,0.28662 -0.65512,1.14647 -1.59686,1.14647c-1.0441,0 -1.82205,-0.79843 -1.82205,-1.98584c0,-0.10236 0,-0.34803 0.08189,-0.65512c0.06142,-0.30709 0.06142,-0.38898 0.06142,-0.51181c0,-0.98269 -0.88032,-1.59686 -2.35434,-1.76064l-0.96221,3.82837c-0.16378,0.63465 -0.28661,1.08505 -0.85984,1.08505c-0.20472,0 -0.55276,-0.0819 -0.55276,-0.53229c0,-0.12284 0,-0.16378 0.08189,-0.47087l2.92758,-11.71031c0.10236,-0.3685 0.10236,-0.40945 0.10236,-0.49134c0,-0.20472 0,-0.38898 -1.0441,-0.38898c-0.20472,0 -0.40946,0 -0.40946,-0.20472c0,-0.3685 0.14331,-0.38898 0.63465,-0.42992c0.3685,-0.02047 0.6756,-0.06142 1.02363,-0.08189c0.36851,-0.04094 1.10552,-0.10236 1.12599,-0.10236c0.04094,0 0.24567,0 0.24567,0.20472c0,0.10236 -0.04094,0.2252 -0.06141,0.30709z"/></g></g></svg>