<svg version="1.1" xmlns="http://www.w3.org/2000/svg" xmlns:xlink="http://www.w3.org/1999/xlink" width="26.95139" height="18.37525" viewBox="0,0,26.95139,18.37525"><g transform="translate(-226.5243,-170.81237)"><g data-paper-data="{&quot;isPaintingLayer&quot;:true}" fill-rule="nonzero" stroke="none" stroke-width="0" stroke-linecap="butt" stroke-linejoin="miter" stroke-miterlimit="10" stroke-dasharray="" stroke-dashoffset="0" style="mix-blend-mode: normal"><path d="M226.5243,189.18763v-18.37525h26.95139v18.37525z" fill="#ffca00"/><g fill="#ffffff"><path d="M228.62808,176.82955v-3.66667h3.66667v3.66667z"/><path d="M233.29475,176.91288v-3.66666h3.66667v3.66666z"/><path d="M237.96141,176.91288v-3.66666h3.66667v3.66666z"/><path d="M242.79475,176.91288v-3.66666h3.66667v3.66666z"/><path d="M247.62808,176.91288v-3.66666h3.66667v3.66666z"/></g><g fill="#ffffff"><path d="M228.66667,181.79167v-3.66667h3.66667v3.66667z"/><path d="M233.33333,181.875v-3.66666h3.66667v3.66666z"/><path d="M238,181.875v-3.66666h3.66667v3.66666z"/><path d="M242.83333,181.875v-3.66666h3.66667v3.66666z"/><path d="M247.66667,181.875v-3.66666h3.66667v3.66666z"/></g><path d="M234.62808,186.66288v-2.41667h10v2.41667z" fill="#ffffff"/></g></g></svg>