<svg version="1.1" xmlns="http://www.w3.org/2000/svg" xmlns:xlink="http://www.w3.org/1999/xlink" width="8.53706" height="9.23313" viewBox="0,0,8.53706,9.23313"><g transform="translate(-235.73147,-178.0501)"><g data-paper-data="{&quot;isPaintingLayer&quot;:true}" fill="#ff0000" fill-rule="nonzero" stroke="none" stroke-width="1" stroke-linecap="butt" stroke-linejoin="miter" stroke-miterlimit="10" stroke-dasharray="" stroke-dashoffset="0" style="mix-blend-mode: normal"><path d="M238.06533,185.33833c0.26614,0 0.49134,0 1.31025,0.32756c0.42992,0.18426 0.83937,0.32756 1.2693,0.32756c0.79843,0 2.00631,-0.49134 2.4567,-1.69922c0.06142,-0.20472 0.0819,-0.28661 0.24568,-0.28661c0.20472,0 0.2252,0.12284 0.2252,0.20472c0,0.47087 -1.14647,3.07089 -3.15278,3.07089c-0.65512,0 -1.00315,-0.42993 -1.39213,-0.88032c-0.40945,-0.51182 -0.61417,-0.65512 -1.0441,-0.65512c-0.75749,0 -1.41261,0.75749 -1.74017,1.2693c-0.14331,0.24567 -0.16378,0.26614 -0.28662,0.26614c-0.12284,0 -0.22519,-0.04094 -0.22519,-0.16378c0,-0.14331 0.75748,-1.35119 2.00631,-2.62049l2.06773,-1.90395c0.92127,-0.83937 2.02679,-1.82206 2.70238,-2.62049c-0.10236,0.02047 -0.18426,0.02047 -0.32757,0.02047c-0.20472,0 -0.53228,0 -1.31024,-0.32756c-0.42992,-0.18425 -0.83937,-0.32756 -1.26929,-0.32756c-0.38898,0 -1.37166,0.14331 -1.7197,0.96221c-0.06142,0.14331 -0.0819,0.22519 -0.24568,0.22519c-0.18426,0 -0.20472,-0.12283 -0.20472,-0.18425c0,-0.42992 0.90079,-2.29292 2.39529,-2.29292c0.5937,0 0.94174,0.34803 1.37167,0.85985c0.38898,0.49134 0.61417,0.67559 1.0441,0.67559c0.53229,0 1.02363,-0.42992 1.53544,-1.31025c0.10236,-0.14331 0.14331,-0.22519 0.28662,-0.22519c0.04094,0 0.20472,-0.00001 0.20472,0.16377c0,0.16378 -0.71653,1.35119 -2.14961,2.7638c-0.28662,0.30709 -0.8189,0.81891 -2.04726,1.88348c-1.02363,0.92127 -1.74017,1.55591 -2.62049,2.55907c0.18426,-0.08189 0.40945,-0.08189 0.61417,-0.08189z"/></g></g></svg>