<svg version="1.1" xmlns="http://www.w3.org/2000/svg" xmlns:xlink="http://www.w3.org/1999/xlink" width="18.3" height="18.7" viewBox="0,0,18.3,18.7"><g transform="translate(-229.3,-172.05)"><g data-paper-data="{&quot;isPaintingLayer&quot;:true}" fill-rule="nonzero" stroke="none" stroke-linecap="butt" stroke-linejoin="miter" stroke-miterlimit="10" stroke-dasharray="" stroke-dashoffset="0" style="mix-blend-mode: normal"><path d="M244.42373,182.05926c0,-0.9579 -0.5225,-1.81129 -1.65455,-1.81129c-1.51522,0 -2.83885,1.60231 -3.39617,3.83159c-0.10449,0.38316 -0.40058,2.02029 -0.40058,2.05512c0,0.08708 0.26124,0.08708 0.55733,0.08708c2.66469,0 4.89398,-2.17703 4.89398,-4.1625zM238.17127,190.33201c-0.13933,0.34832 -0.45283,0.41799 -0.62698,0.41799c-0.03483,0 -0.45282,-0.01742 -0.45282,-0.43541c0,-0.06966 0,-0.10449 0.08708,-0.36574l0.90565,-2.94336c-1.41072,-0.3135 -2.94335,-1.37588 -2.94335,-3.32652c0,-1.65454 1.32363,-4.19733 1.79388,-4.19733c0.03483,0 0.17417,0 0.17417,0.13933c0,0.03483 0,0.06966 -0.19159,0.29608c-1.01014,1.25397 -1.37588,3.11752 -1.37588,3.58776c0,1.16689 0.83598,2.22929 2.83885,2.61245c0.97531,-3.27426 2.0377,-6.80977 4.54565,-6.80977c1.46297,0 1.93321,1.2888 1.93321,2.3512c0,2.75178 -2.62986,5.50355 -5.48614,5.50355c-0.3135,0 -0.48765,-0.01742 -0.59215,-0.03484c-0.06966,0.34832 -0.55733,3.04786 -0.60956,3.2046z" fill="#000000" stroke-width="1"/><path d="M229.3,186.25v-14.2h18.3v14.2z" fill="none" stroke-width="0"/></g></g></svg>