<svg version="1.1" xmlns="http://www.w3.org/2000/svg" xmlns:xlink="http://www.w3.org/1999/xlink" width="482.66667" height="343.95252" viewBox="0,0,482.66667,343.95252"><g transform="translate(1.33334,-20.25318)"><g data-paper-data="{&quot;isPaintingLayer&quot;:true}" fill-rule="nonzero" stroke-linejoin="miter" stroke-miterlimit="10" stroke-dasharray="" stroke-dashoffset="0" style="mix-blend-mode: normal"><path d="M-1.33333,364.20571v-343.95252h482.66667v343.95252z" fill-opacity="0.88235" fill="#ffffff" stroke="none" stroke-width="0" stroke-linecap="butt"/><path d="M127.50696,66.10141v251.48924" fill="none" stroke="#ffca00" stroke-width="2" stroke-linecap="round"/><text transform="translate(17.04731,49.46909) scale(0.41319,0.41319)" font-size="40" xml:space="preserve" fill="#000000" fill-rule="nonzero" stroke="none" stroke-width="1" stroke-linecap="butt" stroke-linejoin="miter" stroke-miterlimit="10" stroke-dasharray="" stroke-dashoffset="0" font-family="Sans Serif" font-weight="normal" text-anchor="start" style="mix-blend-mode: normal"><tspan x="0" dy="0">设置</tspan></text><text transform="translate(53.94912,135.6708) scale(0.34375,0.34375)" font-size="40" xml:space="preserve" fill="#000000" fill-rule="nonzero" stroke="none" stroke-width="1" stroke-linecap="butt" stroke-linejoin="miter" stroke-miterlimit="10" stroke-dasharray="" stroke-dashoffset="0" font-family="Sans Serif" font-weight="normal" text-anchor="start" style="mix-blend-mode: normal"><tspan x="0" dy="0">鼠标</tspan></text><text transform="translate(53.94912,174.67081) scale(0.34375,0.34375)" font-size="40" xml:space="preserve" fill="#000000" fill-rule="nonzero" stroke="none" stroke-width="1" stroke-linecap="butt" stroke-linejoin="miter" stroke-miterlimit="10" stroke-dasharray="" stroke-dashoffset="0" font-family="Sans Serif" font-weight="normal" text-anchor="start" style="mix-blend-mode: normal"><tspan x="0" dy="0">网格</tspan></text><text transform="translate(53.94912,215.00414) scale(0.34375,0.34375)" font-size="40" xml:space="preserve" fill="#000000" fill-rule="nonzero" stroke="none" stroke-width="1" stroke-linecap="butt" stroke-linejoin="miter" stroke-miterlimit="10" stroke-dasharray="" stroke-dashoffset="0" font-family="Sans Serif" font-weight="normal" text-anchor="start" style="mix-blend-mode: normal"><tspan x="0" dy="0">几何</tspan></text><text transform="translate(53.94912,94.69678) scale(0.34375,0.34375)" font-size="40" xml:space="preserve" fill="#000000" fill-rule="nonzero" stroke="none" stroke-width="1" stroke-linecap="butt" stroke-linejoin="miter" stroke-miterlimit="10" stroke-dasharray="" stroke-dashoffset="0" font-family="Sans Serif" font-weight="normal" text-anchor="start" style="mix-blend-mode: normal"><tspan x="0" dy="0">绘制</tspan></text><path d="M41.87285,140.6845l-4.48377,-8.29498l-3.89529,4.37169l-0.25221,-16.70207l12.66667,9.41594l-5.82891,1.12095l4.70796,8.51917z" fill="none" stroke="#bf9900" stroke-width="0.5" stroke-linecap="round"/><g fill="none" stroke="#c19b00" stroke-width="0.5" stroke-linecap="round"><path d="M45.71464,168.76003l2.16027,2.16027h-16.6"/><path d="M37.24408,163.47303l2.38767,-2.38767v20.23836"/></g><g fill="none" stroke="#ab8900" stroke-width="0.5"><path d="M47.82411,213.55341l-16.1436,5.85427l9.93452,-17.74022z" stroke-linecap="round"/><path d="M31.32571,212.88393c0,-4.26198 3.45501,-7.71699 7.71699,-7.71699c4.26198,0 7.71699,3.45501 7.71699,7.71699c0,4.26198 -3.45501,7.71699 -7.71699,7.71699c-4.26198,0 -7.71699,-3.45501 -7.71699,-7.71699z" stroke-linecap="butt"/></g><text transform="translate(53.94912,255.44609) scale(0.34375,0.34375)" font-size="40" xml:space="preserve" fill="#000000" fill-rule="nonzero" stroke="none" stroke-width="1" stroke-linecap="butt" stroke-linejoin="miter" stroke-miterlimit="10" stroke-dasharray="" stroke-dashoffset="0" font-family="Sans Serif" font-weight="normal" text-anchor="start" style="mix-blend-mode: normal"><tspan x="0" dy="0">性能</tspan></text><g fill="none" stroke="#a78500" stroke-width="0.5"><path d="M31.32571,255.7956c0.15701,-6.33358 3.84067,-9.04404 8.23634,-9.04404c4.55635,0 8.22313,2.02095 8.26206,9.12252" stroke-linecap="butt"/><path d="M44.46545,250.25425l-5.18182,5.18182" stroke-linecap="round"/><path d="M38.91999,255.48153c0,-0.22593 0.18316,-0.40909 0.40909,-0.40909c0.22593,0 0.40909,0.18316 0.40909,0.40909c0,0.22593 -0.18316,0.40909 -0.40909,0.40909c-0.22593,0 -0.40909,-0.18316 -0.40909,-0.40909z" stroke-linecap="butt"/></g><g fill="none" stroke-width="0.5" stroke-linecap="round"><path d="M31.85095,91.16917c0,0 3.26049,6.89565 7.31744,0c4.34871,-7.39155 8.13049,0 8.13049,0" stroke="#003aff"/><g stroke="#a98700"><path d="M47.98997,89.47352l1.7074,1.7074h-20.24492"/><path d="M37.07478,83.98544l2.5611,-2.5611v19.26926"/></g></g></g></g></svg>