<svg version="1.1" xmlns="http://www.w3.org/2000/svg" xmlns:xlink="http://www.w3.org/1999/xlink" width="10.25675" height="9.23314" viewBox="0,0,10.25675,9.23314"><g transform="translate(-234.87162,-177.93899)"><g data-paper-data="{&quot;isPaintingLayer&quot;:true}" fill="#ff0000" fill-rule="nonzero" stroke="none" stroke-width="1" stroke-linecap="butt" stroke-linejoin="miter" stroke-miterlimit="10" stroke-dasharray="" stroke-dashoffset="0" style="mix-blend-mode: normal"><path d="M238.86378,187.17211c-0.83937,0 -2.41576,-0.32756 -2.41576,-2.41576c0,-0.61417 0.10236,-1.39213 1.00315,-3.82837c0.30709,-0.77795 0.53229,-1.37166 0.53229,-1.90394c0,-0.65512 -0.32756,-0.6756 -0.53229,-0.6756c-0.77796,0 -1.57639,0.77796 -2.06773,2.5386c-0.08189,0.28662 -0.10236,0.36851 -0.28661,0.36851c-0.14331,0 -0.2252,-0.10237 -0.2252,-0.18426c0,-0.16378 0.75748,-3.1323 2.64096,-3.1323c0.98269,0 1.61733,0.75748 1.61733,1.6378c0,0.40945 -0.10236,0.6756 -0.34803,1.33072c-0.53229,1.37167 -1.10551,3.00947 -1.10551,4.17641c0,0.75749 0.20472,1.67874 1.26929,1.67874c1.4945,0 2.29293,-1.67874 2.3134,-1.67874c0.14331,-0.71654 1.24883,-5.11814 1.45355,-5.91657c0.12284,-0.51182 0.26614,-1.02363 0.85985,-1.02363c0.30709,0 0.55276,0.20472 0.55276,0.51181c0,0.06142 0,0.10236 -0.14331,0.61418l-0.83937,3.33703c-0.12284,0.57323 -0.26614,1.12599 -0.40945,1.67875c-0.20472,0.85985 -0.26614,1.06458 -0.26614,1.53545c0,0.26614 0,0.94173 0.61417,0.94173c0.81891,0 1.18741,-1.08504 1.55591,-2.49765c0.08189,-0.30709 0.10237,-0.40945 0.28662,-0.40945c0.12284,0 0.20472,0.08188 0.20472,0.18425c0,0.06142 -0.26614,1.2693 -0.61418,2.00631c-0.32756,0.69607 -0.8189,1.126 -1.47402,1.126c-0.49134,0 -1.47403,-0.24567 -1.74017,-1.39213c-0.40945,0.49134 -1.12599,1.39213 -2.43624,1.39213z"/></g></g></svg>