<svg version="1.1" xmlns="http://www.w3.org/2000/svg" xmlns:xlink="http://www.w3.org/1999/xlink" width="15" height="24.4" viewBox="0,0,15,24.4"><g transform="translate(-232.65,-165.25)"><g data-paper-data="{&quot;isPaintingLayer&quot;:true}" fill-rule="nonzero" stroke="none" stroke-linecap="butt" stroke-linejoin="miter" stroke-miterlimit="10" stroke-dasharray="" stroke-dashoffset="0" style="mix-blend-mode: normal"><path d="M240.00003,184.62759c-0.98269,0 -1.61733,-0.73701 -1.61733,-1.65828c0,-0.3685 0.12283,-0.69607 0.24567,-1.02363l1.43308,-3.8079c0.16378,-0.45039 0.42992,-1.12599 0.42992,-1.65828c0,-0.65512 -0.34804,-0.6756 -0.53229,-0.6756c-0.79843,0 -1.57639,0.8189 -2.06773,2.5386c-0.08189,0.28662 -0.10236,0.36851 -0.28662,0.36851c-0.14331,0 -0.2252,-0.10237 -0.2252,-0.18426c0,-0.16378 0.75749,-3.1323 2.64096,-3.1323c1.00315,0 1.61733,0.77795 1.61733,1.6378c0,0.38898 -0.14331,0.75749 -0.20473,0.92127l-1.43308,3.8079c-0.2252,0.61417 -0.47087,1.22835 -0.47087,1.78111c0,0.61417 0.28662,0.67559 0.53229,0.67559c0.67559,0 1.51497,-0.63465 2.04726,-2.49765c0.10236,-0.34804 0.12284,-0.40945 0.30709,-0.40945c0.12284,0 0.20472,0.08188 0.20472,0.18425c0,0.14331 -0.73702,3.13231 -2.62049,3.13231zM241.43311,172.63067c-0.24567,0 -0.6756,-0.16378 -0.6756,-0.67559c0,-0.53229 0.53229,-0.98268 1.00316,-0.98268c0.45039,0 0.69607,0.36851 0.69607,0.6756c0,0.45039 -0.47087,0.98268 -1.02363,0.98268z" fill="#ff0000" stroke-width="1"/><path d="M232.65,189.65v-24.4h15v24.4z" fill="none" stroke-width="0"/></g></g></svg>