<svg version="1.1" xmlns="http://www.w3.org/2000/svg" xmlns:xlink="http://www.w3.org/1999/xlink" width="25.375" height="33.75" viewBox="0,0,25.375,33.75"><g transform="translate(-225.66605,-161.73506)"><g data-paper-data="{&quot;isPaintingLayer&quot;:true}" fill-rule="nonzero" stroke="none" stroke-linecap="butt" stroke-linejoin="miter" stroke-miterlimit="10" stroke-dasharray="" stroke-dashoffset="0" style="mix-blend-mode: normal"><path d="M243.4701,186.80713h-7.47249v-0.49135l4.13546,-4.6268c1.16694,-1.31025 2.1701,-2.82521 2.1701,-4.56538c0,-1.88348 -1.06458,-3.33703 -2.80475,-3.33703c-1.33071,0 -2.43623,0.94174 -2.82521,2.33387c0.06142,-0.02047 0.10236,-0.02047 0.28661,-0.02047c0.57323,0 0.96221,0.38898 0.96221,0.96221c0,0.65512 -0.53228,0.96221 -0.96221,0.96221c-0.06142,0 -0.96221,-0.00001 -0.96221,-1.04411c0,-1.76064 1.39213,-3.78742 3.76695,-3.78742c2.37482,0 4.23782,1.57639 4.23782,3.93073c0,2.02678 -1.14646,3.09135 -4.25829,5.95752c-0.53229,0.49134 -1.78111,1.80158 -2.33387,2.27245h3.78742c0.61417,0 1.78111,0 1.92442,-0.18425c0.20472,-0.32756 0.36851,-1.45355 0.42992,-1.80158h0.4504z" fill="#ff0000" stroke-width="1"/><path d="M232.85355,195.48506v-33.75h15.5v33.75z" fill="none" stroke-width="0"/><path d="M225.66605,190.67256v-23h25.375v23z" fill="none" stroke-width="0"/></g></g></svg>