<svg version="1.1" xmlns="http://www.w3.org/2000/svg" xmlns:xlink="http://www.w3.org/1999/xlink" width="7.17642" height="4.33021" viewBox="0,0,7.17642,4.33021"><g transform="translate(-235.98655,-179.18899)"><g data-paper-data="{&quot;isPaintingLayer&quot;:true}" fill="#ff0000" fill-rule="nonzero" stroke="none" stroke-width="1" stroke-linecap="butt" stroke-linejoin="miter" stroke-miterlimit="10" stroke-dasharray="" stroke-dashoffset="0" style="mix-blend-mode: normal"><path d="M237.29624,181.87737l-0.19735,0.86412c-0.04485,0.19203 -0.12558,0.52807 -0.14352,0.57608c-0.07176,0.14402 -0.19735,0.20163 -0.30499,0.20163c-0.13456,0 -0.23324,-0.10562 -0.23324,-0.24004c0,-0.04801 0.09868,-0.49927 0.16147,-0.7489c0.04485,-0.17282 0.14352,-0.60488 0.17941,-0.78731l0.25117,-1.03694c0.06279,-0.29764 0.1525,-0.67209 0.1525,-0.88332c0,-0.28804 -0.07176,-0.44166 -0.27808,-0.44166c-0.35882,0 -0.52926,0.56648 -0.66382,1.13296c-0.05383,0.22083 -0.06279,0.23043 -0.13456,0.23043c-0.06279,0 -0.09868,-0.04801 -0.09868,-0.08642c0,-0.03841 0.1256,-0.62409 0.28706,-0.96973c0.17043,-0.36485 0.37675,-0.49927 0.63691,-0.49927c0.3947,0 0.7625,0.29764 0.78941,0.84491c0.16146,-0.24004 0.58309,-0.84491 1.38145,-0.84491c0.67278,0 0.96881,0.41285 0.99573,0.93133c0.35882,-0.56648 0.84323,-0.93133 1.44426,-0.93133c0.68176,0 0.99573,0.43206 0.99573,1.00814c0,0.55688 -0.40367,1.68983 -0.56514,2.1507c-0.03588,0.10562 -0.14352,0.41286 -0.14352,0.66249c0,0.30724 0.14352,0.31684 0.23324,0.31684c0.35882,0 0.69073,-0.40326 0.89705,-1.17136c0.04485,-0.16323 0.05383,-0.19203 0.13456,-0.19203c0.05383,0 0.08971,0.0384 0.08971,0.08641c0,0.05761 -0.31397,1.46901 -1.14823,1.46901c-0.43059,0 -0.70867,-0.34565 -0.70867,-0.77771c0,-0.17282 0.04485,-0.29764 0.1256,-0.52807c0.19735,-0.57608 0.5472,-1.62262 0.5472,-2.1603c0,-0.38406 -0.1256,-0.67209 -0.48441,-0.67209c-0.98675,0 -1.45322,1.20017 -1.47117,1.27698l-0.53823,2.29472c-0.08074,0.34565 -0.1256,0.56648 -0.3947,0.56648c-0.13456,0 -0.23324,-0.10562 -0.23324,-0.24004c0,-0.03841 0.05383,-0.28804 0.08971,-0.43206c0.01793,-0.10562 0.18838,-0.81611 0.26015,-1.10416l0.22426,-0.98893c0.10765,-0.45126 0.10765,-0.64329 0.10765,-0.7009c0,-0.38406 -0.1256,-0.67209 -0.48441,-0.67209c-0.34985,0 -0.65485,0.15362 -0.88808,0.38405c-0.33191,0.30724 -0.55616,0.78731 -0.57411,0.84491z"/></g></g></svg>