<svg version="1.1" xmlns="http://www.w3.org/2000/svg" xmlns:xlink="http://www.w3.org/1999/xlink" width="12.79475" height="9.23314" viewBox="0,0,12.79475,9.23314"><g transform="translate(-233.60262,-175.38343)"><g data-paper-data="{&quot;isPaintingLayer&quot;:true}" fill="#ff0000" fill-rule="nonzero" stroke="none" stroke-width="1" stroke-linecap="butt" stroke-linejoin="miter" stroke-miterlimit="10" stroke-dasharray="" stroke-dashoffset="0" style="mix-blend-mode: normal"><path d="M235.93765,181.11577l-0.35185,1.84253c-0.07997,0.40945 -0.2239,1.12599 -0.25589,1.22835c-0.12795,0.30709 -0.35185,0.42992 -0.54377,0.42992c-0.2399,0 -0.41584,-0.2252 -0.41584,-0.51182c0,-0.10236 0.17593,-1.06457 0.28789,-1.59686c0.07997,-0.3685 0.25589,-1.28977 0.31987,-1.67875l0.44781,-2.21104c0.11195,-0.63465 0.27189,-1.43308 0.27189,-1.88348c0,-0.61417 -0.12795,-0.94173 -0.49579,-0.94173c-0.63973,0 -0.94361,1.20788 -1.18352,2.41576c-0.09597,0.47087 -0.11195,0.49134 -0.2399,0.49134c-0.11195,0 -0.17593,-0.10237 -0.17593,-0.18426c0,-0.08189 0.22392,-1.33072 0.51179,-2.06773c0.30387,-0.77796 0.67171,-1.06457 1.13553,-1.06457c0.70371,0 1.35944,0.63465 1.40742,1.80158c0.28787,-0.51182 1.03958,-1.80158 2.46298,-1.80158c1.1995,0 1.72728,0.88031 1.77526,1.98584c0.63974,-1.20788 1.50339,-1.98584 2.57495,-1.98584c1.2155,0 1.77527,0.92126 1.77527,2.14962c0,1.18741 -0.7197,3.60317 -1.00758,4.58585c-0.06397,0.2252 -0.25589,0.88032 -0.25589,1.41261c0,0.65512 0.25589,0.67559 0.41584,0.67559c0.63973,0 1.2315,-0.85985 1.59934,-2.49765c0.07997,-0.34804 0.09597,-0.40945 0.2399,-0.40945c0.09597,0 0.15994,0.08188 0.15994,0.18425c0,0.12284 -0.55977,3.13231 -2.04716,3.13231c-0.76769,0 -1.26347,-0.73701 -1.26347,-1.65828c0,-0.3685 0.07997,-0.63465 0.22392,-1.12599c0.35185,-1.22835 0.9756,-3.45986 0.9756,-4.60632c0,-0.81891 -0.22392,-1.43308 -0.86364,-1.43308c-1.75927,0 -2.59093,2.55907 -2.62292,2.72285l-0.9596,4.89294c-0.14394,0.73701 -0.22392,1.20788 -0.70371,1.20788c-0.2399,0 -0.41584,-0.2252 -0.41584,-0.51182c0,-0.08189 0.09597,-0.61417 0.15994,-0.92126c0.03198,-0.2252 0.33586,-1.74017 0.46381,-2.35435l0.39983,-2.10867c0.19192,-0.96221 0.19193,-1.37166 0.19193,-1.4945c0,-0.81891 -0.22392,-1.43308 -0.86364,-1.43308c-0.62374,0 -1.16752,0.32756 -1.58334,0.8189c-0.59176,0.65512 -0.99158,1.67875 -1.02358,1.80158z"/></g></g></svg>