<svg version="1.1" xmlns="http://www.w3.org/2000/svg" xmlns:xlink="http://www.w3.org/1999/xlink" width="17.375" height="25.375" viewBox="0,0,17.375,25.375"><g transform="translate(-231.0625,-165.3125)"><g data-paper-data="{&quot;isPaintingLayer&quot;:true}" fill-rule="nonzero" stroke="none" stroke-linecap="butt" stroke-linejoin="miter" stroke-miterlimit="10" stroke-dasharray="" stroke-dashoffset="0" style="mix-blend-mode: normal"><path d="M238.99686,182.57324c-0.06142,0.24567 -0.06142,0.63465 -0.06142,0.65512c0,0.45039 0.04095,0.96221 0.65512,0.96221c1.18741,0 2.12915,-1.43308 2.55907,-2.4567c0.14331,-0.32756 0.16378,-0.34804 0.18425,-0.3685c0.04094,-0.08189 0.12284,-0.08189 0.16378,-0.08189c0.12284,0 0.20473,0.06141 0.20473,0.18425c0,0.14331 -1.10552,3.13231 -3.17325,3.13231c-1.14647,0 -1.82205,-0.88032 -1.82205,-1.84253c0,-0.26614 0.06141,-0.47087 0.22519,-1.18741l1.35119,-5.40476h-1.82206c-0.38898,0 -0.53229,0 -0.53229,-0.20473c0,-0.38898 0.18426,-0.38897 0.5937,-0.38897h1.92442l0.79843,-3.25514c0.16378,-0.65512 0.63465,-0.71654 0.79843,-0.71654c0.26614,0 0.53229,0.18425 0.53229,0.51181c0,0.14331 -0.00001,0.18426 -0.0819,0.47087l-0.75748,2.98899h1.80159c0.40945,0 0.53229,0 0.53229,0.2252c0,0.3685 -0.20472,0.3685 -0.5937,0.3685h-1.88348z" fill="#ff0000" stroke-width="1"/><path d="M231.0625,190.6875v-25.375h17.375v25.375z" fill="none" stroke-width="0"/></g></g></svg>