<svg version="1.1" xmlns="http://www.w3.org/2000/svg" xmlns:xlink="http://www.w3.org/1999/xlink" width="7.32917" height="14.41267" viewBox="0,0,7.32917,14.41267"><g transform="translate(-236.33541,-170.39367)"><g data-paper-data="{&quot;isPaintingLayer&quot;:true}" fill="#ff0000" fill-rule="nonzero" stroke="none" stroke-width="1" stroke-linecap="butt" stroke-linejoin="miter" stroke-miterlimit="10" stroke-dasharray="" stroke-dashoffset="0" style="mix-blend-mode: normal"><path d="M238.64881,176.86299c0.38898,-0.40945 1.35119,-1.28977 2.41576,-1.28977c1.53545,0 2.60002,1.33071 2.60002,3.21419c0,2.96852 -2.4567,6.01893 -4.83152,6.01893c-1.33071,0 -2.49765,-1.08505 -2.49765,-3.17325c0,-0.26614 0,-0.61417 0.10236,-1.12599c0.08189,-0.3685 1.24883,-5.01578 1.45356,-5.83468l0.49134,-1.96536c0.08189,-0.3685 0.24567,-0.96221 0.24567,-1.10552c0,-0.20472 0,-0.38898 -1.0441,-0.38898c-0.20472,0 -0.40945,0 -0.40945,-0.20472c0,-0.3685 0.14331,-0.38898 0.63465,-0.42992c0.3685,-0.02047 0.67559,-0.06142 1.02363,-0.08189c0.3685,-0.04094 1.10552,-0.10236 1.12599,-0.10236c0.04094,0 0.24567,0 0.24567,0.20472c0,0.10236 -0.04095,0.2252 -0.06142,0.30709zM241.24883,182.30869c0.51182,-1.06457 1.08505,-3.37797 1.08505,-4.36066c0,-1.06457 -0.40946,-1.96536 -1.31025,-1.96536c-1.39213,0 -2.60002,1.82206 -2.64096,1.98584c-0.08189,0.26614 -0.40945,1.57639 -0.47087,1.84253c-0.36851,1.43308 -0.42992,1.82206 -0.42992,2.49765c0,1.59686 0.71654,2.0882 1.37166,2.0882c0.94174,0 1.88347,-0.98268 2.39529,-2.0882z"/></g></g></svg>