<svg version="1.1" xmlns="http://www.w3.org/2000/svg" xmlns:xlink="http://www.w3.org/1999/xlink" width="62.07973" height="76.55017" viewBox="0,0,62.07973,76.55017"><g transform="translate(-208.96016,-148.88968)"><g data-paper-data="{&quot;isPaintingLayer&quot;:true}" fill-rule="nonzero" stroke-linejoin="miter" stroke-miterlimit="10" stroke-dasharray="" stroke-dashoffset="0" style="mix-blend-mode: normal"><path d="M271.0399,201.31723c0,5.4081 -2.62915,9.79312 -5.87022,9.79312h-50.33997c-3.24176,0 -5.86954,-4.38614 -5.86954,-9.79312v-42.63559c0,-5.4081 2.62778,-9.79196 5.86954,-9.79196h50.33929c3.24312,0 5.87022,4.38386 5.87022,9.79196v42.63559z" fill-opacity="0.21569" fill="#ffcc00" stroke="none" stroke-width="0" stroke-linecap="butt"/><text transform="translate(225.1788,222.3521) scale(0.24702,0.24702)" font-size="40" xml:space="preserve" fill="#000000" fill-rule="nonzero" stroke="none" stroke-width="1" stroke-linecap="butt" stroke-linejoin="miter" stroke-miterlimit="10" stroke-dasharray="" stroke-dashoffset="0" font-family="Sans Serif" font-weight="normal" text-anchor="start" style="mix-blend-mode: normal"><tspan x="0" dy="0">极坐标</tspan></text><path d="M240.47576,180.24034c0,0 -3.98564,-1.01509 -3.68836,-5.27381c0.52918,-7.5809 15.31936,-6.90625 14.88898,3.87834c-0.26215,6.56894 -4.34605,11.21748 -13.36991,11.33062c-11.45128,0.14358 -12.16404,-12.10181 -12.16404,-12.10181" fill="none" stroke="#ff0000" stroke-width="1" stroke-linecap="round"/><path d="M228.08333,184.82367c0.08954,-5.86365 4.1888,-8.34611 7.34667,-7.99966c2.72026,0.29844 4.56999,3.083 4.56999,3.083c0,0 1.61841,-3.52737 5.66665,-3.35056c3.92305,0.17133 6.25001,3.4856 6.25001,8.26723c0,6.58139 -5.33527,11.91667 -11.91667,11.91667c-6.58139,0 -12.01715,-5.33604 -11.91667,-11.91667z" fill="none" stroke="#0021ff" stroke-width="1" stroke-linecap="butt"/></g></g></svg>