<svg version="1.1" xmlns="http://www.w3.org/2000/svg" xmlns:xlink="http://www.w3.org/1999/xlink" width="18.5" height="51.25" viewBox="0,0,18.5,51.25"><g transform="translate(-231.87501,-150.82501)"><g data-paper-data="{&quot;isPaintingLayer&quot;:true}" fill-rule="nonzero" stroke="none" stroke-linecap="butt" stroke-linejoin="miter" stroke-miterlimit="10" stroke-dasharray="" stroke-dashoffset="0" style="mix-blend-mode: normal"><path d="M242.38505,182.89687h2.06773v0.5937h-2.06773v1.86301c0,0.75749 0.06142,0.96221 1.53544,0.96221h0.40945v0.5937c-0.47087,-0.04094 -2.10868,-0.04094 -2.68191,-0.04094c-0.57323,0 -2.19056,0 -2.66143,0.04094v-0.5937h0.40945c1.4945,0 1.53544,-0.20472 1.53544,-0.96221v-1.86301h-5.38428v-0.5937l6.16224,-9.56068c0.16378,-0.24567 0.22519,-0.24567 0.38897,-0.24567c0.28662,0 0.28662,0.10236 0.28662,0.49134zM236.05903,182.89687h4.97483v-7.71815z" fill="#ff0000" stroke-width="1"/><path d="M231.87501,202.07501v-51.25h18.5v51.25z" fill="none" stroke-width="0"/></g></g></svg>