<svg version="1.1" xmlns="http://www.w3.org/2000/svg" xmlns:xlink="http://www.w3.org/1999/xlink" width="482.66667" height="343.95252" viewBox="0,0,482.66667,343.95252"><g transform="translate(1.33334,-20.25318)"><g data-paper-data="{&quot;isPaintingLayer&quot;:true}" fill-rule="nonzero" stroke-linejoin="miter" stroke-miterlimit="10" stroke-dasharray="" stroke-dashoffset="0" style="mix-blend-mode: normal"><path d="M-1.33333,364.20571v-343.95252h482.66667v343.95252z" fill-opacity="0.88235" fill="#ffffff" stroke="none" stroke-width="0" stroke-linecap="butt"/><path d="M127.4401,316.45456v-251.66667" fill="none" stroke="#ffca00" stroke-width="2" stroke-linecap="round"/><text transform="translate(17.12705,49.34871) scale(0.4375,0.4375)" font-size="40" xml:space="preserve" fill="#000000" fill-rule="nonzero" stroke="none" stroke-width="1" stroke-linecap="butt" stroke-linejoin="miter" stroke-miterlimit="10" stroke-dasharray="" stroke-dashoffset="0" font-family="Sans Serif" font-weight="normal" text-anchor="start" style="mix-blend-mode: normal"><tspan x="0" dy="0">开始</tspan></text><text transform="translate(54.70363,135.60413) scale(0.34375,0.34375)" font-size="40" xml:space="preserve" fill="#000000" fill-rule="nonzero" stroke="none" stroke-width="1" stroke-linecap="butt" stroke-linejoin="miter" stroke-miterlimit="10" stroke-dasharray="" stroke-dashoffset="0" font-family="Sans Serif" font-weight="normal" text-anchor="start" style="mix-blend-mode: normal"><tspan x="0" dy="0">导入算式</tspan></text><text transform="translate(54.70363,174.43747) scale(0.34375,0.34375)" font-size="40" xml:space="preserve" fill="#000000" fill-rule="nonzero" stroke="none" stroke-width="1" stroke-linecap="butt" stroke-linejoin="miter" stroke-miterlimit="10" stroke-dasharray="" stroke-dashoffset="0" font-family="Sans Serif" font-weight="normal" text-anchor="start" style="mix-blend-mode: normal"><tspan x="0" dy="0">保存</tspan></text><text transform="translate(54.70363,215.27081) scale(0.34375,0.34375)" font-size="40" xml:space="preserve" fill="#000000" fill-rule="nonzero" stroke="none" stroke-width="1" stroke-linecap="butt" stroke-linejoin="miter" stroke-miterlimit="10" stroke-dasharray="" stroke-dashoffset="0" font-family="Sans Serif" font-weight="normal" text-anchor="start" style="mix-blend-mode: normal"><tspan x="0" dy="0">加载存档</tspan></text><text transform="translate(54.70363,255.43748) scale(0.34375,0.34375)" font-size="40" xml:space="preserve" fill="#000000" fill-rule="nonzero" stroke="none" stroke-width="1" stroke-linecap="butt" stroke-linejoin="miter" stroke-miterlimit="10" stroke-dasharray="" stroke-dashoffset="0" font-family="Sans Serif" font-weight="normal" text-anchor="start" style="mix-blend-mode: normal"><tspan x="0" dy="0">其他</tspan></text><text transform="translate(54.53245,94.41194) scale(0.34375,0.34375)" font-size="40" xml:space="preserve" fill="#000000" fill-rule="nonzero" stroke="none" stroke-width="1" stroke-linecap="butt" stroke-linejoin="miter" stroke-miterlimit="10" stroke-dasharray="" stroke-dashoffset="0" font-family="Sans Serif" font-weight="normal" text-anchor="start" style="mix-blend-mode: normal"><tspan x="0" dy="0">坐标系</tspan></text><g fill="none" stroke="#c19b00" stroke-width="0.5" stroke-linecap="round"><path d="M45.71464,87.84243l2.16027,2.16027h-16.6"/><path d="M37.24408,82.55543l2.38767,-2.38767v20.23836"/></g><g fill="none" stroke="#c19b00" stroke-width="0.5" stroke-linecap="round"><path d="M49.80992,132.33334v8h-18.66666v-8.33334"/><g><path d="M45.80993,121.66667l-5,12.33334l-3,-1.33334l5,-12.33333z"/><path d="M40.80993,134.33334l-3.33333,3.33333l0.33333,-5"/></g></g><g fill="none" stroke="#c19b00" stroke-width="0.5" stroke-linecap="round"><path d="M31.4766,161.33334h17.33333v18.66666h-14l-3.5,-3.5z"/><path d="M44.89326,161.66667v8.33334h-9.66667v-8.33334"/><path d="M42.47659,180v-3.33334h3v2.66667"/></g><g fill="none" stroke="#c19b00" stroke-width="0.5" stroke-linecap="round"><path d="M49.72659,201.66667h-19.33333"/><path d="M33.39326,208.33333l6.33333,-6.33333v18.33333"/><path d="M46.22659,208.5l-5.83333,-5.83333"/></g><g fill="none" stroke="#c19b00" stroke-width="0.5"><path d="M33.51882,245.05564c1.79129,-1.88235 4.32085,-3.05564 7.12444,-3.05564c5.4308,0 9.83333,4.40253 9.83333,9.83333c0,5.4308 -4.40253,9.83333 -9.83333,9.83333c-3.19179,0 -6.02839,-1.5207 -7.82483,-3.87709h4.99149" stroke-linecap="butt"/><path d="M32.80992,257.66667v5.33333" stroke-linecap="round"/></g></g></g></svg>