<svg version="1.1" xmlns="http://www.w3.org/2000/svg" xmlns:xlink="http://www.w3.org/1999/xlink" width="32.38359" height="32.76221" viewBox="0,0,32.38359,32.76221"><g transform="translate(-223.80823,-163.61891)"><g data-paper-data="{&quot;isPaintingLayer&quot;:true}" fill-rule="nonzero" stroke-linecap="butt" stroke-linejoin="miter" stroke-miterlimit="10" stroke-dasharray="" stroke-dashoffset="0" style="mix-blend-mode: normal"><g fill="#cccccc" stroke="#000000" stroke-width="0"><path d="M223.87136,186.22218v-13.12651h32.32046l-0.14426,13.27071z" data-paper-data="{&quot;origPos&quot;:null}"/><g><path d="M237.06095,186.90589c0,-5.22808 4.23817,-9.46625 9.46625,-9.46625c5.22808,0 9.4662,4.23823 9.4662,9.46625c0,5.22808 -4.23817,9.4662 -9.4662,9.4662c-5.22808,0 -9.46625,-4.23818 -9.46625,-9.4662z" data-paper-data="{&quot;origPos&quot;:null}"/><path d="M223.80823,173.14829c0,-5.22808 4.23817,-9.46625 9.4662,-9.46625c5.22808,0 9.46626,4.23823 9.46626,9.46625c0,5.22808 -4.23818,9.4662 -9.46626,9.4662c-5.22808,0 -9.4662,-4.23818 -9.4662,-9.4662z" data-paper-data="{&quot;origPos&quot;:null}"/><path d="M223.80823,186.90589c0,-5.22808 4.23817,-9.46625 9.4662,-9.46625c5.22808,0 9.46626,4.23823 9.46626,9.46625c0,5.22808 -4.23818,9.4662 -9.46626,9.4662c-5.22808,0 -9.4662,-4.23818 -9.4662,-9.4662z" data-paper-data="{&quot;origPos&quot;:null}"/><path d="M237.25029,173.08516c0,-5.22808 4.23818,-9.46625 9.46626,-9.46625c5.22808,0 9.46626,4.23817 9.46626,9.46625c0,5.22808 -4.23818,9.4662 -9.46626,9.4662c-5.22808,0 -9.46626,-4.23818 -9.46626,-9.4662z" data-paper-data="{&quot;origPos&quot;:null}"/><path d="M233.58398,196.38112l-0.03606,-32.69914l13.63139,-0.03605v32.69908z" data-paper-data="{&quot;origPos&quot;:null}"/></g></g><path d="M244.12296,174.42593c-1.24773,0 -2.16995,1.19347 -2.57682,2.82093l-0.94936,3.68893c-0.43399,1.79021 -0.54249,2.2242 -0.54249,2.82093c0,1.1121 0.51537,1.81734 1.46472,1.81734c1.22061,0 2.79381,-1.11211 3.52617,-3.49905c0.08138,-0.21699 0.1085,-0.35261 0.35261,-0.35261c0.16275,0 0.27125,0.10848 0.27125,0.24412c0,0.59673 -1.46472,4.15005 -4.23143,4.15005c-1.00361,0 -2.35982,-0.5425 -2.79381,-2.14283c-0.56961,1.1121 -1.49184,2.14283 -2.79383,2.14283c-1.16635,0 -2.4412,-0.51537 -2.4412,-1.6546c0,-0.86798 0.70524,-1.4376 1.35622,-1.4376c0.51537,0 0.92223,0.32551 0.92223,0.86798c0,0.32549 -0.21699,1.13922 -1.19347,1.32909c0.56961,0.35261 1.24771,0.35261 1.38335,0.35261c1.4376,0 2.2242,-1.49184 2.63107,-3.1193l0.92223,-3.71605c0.32549,-1.30198 0.48823,-1.92583 0.48823,-2.52257c0,-0.65098 -0.24413,-1.79021 -1.46472,-1.79021c-0.7866,0 -2.60394,0.56961 -3.52617,3.58043c-0.05424,0.1085 -0.1085,0.27125 -0.32549,0.27125c-0.18987,0 -0.29836,-0.13563 -0.29836,-0.24413c0,-0.59673 1.46472,-4.15004 4.23141,-4.15004c0.48824,0 2.16996,0.1085 2.79383,2.14283c0.24412,-0.51537 1.16635,-2.14283 2.82093,-2.14283c1.13923,0 2.4412,0.51537 2.4412,1.6546c0,0.73236 -0.56962,1.43759 -1.38335,1.43759c-0.37973,0 -0.8951,-0.21699 -0.8951,-0.86798c0,-0.51537 0.32549,-1.16635 1.19348,-1.3291c-0.56962,-0.35261 -1.3291,-0.35261 -1.38336,-0.35261z" fill="#000000" stroke="none" stroke-width="1"/></g></g></svg>