<svg version="1.1" xmlns="http://www.w3.org/2000/svg" xmlns:xlink="http://www.w3.org/1999/xlink" width="20" height="29.16666" viewBox="0,0,20,29.16666"><g transform="translate(-230.5,-165.83334)"><g data-paper-data="{&quot;isPaintingLayer&quot;:true}" fill-rule="nonzero" stroke-linecap="butt" stroke-linejoin="miter" stroke-miterlimit="10" stroke-dasharray="" stroke-dashoffset="0" style="mix-blend-mode: normal"><path d="M238.66666,165.83334z" fill="none" stroke-opacity="0.57255" stroke="#000000" stroke-width="1"/><path d="M230.5,195v-24.66667h20v24.66667z" fill="none" stroke="none" stroke-width="0"/><path d="M241.44332,183.80946l-0.02047,-0.02048c-0.71654,0.75749 -1.45355,0.94174 -2.04726,0.94174c-1.02363,0 -2.41576,-0.4504 -2.41576,-2.39529c0,-0.49134 0,-1.16694 1.00315,-3.84884c0.30709,-0.77795 0.53229,-1.37166 0.53229,-1.90394c0,-0.67559 -0.34804,-0.6756 -0.53229,-0.6756c-0.79843,0 -1.57639,0.8189 -2.06773,2.5386c-0.08189,0.28662 -0.10236,0.36851 -0.28662,0.36851c-0.14331,0 -0.22519,-0.10237 -0.22519,-0.18426c0,-0.16378 0.75748,-3.1323 2.64096,-3.1323c1.00315,0 1.61733,0.77795 1.61733,1.6378c0,0.40945 -0.12283,0.69607 -0.34803,1.28977c-0.55276,1.47403 -1.10552,3.05042 -1.10552,4.21735c0,0.55276 0.10236,1.67874 1.24883,1.67874c0.98269,0 1.65828,-0.69607 2.06773,-1.26929c0.16378,-0.2252 0.16377,-0.26614 0.26614,-0.63465l1.51497,-6.01893c0.16378,-0.61417 0.5937,-0.69607 0.77796,-0.69607c0.30709,0 0.55276,0.20472 0.55276,0.51181c0,0.12284 -0.04095,0.24567 -0.06142,0.34804l-2.00631,7.9843c-0.57323,2.27246 -2.64096,4.15593 -4.68821,4.15593c-1.16693,0 -2.04726,-0.71654 -2.04726,-1.76064c0,-1.00315 0.71654,-1.24883 1.0441,-1.24883c0.30709,0 0.69607,0.16378 0.69607,0.63465c0,0.47087 -0.40946,1.00315 -1.02363,1.00315c-0.04094,0 -0.1433,0 -0.20472,-0.02047c0.30709,0.94174 1.28978,0.98268 1.53545,0.98268c1.00315,0 1.80158,-0.69607 2.35434,-1.47402c0.71654,-1.00315 0.92127,-1.80159 1.22835,-3.00947z" fill-opacity="0.74118" fill="#505050" stroke="none" stroke-width="1"/></g></g></svg>