<svg version="1.1" xmlns="http://www.w3.org/2000/svg" xmlns:xlink="http://www.w3.org/1999/xlink" width="9.19218" height="13.20479" viewBox="0,0,9.19218,13.20479"><g transform="translate(-235.40391,-175.69762)"><g data-paper-data="{&quot;isPaintingLayer&quot;:true}" fill="#ff0000" fill-rule="nonzero" stroke="none" stroke-width="1" stroke-linecap="butt" stroke-linejoin="miter" stroke-miterlimit="10" stroke-dasharray="" stroke-dashoffset="0" style="mix-blend-mode: normal"><path d="M242.91734,178.19526l0.06141,-0.28661c0,-0.12284 -0.26614,-1.80159 -1.61733,-1.80159c-0.85985,0 -1.78111,0.8189 -2.37482,1.96536c-0.45039,0.92127 -1.06457,3.2142 -1.06457,4.29924c0,1.41261 0.63465,1.94489 1.31024,1.94489c0.63465,0 1.4945,-0.38897 2.33388,-1.47402c0.26614,-0.30709 0.30709,-0.38898 0.38898,-0.71654zM244.0638,176.08658c0.30709,0 0.53229,0.2252 0.53229,0.51182c0,0.04094 0,0.08189 -0.06142,0.32756l-2.27246,9.17171c-0.26614,1.10552 -1.6378,2.80474 -4.27876,2.80474c-1.74016,0 -2.57954,-0.32756 -2.57954,-1.16693c0,-0.67559 0.53229,-1.08505 1.02363,-1.08505c0.45039,0 0.69607,0.32756 0.69607,0.65512c0,0.2252 -0.16378,0.79844 -0.81891,0.98269c0.51182,0.16378 1.02363,0.20472 1.63781,0.20472c0.45039,0 1.22836,0 2.06773,-0.83937c0.73701,-0.71654 0.85985,-1.22835 1.14646,-2.35434l0.4504,-1.84253c-0.3685,0.40945 -1.33071,1.2693 -2.41576,1.2693c-1.31025,0 -2.60001,-1.04411 -2.60001,-3.17325c0,-3.05041 2.53859,-5.85515 4.7701,-5.85515c1.02363,0 1.59686,0.75748 1.86301,1.35118c0.06142,-0.55276 0.34803,-0.96221 0.83937,-0.96221z"/></g></g></svg>