<svg version="1.1" xmlns="http://www.w3.org/2000/svg" xmlns:xlink="http://www.w3.org/1999/xlink" width="9.54021" height="14.41267" viewBox="0,0,9.54021,14.41267"><g transform="translate(-235.22989,-169.99367)"><g data-paper-data="{&quot;isPaintingLayer&quot;:true}" fill="#ff0000" fill-rule="nonzero" stroke="none" stroke-width="1" stroke-linecap="butt" stroke-linejoin="miter" stroke-miterlimit="10" stroke-dasharray="" stroke-dashoffset="0" style="mix-blend-mode: normal"><path d="M241.82205,181.97011c-0.14331,0.57323 -0.1433,1.00316 -0.1433,1.08505c0,0.40945 0.04094,0.94173 0.63465,0.94173c0.83937,0 1.22835,-1.28977 1.53544,-2.49765c0.08189,-0.30709 0.10236,-0.40945 0.28662,-0.40945c0.12284,0 0.20472,0.08188 0.20472,0.18425c0,0.08189 -0.28661,1.33071 -0.61417,2.02678c-0.3685,0.73701 -0.85985,1.10552 -1.47403,1.10552c-0.61417,0 -1.57639,-0.34804 -1.78111,-1.55591c-0.57323,0.67559 -1.53544,1.55591 -2.66143,1.55591c-1.39213,0 -2.57954,-1.18741 -2.57954,-3.21419c0,-3.02994 2.49765,-6.01893 4.81105,-6.01893c1.06457,0 1.61734,0.8189 1.84253,1.35118l1.24883,-4.97483c0.02047,-0.06142 0.06141,-0.2252 0.06141,-0.34803c0,-0.20472 -0.02047,-0.38898 -1.02362,-0.38898c-0.28662,0 -0.4504,0 -0.4504,-0.20472c0,-0.3685 0.1433,-0.38898 0.65512,-0.42992c0.3685,-0.02047 0.67559,-0.06142 1.02363,-0.08189c0.10236,-0.02047 1.10552,-0.10236 1.12599,-0.10236c0.04094,0 0.24567,0 0.24567,0.20472c0,0.10236 -0.04094,0.2252 -0.06141,0.30709zM241.57638,177.75276c0.02047,-0.04094 0.08189,-0.30709 0.08189,-0.32756c0,-0.16378 -0.26614,-1.84253 -1.61733,-1.84253c-0.79843,0 -1.76064,0.73701 -2.4567,2.17009c-0.38898,0.85985 -1.02363,3.15277 -1.02363,4.27876c0,1.20788 0.47087,1.96536 1.31025,1.96536c0.96221,0 1.863,-0.88032 2.3134,-1.45355c0.28662,-0.38898 0.28662,-0.42992 0.38898,-0.77795z"/></g></g></svg>