<svg version="1.1" xmlns="http://www.w3.org/2000/svg" xmlns:xlink="http://www.w3.org/1999/xlink" width="39.8" height="39.8456" viewBox="0,0,39.8,39.8456"><g transform="translate(-220.1,-160.0544)"><g data-paper-data="{&quot;isPaintingLayer&quot;:true}" fill-rule="nonzero" stroke-linejoin="miter" stroke-miterlimit="10" stroke-dasharray="" stroke-dashoffset="0" style="mix-blend-mode: normal"><path d="M220.1,199.9v-39.8h39.8v39.8z" fill-opacity="0.12941" fill="#ffcc00" stroke="none" stroke-width="0" stroke-linecap="butt"/><text transform="translate(231.07869,195.59711) scale(0.2225,0.2225)" font-size="40" xml:space="preserve" fill="#000000" fill-rule="nonzero" stroke="none" stroke-width="1" stroke-linecap="butt" stroke-linejoin="miter" stroke-miterlimit="10" stroke-dasharray="" stroke-dashoffset="0" font-family="Sans Serif" font-weight="normal" text-anchor="start" style="mix-blend-mode: normal"><tspan x="0" dy="0">求解</tspan></text><path d="M225.19212,180.86932l30.375,-13.375" fill="none" stroke="#000000" stroke-width="0.5" stroke-linecap="round"/><path d="M225.60369,179.59546c0,-1.38071 1.11929,-2.5 2.5,-2.5c1.38071,0 2.5,1.11929 2.5,2.5c0,1.38071 -1.11929,2.5 -2.5,2.5c-1.38071,0 -2.5,-1.11929 -2.5,-2.5z" fill="#ffca00" stroke="none" stroke-width="0.5" stroke-linecap="butt"/><path d="M249.10369,169.09546c0,-1.38071 1.11929,-2.5 2.5,-2.5c1.38071,0 2.5,1.11929 2.5,2.5c0,1.38071 -1.11929,2.5 -2.5,2.5c-1.38071,0 -2.5,-1.11929 -2.5,-2.5z" fill="#ffca00" stroke="none" stroke-width="0.5" stroke-linecap="butt"/><path d="M238.56712,184.86932l-9.25,-22.5" fill="none" stroke="#000000" stroke-width="0.5" stroke-linecap="round"/><text transform="translate(232.20369,166.20171) scale(0.14221,0.14221)" font-size="40" xml:space="preserve" fill="#ffca00" fill-rule="nonzero" stroke="none" stroke-width="1" stroke-linecap="butt" stroke-linejoin="miter" stroke-miterlimit="10" stroke-dasharray="" stroke-dashoffset="0" font-family="Sans Serif" font-weight="normal" text-anchor="start" style="mix-blend-mode: normal"><tspan x="0" dy="0">t=0</tspan></text></g></g></svg>