<svg version="1.1" xmlns="http://www.w3.org/2000/svg" xmlns:xlink="http://www.w3.org/1999/xlink" width="8.16855" height="9.23314" viewBox="0,0,8.16855,9.23314"><g transform="translate(-235.91572,-178.60565)"><g data-paper-data="{&quot;isPaintingLayer&quot;:true}" fill="#ff0000" fill-rule="nonzero" stroke="none" stroke-width="1" stroke-linecap="butt" stroke-linejoin="miter" stroke-miterlimit="10" stroke-dasharray="" stroke-dashoffset="0" style="mix-blend-mode: normal"><path d="M242.40552,179.01511c-0.83937,0 -1.37166,0.47087 -1.61733,0.69607c-0.51182,0.45039 -1.06457,1.45356 -1.12599,1.63781c-0.06142,0.26614 -0.14331,0.5937 -0.2252,0.88032c-0.10236,0.45039 -0.2252,0.88033 -0.32756,1.33072c-0.12284,0.47087 -0.88032,3.56222 -0.94174,3.726c-0.12284,0.40945 -0.51181,0.55276 -0.73701,0.55276c-0.30709,0 -0.53229,-0.2252 -0.53229,-0.51182c0,-0.10236 0.2252,-1.06457 0.36851,-1.59686c0.10236,-0.3685 0.32756,-1.28977 0.40945,-1.67875l0.57323,-2.21104c0.14331,-0.63465 0.34804,-1.43308 0.34804,-1.88348c0,-0.5937 -0.14331,-0.94173 -0.63465,-0.94173c-0.8189,0 -1.20788,1.18741 -1.51497,2.41576c-0.12284,0.47087 -0.14331,0.49134 -0.30709,0.49134c-0.14331,0 -0.22519,-0.10237 -0.22519,-0.18426c0,-0.10236 0.30709,-1.33072 0.65512,-2.06773c0.24567,-0.45039 0.65512,-1.06457 1.45355,-1.06457c0.81891,0 1.6378,0.53229 1.78111,1.61733c0.85985,-1.24883 1.80159,-1.61733 2.62049,-1.61733c1.02363,0 1.65828,0.57323 1.65828,1.22835c0,0.61417 -0.47087,1.10552 -1.0441,1.10552c-0.28662,0 -0.67559,-0.16378 -0.67559,-0.65512c0,-0.45039 0.32756,-0.90079 0.96221,-1.02363c-0.26614,-0.18425 -0.5937,-0.24567 -0.92127,-0.24567z"/></g></g></svg>