<svg version="1.1" xmlns="http://www.w3.org/2000/svg" xmlns:xlink="http://www.w3.org/1999/xlink" width="9.92941" height="10.48105" viewBox="0,0,9.92941,10.48105"><g transform="translate(-234.71716,-174.71407)"><g data-paper-data="{&quot;isPaintingLayer&quot;:true}" fill-rule="nonzero" stroke-linejoin="miter" stroke-miterlimit="10" stroke-dasharray="" stroke-dashoffset="0" style="mix-blend-mode: normal"><path d="M234.71717,185.19512v-10.48105h9.92941v10.48105z" fill-opacity="0.01569" fill="#ffffff" stroke="none" stroke-width="0" stroke-linecap="butt"/><path d="" fill="none" stroke="#463926" stroke-width="0.5" stroke-linecap="round"/><path d="M243.07438,180.17433c0,1.35561 -0.51019,2.69237 -2.09091,2.74331c-1.41056,0.04546 -1.39091,-1.72652 -1.97407,-2.29612c-0.56387,-0.55076 -1.00418,0.62553 -1.19705,0.6143c-0.65429,-0.0381 -0.67535,-1.78271 -0.05149,-2.66672c0.49668,-0.70379 1.63122,-1.14344 2.33224,-1.14344c1.58155,0 2.98128,1.39305 2.98128,2.74866z" fill="none" stroke="#463926" stroke-width="0.5" stroke-linecap="butt"/><path d="M239.70263,178.58406c0,-0.13807 0.11193,-0.25 0.25,-0.25c0.13807,0 0.25,0.11193 0.25,0.25c0,0.13807 -0.11193,0.25 -0.25,0.25c-0.13807,0 -0.25,-0.11193 -0.25,-0.25z" fill="#463926" stroke="none" stroke-width="0.5" stroke-linecap="butt"/><path d="M240.69336,178.69572c0,-0.13807 0.11193,-0.25 0.25,-0.25c0.13807,0 0.25,0.11193 0.25,0.25c0,0.13807 -0.11193,0.25 -0.25,0.25c-0.13807,0 -0.25,-0.11193 -0.25,-0.25z" fill="#463926" stroke="none" stroke-width="0.5" stroke-linecap="butt"/><path d="M241.57572,179.34278c0,-0.13807 0.11193,-0.25 0.25,-0.25c0.13807,0 0.25,0.11193 0.25,0.25c0,0.13807 -0.11193,0.25 -0.25,0.25c-0.13807,0 -0.25,-0.11193 -0.25,-0.25z" fill="#463926" stroke="none" stroke-width="0.5" stroke-linecap="butt"/><path d="M241.84042,180.31337c0,-0.13807 0.11193,-0.25 0.25,-0.25c0.13807,0 0.25,0.11193 0.25,0.25c0,0.13807 -0.11193,0.25 -0.25,0.25c-0.13807,0 -0.25,-0.11193 -0.25,-0.25z" fill="#463926" stroke="none" stroke-width="0.5" stroke-linecap="butt"/><path d="M241.54631,181.28395c0,-0.13807 0.11193,-0.25 0.25,-0.25c0.13807,0 0.25,0.11193 0.25,0.25c0,0.13807 -0.11193,0.25 -0.25,0.25c-0.13807,0 -0.25,-0.11193 -0.25,-0.25z" fill="#463926" stroke="none" stroke-width="0.5" stroke-linecap="butt"/></g></g></svg>