<svg version="1.1" xmlns="http://www.w3.org/2000/svg" xmlns:xlink="http://www.w3.org/1999/xlink" width="9.1875" height="21.4375" viewBox="0,0,9.1875,21.4375"><g transform="translate(-235.65625,-169.75)"><g data-paper-data="{&quot;isPaintingLayer&quot;:true}" fill-rule="nonzero" stroke="none" stroke-width="0" stroke-linejoin="miter" stroke-miterlimit="10" stroke-dasharray="" stroke-dashoffset="0" style="mix-blend-mode: normal"><g fill="#ff0000"><path d="M241.03536,174.69465c-0.04147,1.08659 -1.17325,10.14307 -1.17325,10.14307c0,0 -0.79272,-8.63416 -0.88244,-10.10797c-0.04046,-0.66466 0.32007,-1.18663 1.00231,-1.18882c0.90118,-0.00289 1.07758,0.5194 1.05337,1.15372z" stroke-linecap="round"/><path d="M238.96256,187.03916c0,-0.4824 0.39106,-0.87346 0.87346,-0.87346c0.4824,0 0.87346,0.39106 0.87346,0.87346c0,0.4824 -0.39106,0.87346 -0.87346,0.87346c-0.4824,0 -0.87346,-0.39106 -0.87346,-0.87346z" stroke-linecap="butt"/></g><path d="M235.65625,191.1875v-21.4375h9.1875v21.4375z" fill="none" stroke-linecap="butt"/></g></g></svg>