<svg version="1.1" xmlns="http://www.w3.org/2000/svg" xmlns:xlink="http://www.w3.org/1999/xlink" width="492.01201" height="2590.31536" viewBox="0,0,492.01201,2590.31536"><defs><linearGradient x1="46.29216" y1="-618.26996" x2="92.91501" y2="-618.26996" gradientUnits="userSpaceOnUse" id="color-1"><stop offset="0" stop-color="#0038ff"/><stop offset="1" stop-color="#00ff5b"/></linearGradient><linearGradient x1="272.03479" y1="-617.86698" x2="285.89993" y2="-617.86698" gradientUnits="userSpaceOnUse" id="color-2"><stop offset="0" stop-color="#ff0000"/><stop offset="1" stop-color="#ffad00"/></linearGradient><linearGradient x1="288.87343" y1="-627.83966" x2="292.95822" y2="-627.83966" gradientUnits="userSpaceOnUse" id="color-3"><stop offset="0" stop-color="#ff0000"/><stop offset="1" stop-color="#ffad00"/></linearGradient><linearGradient x1="294.76203" y1="-622.60774" x2="304.01133" y2="-622.60774" gradientUnits="userSpaceOnUse" id="color-4"><stop offset="0" stop-color="#ff0000"/><stop offset="1" stop-color="#ffad00"/></linearGradient><linearGradient x1="306.94203" y1="-622.31316" x2="315.90747" y2="-622.31316" gradientUnits="userSpaceOnUse" id="color-5"><stop offset="0" stop-color="#ff0000"/><stop offset="1" stop-color="#ffad00"/></linearGradient><linearGradient x1="318.42204" y1="-636.04884" x2="330.08162" y2="-636.04884" gradientUnits="userSpaceOnUse" id="color-6"><stop offset="0" stop-color="#ff0000"/><stop offset="1" stop-color="#ffad00"/></linearGradient><linearGradient x1="323.46137" y1="-636.04882" x2="325.0422" y2="-636.04882" gradientUnits="userSpaceOnUse" id="color-7"><stop offset="0" stop-color="#ff0000"/><stop offset="1" stop-color="#ffad00"/></linearGradient><linearGradient x1="142.91073" y1="-588.2899" x2="156.06509" y2="-588.2899" gradientUnits="userSpaceOnUse" id="color-8"><stop offset="0" stop-color="#009eff"/><stop offset="1" stop-color="#bd00ff"/></linearGradient><linearGradient x1="111.417" y1="-475.49385" x2="182.41699" y2="-475.49385" gradientUnits="userSpaceOnUse" id="color-9"><stop offset="0" stop-color="#ffca00"/><stop offset="1" stop-color="#39ff00"/></linearGradient><linearGradient x1="291.41695" y1="-475.1605" x2="362.41702" y2="-475.1605" gradientUnits="userSpaceOnUse" id="color-10"><stop offset="0" stop-color="#ffca00"/><stop offset="1" stop-color="#39ff00"/></linearGradient></defs><g transform="translate(6.006,709.77044)"><g data-paper-data="{&quot;isPaintingLayer&quot;:true}" fill-rule="nonzero" stroke-linejoin="miter" stroke-miterlimit="10" stroke-dasharray="" stroke-dashoffset="0" style="mix-blend-mode: normal"><path d="M-6.00599,1880.54493v-2590.31536h492.01201v2590.31536z" fill="#fffded" stroke="none" stroke-width="0" stroke-linecap="butt"/><g><g fill="#ffca00" stroke="none" stroke-width="0" stroke-linecap="butt"><path d="M18.99867,-589.08991v-55.85911h101.77076v55.85911z"/><path d="M42.0615,-564.60371v-107.07183h53.51369v107.07183z"/><path d="M18.99867,-647.45525c0,-13.31207 10.79156,-24.10361 24.10361,-24.10361c13.31207,0 24.10361,10.79157 24.10361,24.10361c0,13.31207 -10.79157,24.10361 -24.10361,24.10361c-13.31207,0 -24.10359,-10.79156 -24.10359,-24.10359z"/><path d="M72.63962,-647.50841c0,-13.31207 10.79156,-24.10361 24.10361,-24.10361c13.31207,0 24.10361,10.79156 24.10361,24.10361c0,13.31207 -10.79157,24.10361 -24.10361,24.10361c-13.31207,0 -24.10359,-10.79156 -24.10359,-24.10359z"/><path d="M19.00796,-588.7174c0,-13.31207 10.79156,-24.10361 24.10361,-24.10361c13.31207,0 24.10361,10.79156 24.10361,24.10361c0,13.31207 -10.79156,24.10361 -24.10361,24.10361c-13.31207,0 -24.10359,-10.79156 -24.10359,-24.10359z"/><path d="M72.53932,-588.8137c0,-13.31207 10.79156,-24.10361 24.10361,-24.10361c13.31207,0 24.10361,10.79157 24.10361,24.10361c0,13.31207 -10.79156,24.10361 -24.10361,24.10361c-13.31207,0 -24.10359,-10.79156 -24.10359,-24.10359z"/></g><g fill="none" stroke="#000000" stroke-width="0.5" stroke-linecap="round"><path d="M103.49647,-626.00863l8.26044,8.26044h-80.40181"/><path d="M68.80253,-576.99659v-83.70597l9.36185,9.36185"/></g><path d="M48.01198,-575.48798c-2.50679,0 -1.70049,-5.01079 -1.70049,-5.01079c1.722,-13.57227 7.55918,-40.81742 23.05929,-39.86676c10.42049,-0.2287 15.13766,-17.72257 16.54761,-33.3779c0,0 0.07496,-7.3003 2.89371,-7.02006c2.49447,0.24801 1.51531,7.15399 1.51531,7.15399c-2.01316,17.25613 -4.53324,36.93846 -20.95041,38.08421c-12.37869,-0.16589 -16.54278,22.95578 -18.79634,35.36618c0,0 -0.02769,4.67119 -2.53447,4.67119z" fill="url(#color-1)" stroke="none" stroke-width="0.5" stroke-linecap="butt"/></g><g fill="#000000" stroke="none" stroke-width="1" stroke-linecap="butt"><path d="M152.85789,-663.9849c-0.08203,0.32815 -0.10254,0.38968 -0.28713,0.38968c-0.06153,0 -0.22561,0 -0.22561,-0.18458c0,-0.08203 0.10254,-0.63577 0.10254,-1.16903c0,-1.94835 -0.9434,-3.17891 -2.9533,-3.17891c-1.94835,0 -3.69163,1.76379 -3.69163,3.48655c0,0.69732 0.26662,1.18953 0.61527,1.53816c0.36917,0.32815 0.55375,0.38968 1.92784,0.75884c1.88684,0.49222 2.256,0.59476 2.68669,1.02544c0.77935,0.75884 0.98444,1.51768 0.98444,2.37905c0,2.56364 -2.42006,5.12727 -5.06573,5.12727c-1.90735,0 -2.97383,-0.82036 -3.46605,-1.55869l-0.9434,1.23053c-0.2461,0.30764 -0.26664,0.32815 -0.34866,0.32815c-0.04102,0 -0.2051,0 -0.2051,-0.18458c0,-0.02051 0.08203,-0.28713 0.08203,-0.30764l1.04595,-4.20436c0.08203,-0.34865 0.10254,-0.38968 0.28713,-0.38968c0.16407,0 0.2051,0.10254 0.2051,0.18458c0,0.04102 -0.02051,0.14356 -0.02051,0.2051c-0.06153,0.2051 -0.14356,0.69732 -0.14356,1.08698c0,2.29703 1.86632,3.01483 3.54806,3.01483c2.05089,0 3.81468,-1.96888 3.81468,-3.87623c0,-0.96393 -0.41017,-1.43562 -0.49222,-1.53816c-0.43069,-0.4512 -0.69731,-0.53325 -1.74326,-0.82037c-0.61527,-0.14356 -1.82531,-0.47171 -2.05089,-0.55375c-1.00495,-0.34865 -1.92786,-1.25106 -1.92786,-2.78925c0,-2.31753 2.35855,-4.69658 4.9632,-4.69658c0.86139,0 2.21497,0.22561 2.89177,1.55869c0.02051,-0.02051 0.86139,-1.08698 0.98444,-1.23054c0.24611,-0.30763 0.26663,-0.32815 0.34865,-0.32815c0.04102,0 0.18458,0 0.18458,0.18459z"/><path d="M164.63852,-652.0691c0.90239,0 1.96888,-0.73831 2.42007,-2.03038c0.06153,-0.22561 0.10254,-0.32815 0.22561,-0.32815c0.10254,0 0.18458,0.08203 0.18458,0.2051c0,0.12305 -0.9024,3.95825 -3.34297,3.95825c-1.64072,0 -1.64072,-1.53817 -1.64072,-2.13294c0,-0.38968 0,-0.49222 0.12305,-1.72276c-0.65629,0.2051 -1.33308,0.30764 -2.03039,0.30764c-2.97383,0 -5.10675,-2.19447 -5.10675,-5.41439c0,-4.7376 4.42996,-9.45468 8.81891,-9.45468c2.87127,0 5.08625,2.07142 5.08625,5.45542c0,3.71214 -2.62516,7.44481 -6.15272,8.85992c0.10254,1.5792 0.36916,2.29702 1.41511,2.29702zM159.36766,-655.14547c0,-1.00495 0.94342,-2.11245 2.05091,-2.11245c1.35361,0 1.64072,1.23055 1.74326,2.27652c3.85571,-2.25601 4.57353,-7.34224 4.57353,-8.85992c0,-2.66618 -1.43563,-4.38895 -3.56859,-4.38895c-1.59971,0 -3.6301,1.04595 -5.14778,3.38401c-1.35361,2.07142 -1.88684,4.79912 -1.88684,6.23476c0,1.88684 0.77934,3.5891 2.39957,4.14283c-0.08203,-0.14356 -0.16407,-0.45119 -0.16407,-0.6768zM162.66966,-655.12495c0,-1.02546 -0.22558,-1.72276 -1.25105,-1.72276c-0.9229,0 -1.64072,0.94342 -1.64072,1.68175c0,0.90239 0.7178,0.90239 0.9229,0.90239c0.57425,0 1.21005,-0.12305 1.94835,-0.4512c0.02051,-0.12305 0.02051,-0.28712 0.02051,-0.41017z"/><path d="M177.30291,-660.04713c-0.18458,0.2051 -0.18459,0.24611 -0.30764,0.67681l-0.73831,2.95331c-0.10254,0.41017 -0.26664,1.06647 -0.26664,1.21005c0,0.22561 0,0.36917 1.27156,0.36917c0.34865,0 0.49222,0 0.49222,0.22561c0,0.36917 -0.2461,0.36918 -0.38968,0.36918c-0.36917,0 -0.79985,-0.04102 -1.16902,-0.04102h-2.42008c-0.38968,0 -0.82037,0.04102 -1.18954,0.04102c-0.06153,0 -0.28713,0 -0.28713,-0.2051c0,-0.38968 0.16408,-0.38968 0.51274,-0.38968c1.31258,-0.02051 1.51765,-0.12305 1.68175,-0.6768c0.06153,-0.2051 1.06647,-4.24538 1.06647,-4.30691c0,-0.06153 -0.06153,-0.28713 -0.08203,-0.34866l-2.54312,-6.82953c-0.18458,-0.47171 -0.36918,-0.65629 -1.3741,-0.65629c-0.30764,0 -0.49222,0 -0.49222,-0.2051c0,-0.38968 0.2256,-0.38968 0.36916,-0.38968c0.34865,0 0.73833,0.04103 1.1075,0.04103h2.27652c0.34865,0 0.75884,-0.04103 1.10749,-0.04103c0.12305,0 0.30764,0 0.30764,0.22561c0,0.36917 -0.22561,0.36919 -0.47171,0.36919c-0.2461,0 -1.08698,0.04102 -1.08698,0.47171c0,0.04102 0,0.08203 0.12305,0.36917l2.31754,6.23476l4.88116,-5.59898c0.41017,-0.47171 0.57425,-0.77935 0.57425,-1.00495c0,-0.12305 -0.00001,-0.43068 -0.61528,-0.47171c-0.06153,0 -0.26661,-0.02051 -0.26661,-0.2051c0,-0.38968 0.22561,-0.38968 0.36917,-0.38968c0.57425,0 1.21005,0.04102 1.80481,0.04102h0.84088c0.24611,0 0.51273,-0.04102 0.75883,-0.04102c0.04102,0 0.2461,0 0.2461,0.2051c0,0.34865 -0.18458,0.36917 -0.41018,0.38968c-0.71783,0.06153 -1.47666,0.28713 -2.37905,1.21004l-0.47173,0.47171z"/><g><path d="M206.70448,-663.26706c-0.08203,0.36917 -0.10254,0.38967 -0.32815,0.38967c-0.06153,0 -0.26662,0.00001 -0.26662,-0.18458c0,-0.28713 0.08203,-0.73833 0.08203,-1.06647c0,-1.88684 -0.86139,-3.95825 -3.28145,-3.95825c-1.80481,0 -3.71215,1.00495 -5.00422,2.48161c-1.98939,2.31754 -2.48161,5.45541 -2.48161,6.82953c0,3.54806 2.56364,4.36844 4.14283,4.36844c1.21004,0 2.83024,-0.47171 3.60961,-1.62022c0.38968,-0.61527 0.77934,-2.68669 0.77934,-2.70721c0,-0.30764 0,-0.47171 -1.62022,-0.47171h-0.51273c0,-0.02051 -0.16407,-0.02051 -0.16407,-0.22561c0,-0.36917 0.2461,-0.36916 0.43068,-0.36916c0.84087,0 1.74326,0.04102 2.60465,0.04102h1.10749c0.36917,0 0.75884,-0.04102 1.10749,-0.04102c0.06153,0 0.26662,0 0.26662,0.2051c0,0.38968 -0.2461,0.38967 -0.32815,0.38967c-1.12799,0.02051 -1.16902,0.08203 -1.3741,0.86139c-0.14356,0.61527 -0.22561,0.90239 -0.38968,1.5792l-0.32815,1.31258c-0.10254,0.36917 -0.26662,1.08698 -0.28713,1.12799c-0.02051,0 -0.04102,0.06153 -0.14356,0.06153c-0.14356,0 -0.59476,-0.55375 -0.82037,-1.33308c-1.02546,1.29207 -2.89179,1.7843 -4.36845,1.7843c-3.07637,0 -5.41439,-2.17398 -5.41439,-5.55796c0,-4.84014 4.61454,-9.31112 9.00349,-9.31112c0.30764,0 1.18954,0 2.07142,0.55375c0.79985,0.47171 1.21005,1.18953 1.31259,1.3536l1.41511,-1.70225c0.16407,-0.2051 0.24611,-0.2051 0.28713,-0.2051c0.04102,0 0.18458,0 0.18458,0.18458z"/><path d="M215.59213,-662.87743c-0.84087,0 -1.37411,0.47171 -1.62022,0.69731c-0.51273,0.4512 -1.06647,1.45615 -1.12799,1.64073c-0.06153,0.26662 -0.14356,0.59476 -0.22561,0.8819c-0.10254,0.4512 -0.2256,0.8819 -0.32815,1.33308c-0.12305,0.47171 -0.8819,3.56859 -0.9434,3.73265c-0.12305,0.41017 -0.51273,0.55375 -0.73833,0.55375c-0.30764,0 -0.53324,-0.22561 -0.53324,-0.51273c0,-0.10254 0.22561,-1.06647 0.36917,-1.59971c0.10254,-0.36917 0.32815,-1.29208 0.41018,-1.68176l0.57425,-2.21498c0.14356,-0.63578 0.34865,-1.43563 0.34865,-1.88684c0,-0.59476 -0.14356,-0.94341 -0.63578,-0.94341c-0.82037,0 -1.21005,1.18954 -1.51766,2.42007c-0.12305,0.47171 -0.14356,0.49222 -0.30763,0.49222c-0.14356,0 -0.22561,-0.10254 -0.22561,-0.18458c0,-0.10254 0.30764,-1.3331 0.65629,-2.07142c0.24611,-0.4512 0.6563,-1.06647 1.45615,-1.06647c0.82036,0 1.64072,0.53325 1.78429,1.62023c0.86139,-1.25105 1.8048,-1.62023 2.62516,-1.62023c1.02546,0 1.66124,0.57428 1.66124,1.23055c0,0.61527 -0.47171,1.10749 -1.04595,1.10749c-0.28713,0 -0.6768,-0.16407 -0.6768,-0.65629c0,-0.4512 0.32814,-0.90239 0.96392,-1.02544c-0.26662,-0.18458 -0.59476,-0.2461 -0.9229,-0.2461z"/><path d="M225.32283,-660.70345c0.02051,-0.04102 0.08203,-0.30764 0.08203,-0.32815c0,-0.16407 -0.26661,-1.8458 -1.62022,-1.8458c-0.79985,0 -1.76378,0.73831 -2.4611,2.17397c-0.38968,0.86139 -1.02543,3.15839 -1.02543,4.28641c0,1.21004 0.47171,1.96888 1.31258,1.96888c0.96393,0 1.86632,-0.8819 2.31751,-1.45615c0.28713,-0.38968 0.28713,-0.43067 0.38968,-0.77934zM226.49183,-662.8979c0.30764,0 0.53324,0.22561 0.53324,0.51273c0,0.12305 -0.18458,0.86139 -0.94342,3.93773c-0.16407,0.59476 -0.26661,1.04595 -0.41017,1.55869c-0.18458,0.79985 -0.2461,1.02546 -0.2461,1.49717c0,0.41017 0.04102,0.9434 0.63578,0.9434c0.84087,0 1.23054,-1.29208 1.53816,-2.50212c0.08203,-0.30764 0.10254,-0.41017 0.28713,-0.41017c0.12305,0 0.2051,0.08203 0.2051,0.18458c0,0.08203 -0.28712,1.33309 -0.61527,2.03039c-0.36917,0.73831 -0.86139,1.10749 -1.47666,1.10749c-0.61527,0 -1.5792,-0.34866 -1.7843,-1.55869c-0.57425,0.67681 -1.53818,1.55869 -2.66618,1.55869c-1.39461,0 -2.58416,-1.18955 -2.58416,-3.21993c0,-3.03534 2.5021,-6.02967 4.81964,-6.02967c1.06647,0 1.62022,0.82036 1.8458,1.35361c0.04102,-0.2461 0.2051,-0.96393 0.86139,-0.96393z"/><path d="M231.88565,-660.86756c0.08203,-0.36917 0.14357,-0.57425 0.14357,-1.06647c0,-0.61527 -0.16407,-0.94341 -0.63578,-0.94341c-0.82036,0 -1.21005,1.21002 -1.51765,2.42007c-0.12305,0.47171 -0.14356,0.49222 -0.30764,0.49222c-0.14357,0 -0.22561,-0.10254 -0.22561,-0.18458c0,-0.08203 0.28712,-1.3331 0.65629,-2.07142c0.38968,-0.77935 0.86139,-1.06647 1.45615,-1.06647c0.82037,0 1.62022,0.53324 1.7843,1.55869c0.2256,-0.28713 1.33308,-1.55869 2.64566,-1.55869c1.53816,0 2.60466,1.3331 2.60466,3.21994c0,3.01483 -2.50209,6.02967 -4.81963,6.02967c-1.06647,0 -1.62023,-0.79985 -1.8458,-1.3741c-0.12305,0.47171 -1.04595,3.99927 -1.04595,4.24538c0,0.16407 0.06153,0.30764 1.00495,0.30764c0.34866,0 0.49222,0 0.49222,0.22561c0,0.36917 -0.2461,0.36916 -0.36917,0.36916c-0.43069,0 -1.47665,-0.04102 -1.90734,-0.04102h-0.8819c-0.26662,0 -0.55375,0.04102 -0.82037,0.04102c-0.22561,0 -0.2461,-0.16407 -0.2461,-0.20509c0,-0.38968 0.2051,-0.38968 0.4512,-0.38968c0.84088,0 0.9229,-0.16408 1.06647,-0.77935zM232.11128,-656.62213c-0.02051,0.10254 -0.06154,0.26662 -0.06154,0.32815c0,0.08203 0.22561,1.8458 1.62023,1.8458c0.94341,0 1.88683,-0.98444 2.39955,-2.09193c0.51273,-1.06647 1.08698,-3.384 1.08698,-4.36844c0,-1.06647 -0.41018,-1.96888 -1.31257,-1.96888c-0.77935,0 -1.45615,0.57425 -1.68176,0.77934c-0.32815,0.28713 -0.9024,0.8819 -1.04595,1.45615z"/><path d="M242.94894,-661.66738c0.84088,-1.06647 1.86632,-1.62022 3.03534,-1.62022c1.55869,0 2.27651,0.92291 2.27651,2.15346c0,1.18954 -0.9229,3.60961 -1.29207,4.59405c-0.08203,0.22561 -0.32815,0.8819 -0.32815,1.41512c0,0.6563 0.32814,0.6768 0.53323,0.6768c0.82037,0 1.5792,-0.86138 2.05091,-2.50212c0.10254,-0.34865 0.12305,-0.41018 0.30764,-0.41018c0.12305,0 0.2051,0.08203 0.2051,0.18458c0,0.12305 -0.71783,3.13787 -2.62516,3.13787c-0.98444,0 -1.62023,-0.73832 -1.62023,-1.66124c0,-0.36917 0.10254,-0.63577 0.28713,-1.12799c0.4512,-1.23053 1.25106,-3.46605 1.25106,-4.61453c0,-0.82036 -0.28713,-1.43563 -1.10748,-1.43563c-1.5792,0 -2.50212,1.23055 -2.89178,1.82532c-0.38968,0.59476 -0.38968,0.61527 -0.61527,1.47666c-0.10254,0.4512 -0.22561,0.8819 -0.32815,1.33308l-0.9229,3.71215c-0.10254,0.22561 -0.36917,0.49222 -0.71783,0.49222c-0.2051,0 -0.55375,-0.08205 -0.55375,-0.53324c0,-0.12305 0,-0.16407 0.08203,-0.47171l2.97383,-11.87476c0.02051,-0.06153 0.06153,-0.22561 0.06153,-0.34866c0,-0.2051 -0.02051,-0.38968 -1.02546,-0.38968c-0.28713,0 -0.4512,0 -0.4512,-0.2051c0,-0.36917 0.14356,-0.38968 0.6563,-0.43069c0.36917,-0.02051 0.67681,-0.06153 1.02546,-0.08203c0.10254,-0.02051 1.10748,-0.10254 1.12799,-0.10254c0.04102,0 0.2461,0 0.2461,0.2051c0,0.10254 -0.04101,0.22561 -0.06153,0.30764z"/><path d="M253.50399,-654.03799c-0.98444,0 -1.62022,-0.73833 -1.62022,-1.66125c0,-0.36917 0.12305,-0.69731 0.2461,-1.02546l1.43562,-3.81468c0.16407,-0.4512 0.43069,-1.12801 0.43069,-1.66125c0,-0.65629 -0.34865,-0.67681 -0.53324,-0.67681c-0.79986,0 -1.57921,0.82037 -2.07143,2.54312c-0.08203,0.28713 -0.10254,0.36917 -0.28713,0.36917c-0.14356,0 -0.22561,-0.10254 -0.22561,-0.18458c0,-0.16407 0.75884,-3.13788 2.64566,-3.13788c1.00495,0 1.62022,0.77935 1.62022,1.64072c0,0.38968 -0.14356,0.75883 -0.2051,0.92291l-1.43563,3.81468c-0.22561,0.61527 -0.47171,1.23053 -0.47171,1.7843c0,0.61527 0.28713,0.67681 0.53324,0.67681c0.67681,0 1.51766,-0.63579 2.0509,-2.50213c0.10254,-0.34865 0.12305,-0.41017 0.30763,-0.41017c0.12305,0 0.2051,0.08203 0.2051,0.18458c0,0.14356 -0.73833,3.13788 -2.62516,3.13788zM254.9396,-666.05628c-0.2461,0 -0.67681,-0.16407 -0.67681,-0.67681c0,-0.53324 0.53324,-0.98443 1.00495,-0.98443c0.4512,0 0.69732,0.36916 0.69732,0.6768c0,0.4512 -0.47171,0.98444 -1.02544,0.98444z"/><path d="M263.39002,-662.87743c-1.29208,0 -2.39956,1.10749 -2.93279,2.07142c-0.73831,1.39462 -1.08698,3.38401 -1.08698,4.1018c0,1.02546 0.4512,2.25601 1.86632,2.25601c0.77935,0 2.7277,-0.30763 4.04029,-2.05089c0.18458,-0.18458 0.2051,-0.2051 0.26664,-0.2051c0.08203,0 0.2051,0.10254 0.2051,0.22561c0,0.26662 -1.76379,2.44058 -4.55302,2.44058c-2.09193,0 -3.1994,-1.62022 -3.1994,-3.4045c0,-2.91228 2.68669,-5.8451 5.37339,-5.8451c1.41511,0 2.35854,0.75884 2.35854,1.74326c0,0.82036 -0.55375,1.23053 -1.04594,1.23053c-0.38968,0 -0.69732,-0.2461 -0.69732,-0.65629c0,-0.32815 0.22561,-0.63577 0.34866,-0.73831c0.28713,-0.2461 0.47172,-0.2461 0.86139,-0.2461c-0.41018,-0.8819 -1.53818,-0.92291 -1.80481,-0.92291z"/></g><path d="M286.03803,-663.26706c-0.08203,0.36917 -0.10255,0.38967 -0.32815,0.38967c-0.06153,0 -0.26664,0.00001 -0.26664,-0.18458c0,-0.08203 0.06154,-0.53324 0.06154,-1.06647c0,-2.09193 -1.00495,-3.95825 -3.26096,-3.95825c-1.94835,0 -3.87622,1.14852 -5.00421,2.4611c-2.31753,2.68669 -2.52262,6.25525 -2.52262,6.91156c0,2.91228 1.88684,4.3069 4.0608,4.3069c2.05089,0 4.81962,-1.53817 5.76304,-4.7376c0.04102,-0.08203 0.06153,-0.2051 0.24611,-0.2051c0.06153,0 0.22561,0 0.22561,0.18458c0,0.16407 -0.53322,2.15346 -2.31751,3.65061c-1.18954,1.00495 -2.62516,1.70225 -4.26591,1.70225c-2.99433,0 -5.39388,-2.13296 -5.39388,-5.55796c0,-4.81963 4.59402,-9.31112 9.02399,-9.31112c1.53816,0 2.66618,0.69731 3.38401,1.92786l1.41513,-1.72276c0.16407,-0.2051 0.24611,-0.2051 0.28713,-0.2051c0.04102,0 0.18458,0 0.18458,0.18459z"/><path d="M295.02826,-660.70345c0.02051,-0.04102 0.08203,-0.30764 0.08203,-0.32815c0,-0.16407 -0.26662,-1.8458 -1.62023,-1.8458c-0.79986,0 -1.76378,0.73831 -2.4611,2.17397c-0.38968,0.86139 -1.02544,3.15839 -1.02544,4.28641c0,1.21004 0.47171,1.96888 1.31257,1.96888c0.96393,0 1.86632,-0.8819 2.31753,-1.45615c0.28713,-0.38968 0.28713,-0.43067 0.38968,-0.77934zM296.1973,-662.8979c0.30764,0 0.53324,0.22561 0.53324,0.51273c0,0.12305 -0.18458,0.86139 -0.94341,3.93773c-0.16407,0.59476 -0.26664,1.04595 -0.41018,1.55869c-0.18458,0.79985 -0.2461,1.02546 -0.2461,1.49717c0,0.41017 0.04102,0.9434 0.63577,0.9434c0.84088,0 1.23055,-1.29208 1.53818,-2.50212c0.08203,-0.30764 0.10254,-0.41017 0.28713,-0.41017c0.12305,0 0.2051,0.08203 0.2051,0.18458c0,0.08203 -0.28713,1.33309 -0.61527,2.03039c-0.36917,0.73831 -0.86139,1.10749 -1.47666,1.10749c-0.61527,0 -1.5792,-0.34866 -1.7843,-1.55869c-0.57425,0.67681 -1.53816,1.55869 -2.66618,1.55869c-1.39461,0 -2.58415,-1.18955 -2.58415,-3.21993c0,-3.03534 2.50212,-6.02967 4.81963,-6.02967c1.06647,0 1.62023,0.82036 1.84581,1.35361c0.04102,-0.2461 0.20509,-0.96393 0.86139,-0.96393z"/><path d="M300.70923,-656.47856c-0.14356,0.57425 -0.14356,1.00495 -0.14356,1.08698c0,0.28713 0,0.9434 0.61527,0.9434c0.82037,0 1.18954,-1.08698 1.55869,-2.50212c0.08203,-0.30764 0.10254,-0.41017 0.28713,-0.41017c0.12305,0 0.2051,0.08203 0.2051,0.18458c0,0.08203 -0.28713,1.37411 -0.63578,2.0509c-0.32815,0.63578 -0.77935,1.08698 -1.45615,1.08698c-1.04594,0 -1.80481,-0.82037 -1.80481,-1.8458c0,-0.32815 0.04103,-0.49222 0.10255,-0.71782l2.54312,-10.1725c0.10254,-0.36917 0.10254,-0.41018 0.10254,-0.49222c0,-0.2051 0,-0.38968 -1.04594,-0.38968c-0.2051,0 -0.41018,0 -0.41018,-0.2051c0,-0.36917 0.14356,-0.38968 0.63578,-0.43069c0.36917,-0.02051 0.67681,-0.06153 1.02546,-0.08203c0.36917,-0.04102 1.10748,-0.10254 1.12799,-0.10254c0.04102,0 0.24611,0 0.24611,0.2051c0,0.10254 -0.04102,0.22561 -0.06153,0.30764z"/><path d="M311.03873,-662.87743c-1.29208,0 -2.39955,1.10749 -2.93279,2.07142c-0.73831,1.39462 -1.08698,3.38401 -1.08698,4.1018c0,1.02546 0.4512,2.25601 1.86632,2.25601c0.77935,0 2.7277,-0.30763 4.04029,-2.05089c0.18458,-0.18458 0.2051,-0.2051 0.26664,-0.2051c0.08203,0 0.2051,0.10254 0.2051,0.22561c0,0.26662 -1.76378,2.44058 -4.55302,2.44058c-2.09193,0 -3.19941,-1.62022 -3.19941,-3.4045c0,-2.91228 2.68669,-5.8451 5.3734,-5.8451c1.41511,0 2.35854,0.75884 2.35854,1.74326c0,0.82036 -0.55375,1.23053 -1.04594,1.23053c-0.38968,0 -0.69732,-0.2461 -0.69732,-0.65629c0,-0.32815 0.22561,-0.63577 0.34866,-0.73831c0.28713,-0.2461 0.47171,-0.2461 0.86139,-0.2461c-0.41018,-0.8819 -1.53818,-0.92291 -1.80481,-0.92291z"/><path d="M318.0202,-654.03799c-0.84088,0 -2.42007,-0.32815 -2.42007,-2.42008c0,-0.61527 0.10254,-1.39462 1.00495,-3.83519c0.30764,-0.77935 0.53324,-1.3741 0.53324,-1.90735c0,-0.65629 -0.32815,-0.67681 -0.53324,-0.67681c-0.77935,0 -1.5792,0.77935 -2.07142,2.54312c-0.08203,0.28713 -0.10254,0.36917 -0.28713,0.36917c-0.14356,0 -0.22561,-0.10254 -0.22561,-0.18458c0,-0.16407 0.75884,-3.13787 2.64566,-3.13787c0.98444,0 1.62022,0.75884 1.62022,1.64072c0,0.41017 -0.10254,0.6768 -0.34866,1.33308c-0.53324,1.37411 -1.1075,3.01483 -1.1075,4.18386c0,0.75884 0.20509,1.68175 1.27156,1.68175c1.49717,0 2.29701,-1.68175 2.31751,-1.68175c0.14356,-0.71783 1.25105,-5.12727 1.45615,-5.92713c0.12305,-0.51273 0.26664,-1.02546 0.86139,-1.02546c0.30764,0 0.55375,0.2051 0.55375,0.51273c0,0.06153 0,0.10254 -0.14356,0.61527l-0.84086,3.34297c-0.12305,0.57425 -0.26665,1.12799 -0.41018,1.68176c-0.2051,0.86139 -0.26661,1.06649 -0.26661,1.53817c0,0.26662 0,0.94341 0.61527,0.94341c0.82037,0 1.18953,-1.08699 1.55869,-2.50213c0.08203,-0.30764 0.10254,-0.41017 0.28713,-0.41017c0.12305,0 0.2051,0.08203 0.2051,0.18458c0,0.06153 -0.26662,1.27156 -0.61527,2.0099c-0.32815,0.69732 -0.82036,1.128 -1.47665,1.128c-0.49222,0 -1.47666,-0.2461 -1.74327,-1.39462c-0.41018,0.49222 -1.12799,1.39462 -2.44057,1.39462z"/><path d="M327.21414,-656.47856c-0.14356,0.57425 -0.14356,1.00495 -0.14356,1.08698c0,0.28713 0,0.9434 0.61527,0.9434c0.82037,0 1.18953,-1.08698 1.55869,-2.50212c0.08203,-0.30764 0.10254,-0.41017 0.28713,-0.41017c0.12305,0 0.2051,0.08203 0.2051,0.18458c0,0.08203 -0.28713,1.37411 -0.63578,2.0509c-0.32815,0.63578 -0.77934,1.08698 -1.45615,1.08698c-1.04594,0 -1.80481,-0.82037 -1.80481,-1.8458c0,-0.32815 0.04102,-0.49222 0.10254,-0.71782l2.54312,-10.1725c0.10254,-0.36917 0.10254,-0.41018 0.10254,-0.49222c0,-0.2051 0,-0.38968 -1.04597,-0.38968c-0.2051,0 -0.41017,0 -0.41017,-0.2051c0,-0.36917 0.14356,-0.38968 0.63577,-0.43069c0.36917,-0.02051 0.67681,-0.06153 1.02546,-0.08203c0.36917,-0.04102 1.10748,-0.10254 1.12799,-0.10254c0.04102,0 0.2461,0 0.2461,0.2051c0,0.10254 -0.04102,0.22561 -0.06153,0.30764z"/><path d="M338.50759,-660.70345c0.02051,-0.04102 0.08204,-0.30764 0.08204,-0.32815c0,-0.16407 -0.26662,-1.8458 -1.62023,-1.8458c-0.79985,0 -1.76378,0.73831 -2.4611,2.17397c-0.38968,0.86139 -1.02544,3.15839 -1.02544,4.28641c0,1.21004 0.47171,1.96888 1.31259,1.96888c0.96393,0 1.86633,-0.8819 2.31751,-1.45615c0.28713,-0.38968 0.28712,-0.43067 0.38968,-0.77934zM339.67662,-662.8979c0.30764,0 0.53323,0.22561 0.53323,0.51273c0,0.12305 -0.18459,0.86139 -0.9434,3.93773c-0.16408,0.59476 -0.26661,1.04595 -0.41017,1.55869c-0.18459,0.79985 -0.24611,1.02546 -0.24611,1.49717c0,0.41017 0.04102,0.9434 0.63577,0.9434c0.84088,0 1.23054,-1.29208 1.53817,-2.50212c0.08203,-0.30764 0.10254,-0.41017 0.28712,-0.41017c0.12305,0 0.2051,0.08203 0.2051,0.18458c0,0.08203 -0.28712,1.33309 -0.61527,2.03039c-0.36917,0.73831 -0.86139,1.10749 -1.47666,1.10749c-0.61527,0 -1.5792,-0.34866 -1.78429,-1.55869c-0.57425,0.67681 -1.53816,1.55869 -2.66618,1.55869c-1.39461,0 -2.58415,-1.18955 -2.58415,-3.21993c0,-3.03534 2.50209,-6.02967 4.81963,-6.02967c1.06647,0 1.62023,0.82036 1.8458,1.35361c0.04102,-0.2461 0.20509,-0.96393 0.86138,-0.96393z"/><path d="M344.3937,-656.06837c-0.06153,0.24611 -0.06154,0.63577 -0.06154,0.65629c0,0.4512 0.04102,0.96393 0.6563,0.96393c1.18953,0 2.13295,-1.43563 2.56364,-2.4611c0.14357,-0.32815 0.16407,-0.34865 0.18459,-0.36916c0.04102,-0.08203 0.12305,-0.08203 0.16407,-0.08203c0.12305,0 0.2051,0.06153 0.2051,0.18458c0,0.14356 -1.10749,3.13788 -3.17891,3.13788c-1.14852,0 -1.82532,-0.8819 -1.82532,-1.8458c0,-0.26662 0.06153,-0.47171 0.22558,-1.18954l1.35361,-5.41439h-1.82532c-0.38968,0 -0.53323,0 -0.53323,-0.2051c0,-0.38968 0.18459,-0.38967 0.59476,-0.38967h1.92786l0.79986,-3.26095c0.16407,-0.65629 0.63577,-0.7178 0.79985,-0.7178c0.26662,0 0.53324,0.18458 0.53324,0.51272c0,0.14357 0,0.18459 -0.08203,0.47173l-0.75884,2.99432h1.80481c0.41018,0 0.53324,0 0.53324,0.22561c0,0.36917 -0.2051,0.36916 -0.59476,0.36916h-1.88684z"/><path d="M353.10152,-654.03799c-1.86632,0 -3.13788,-1.45615 -3.13788,-3.40451c0,-2.89177 2.66618,-5.84509 5.37338,-5.84509c1.86632,0 3.13788,1.45614 3.13788,3.4045c0,2.89177 -2.64566,5.8451 -5.3734,5.8451zM355.89077,-656.35551c0.77934,-1.25105 1.21002,-3.44553 1.21002,-4.26591c0,-1.43563 -0.77935,-2.25601 -1.7843,-2.25601c-0.84087,0 -1.98939,0.53325 -2.91228,2.11245c-0.57425,1.02546 -1.06647,3.11737 -1.06647,4.06079c0,1.43563 0.75883,2.25601 1.7843,2.25601c0.79985,0 1.92786,-0.53323 2.76873,-1.90735z"/><path d="M365.83173,-662.87743c-0.84087,0 -1.37411,0.47171 -1.62023,0.69731c-0.51273,0.4512 -1.06647,1.45615 -1.128,1.64073c-0.06153,0.26662 -0.14356,0.59476 -0.2256,0.8819c-0.10254,0.4512 -0.22561,0.8819 -0.32815,1.33308c-0.12305,0.47171 -0.8819,3.56859 -0.94342,3.73265c-0.12305,0.41017 -0.51272,0.55375 -0.73831,0.55375c-0.30764,0 -0.53324,-0.22561 -0.53324,-0.51273c0,-0.10254 0.22561,-1.06647 0.36918,-1.59971c0.10254,-0.36917 0.32815,-1.29208 0.41017,-1.68176l0.57425,-2.21498c0.14357,-0.63578 0.34866,-1.43563 0.34866,-1.88684c0,-0.59476 -0.14356,-0.94341 -0.63578,-0.94341c-0.82037,0 -1.21005,1.18954 -1.51765,2.42007c-0.12305,0.47171 -0.14356,0.49222 -0.30764,0.49222c-0.14357,0 -0.22561,-0.10254 -0.22561,-0.18458c0,-0.10254 0.30763,-1.3331 0.65629,-2.07142c0.24611,-0.4512 0.6563,-1.06647 1.45615,-1.06647c0.82036,0 1.64072,0.53325 1.78429,1.62023c0.86139,-1.25105 1.8048,-1.62023 2.62516,-1.62023c1.02546,0 1.66125,0.57428 1.66125,1.23055c0,0.61527 -0.47172,1.10749 -1.04595,1.10749c-0.28713,0 -0.6768,-0.16407 -0.6768,-0.65629c0,-0.4512 0.32814,-0.90239 0.96392,-1.02544c-0.26662,-0.18458 -0.59476,-0.2461 -0.9229,-0.2461z"/></g><g stroke-width="1"><text transform="translate(143.11316,-617.36661) scale(0.57699,0.57699)" font-size="40" xml:space="preserve" fill="#000000" fill-rule="nonzero" stroke="none" stroke-width="1" stroke-linecap="butt" stroke-linejoin="miter" stroke-miterlimit="10" stroke-dasharray="" stroke-dashoffset="0" font-family="&quot;Microsoft YaHei&quot;, &quot;微软雅黑&quot;, STXihei, &quot;华文细黑&quot;" font-weight="normal" text-anchor="start" style="mix-blend-mode: normal"><tspan x="0" dy="0">稽何计算器</tspan></text><g fill="none" stroke-linecap="round"><g><path d="M272.03479,-606.54057c0,0 1.17455,-8.46725 2.28243,-16.54756c0.29079,-3.70694 2.94626,-6.75682 6.70932,-5.9849c2.19763,-0.13925 4.6105,2.25338 4.8272,4.66236c0.25828,2.87173 -0.46058,6.76356 -4.87275,7.37029c-3.58417,0.49287 -5.11725,-2.40118 -5.11725,-2.40118" stroke="url(#color-2)"/><path d="M290.47283,-617.18346c0,0 -1.9024,0.01522 -1.55765,-2.67803c0.50324,-3.93134 4.04296,-18.63435 4.04296,-18.63435" stroke="url(#color-3)"/><path d="M304.01133,-628.35252c-1.03488,9.05544 -2.8332,11.92101 -6.41812,11.79568c-3.27878,-0.11465 -3.44661,-3.80743 -1.8413,-12.10571" stroke="url(#color-4)"/><path d="M306.94203,-617.61024c0,0 1.87194,1.67822 4.1389,1.30822c1.07527,-0.1755 3.11335,-0.89916 3.46056,-2.31907c0.64816,-2.75073 -0.89105,-3.50145 -2.9825,-3.86128c-1.98748,-0.34197 -4.53928,-0.28722 -3.73778,-2.89295c0.46616,-1.51552 2.06548,-2.98817 4.16526,-3.0021c2.70534,-0.01797 3.92099,1.51987 3.92099,1.51987" stroke="url(#color-5)"/></g><g><path d="M330.08164,-636.04884h-11.65959" stroke="url(#color-6)"/><path d="M324.25185,-642.04056v11.98347" stroke="url(#color-7)"/></g></g></g><g><text transform="translate(161.89362,-584.72712) scale(0.31038,0.31038)" font-size="40" xml:space="preserve" fill="#000000" fill-rule="nonzero" stroke="none" stroke-width="1" stroke-linecap="butt" stroke-linejoin="miter" stroke-miterlimit="10" stroke-dasharray="" stroke-dashoffset="0" font-family="Sans Serif" font-weight="normal" text-anchor="start" style="mix-blend-mode: normal"><tspan x="0" dy="0">beta math project</tspan></text><g fill="none" stroke-linecap="round"><path d="M142.91073,-575.78988c0,0 2.5195,-15.24411 5.22561,-21.61838c1.90231,-4.48093 8.94681,-4.71769 7.80416,0.55055c-1.44101,6.64375 -8.50983,5.49198 -9.54218,5.27758c-1.24579,-0.25875 9.42035,-1.46331 7.21585,4.8385c-1.85607,5.41495 -8.56694,2.3683 -8.56694,2.3683" stroke="url(#color-8)" stroke-width="1.5"/><path d="M147.33211,-577.01417c0,0 -0.1667,-6.51673 0.14696,-6.51673c0.1667,0 2.88774,6.47221 3.17,6.2228c0.22794,-0.20143 3.64311,-6.30158 3.58113,-6.19119c-0.12223,0.21776 -0.14696,6.30839 -0.14696,6.30839" stroke="#0041ff" stroke-width="1"/></g></g><text transform="translate(25.00003,-534.5756) scale(0.35401,0.35401)" font-size="40" xml:space="preserve" fill="#ff0000" fill-rule="nonzero" stroke="none" stroke-width="1" stroke-linecap="butt" stroke-linejoin="miter" stroke-miterlimit="10" stroke-dasharray="" stroke-dashoffset="0" font-family="Sans Serif" font-weight="normal" text-anchor="start" style="mix-blend-mode: normal"><tspan x="0" dy="0">SQY版权所有，禁止使用破JB破解源码！</tspan></text><text transform="translate(25.58365,-506.93686) scale(0.34792,0.34792)" font-size="40" xml:space="preserve" fill="#ff8d00" fill-rule="nonzero" stroke-opacity="0" stroke="#000000" stroke-width="0" stroke-linecap="butt" stroke-linejoin="miter" stroke-miterlimit="10" stroke-dasharray="" stroke-dashoffset="0" font-family="Sans Serif" font-weight="normal" text-anchor="start" style="mix-blend-mode: normal"><tspan x="0" dy="0">性能对比</tspan></text><text transform="translate(44.91699,-473.13389) scale(0.23833,0.23833)" font-size="40" xml:space="preserve" fill="#ffca00" fill-rule="nonzero" stroke="none" stroke-width="1" stroke-linecap="butt" stroke-linejoin="miter" stroke-miterlimit="10" stroke-dasharray="" stroke-dashoffset="0" font-family="Sans Serif" font-weight="normal" text-anchor="start" style="mix-blend-mode: normal"><tspan x="0" dy="0">稽何计算器</tspan></text><text transform="translate(45.25032,-460.00749) scale(0.21309,0.21309)" font-size="40" xml:space="preserve" fill="#848484" fill-rule="nonzero" stroke="none" stroke-width="1" stroke-linecap="butt" stroke-linejoin="miter" stroke-miterlimit="10" stroke-dasharray="" stroke-dashoffset="0" font-family="Sans Serif" font-weight="normal" text-anchor="start" style="mix-blend-mode: normal"><tspan x="0" dy="0">Alpha Math</tspan></text><text transform="translate(35.58364,-488.59527) scale(0.28942,0.28942)" font-size="40" xml:space="preserve" fill="#0096ff" fill-rule="nonzero" stroke="none" stroke-width="1" stroke-linecap="butt" stroke-linejoin="miter" stroke-miterlimit="10" stroke-dasharray="" stroke-dashoffset="0" font-family="Sans Serif" font-weight="normal" text-anchor="start" style="mix-blend-mode: normal"><tspan x="0" dy="0">Scratch</tspan></text><path d="M182.41699,-475.49385h-71" fill="none" stroke="url(#color-9)" stroke-width="10" stroke-linecap="round"/><path d="M111.417,-462.56459h55" fill="none" stroke="#909090" stroke-width="10" stroke-linecap="round"/><path d="M18.89042,-504.69152v-14" fill="none" stroke="#ff8c00" stroke-width="2.5" stroke-linecap="round"/><text transform="translate(216.91699,-488.59527) scale(0.28942,0.28942)" font-size="40" xml:space="preserve" fill="#0096ff" fill-rule="nonzero" stroke="none" stroke-width="1" stroke-linecap="butt" stroke-linejoin="miter" stroke-miterlimit="10" stroke-dasharray="" stroke-dashoffset="0" font-family="Sans Serif" font-weight="normal" text-anchor="start" style="mix-blend-mode: normal"><tspan x="0" dy="0">Turbowarp</tspan></text><text transform="translate(44.91698,-447.34084) scale(0.21309,0.21309)" font-size="40" xml:space="preserve" fill="#848484" fill-rule="nonzero" stroke="none" stroke-width="1" stroke-linecap="butt" stroke-linejoin="miter" stroke-miterlimit="10" stroke-dasharray="" stroke-dashoffset="0" font-family="Sans Serif" font-weight="normal" text-anchor="start" style="mix-blend-mode: normal"><tspan x="0" dy="0">Origin</tspan></text><path d="M125.417,-449.8582h-14.66667" fill="none" stroke="#909090" stroke-width="10" stroke-linecap="round"/><text transform="translate(44.58365,-435.34084) scale(0.21309,0.21309)" font-size="40" xml:space="preserve" fill="#848484" fill-rule="nonzero" stroke="none" stroke-width="1" stroke-linecap="butt" stroke-linejoin="miter" stroke-miterlimit="10" stroke-dasharray="" stroke-dashoffset="0" font-family="Sans Serif" font-weight="normal" text-anchor="start" style="mix-blend-mode: normal"><tspan x="0" dy="0">图形计算器¹</tspan></text><path d="M125.41699,-437.3582h-14.66667" fill="none" stroke="#909090" stroke-width="10" stroke-linecap="round"/><text transform="translate(231.08443,-472.13389) scale(0.23833,0.23833)" font-size="40" xml:space="preserve" fill="#ffca00" fill-rule="nonzero" stroke="none" stroke-width="1" stroke-linecap="butt" stroke-linejoin="miter" stroke-miterlimit="10" stroke-dasharray="" stroke-dashoffset="0" font-family="Sans Serif" font-weight="normal" text-anchor="start" style="mix-blend-mode: normal"><tspan x="0" dy="0">稽何计算器</tspan></text><text transform="translate(231.41778,-459.00749) scale(0.21309,0.21309)" font-size="40" xml:space="preserve" fill="#848484" fill-rule="nonzero" stroke="none" stroke-width="1" stroke-linecap="butt" stroke-linejoin="miter" stroke-miterlimit="10" stroke-dasharray="" stroke-dashoffset="0" font-family="Sans Serif" font-weight="normal" text-anchor="start" style="mix-blend-mode: normal"><tspan x="0" dy="0">Alpha Math</tspan></text><text transform="translate(231.08443,-446.34084) scale(0.21309,0.21309)" font-size="40" xml:space="preserve" fill="#848484" fill-rule="nonzero" stroke="none" stroke-width="1" stroke-linecap="butt" stroke-linejoin="miter" stroke-miterlimit="10" stroke-dasharray="" stroke-dashoffset="0" font-family="Sans Serif" font-weight="normal" text-anchor="start" style="mix-blend-mode: normal"><tspan x="0" dy="0">Origin</tspan></text><text transform="translate(230.75112,-434.34084) scale(0.21309,0.21309)" font-size="40" xml:space="preserve" fill="#848484" fill-rule="nonzero" stroke="none" stroke-width="1" stroke-linecap="butt" stroke-linejoin="miter" stroke-miterlimit="10" stroke-dasharray="" stroke-dashoffset="0" font-family="Sans Serif" font-weight="normal" text-anchor="start" style="mix-blend-mode: normal"><tspan x="0" dy="0">图形计算器¹</tspan></text><path d="M366.75029,-475.1605h-75.33333" fill="none" stroke="url(#color-10)" stroke-width="10" stroke-linecap="round"/><path d="M438.25035,-462.23124h-146.83333" fill="none" stroke="#909090" stroke-width="10" stroke-linecap="round"/><path d="M322.75032,-449.72486h-32" fill="none" stroke="#909090" stroke-width="10" stroke-linecap="round"/><path d="M290.75032,-437.29153h31.66667" fill="none" stroke="#909090" stroke-width="10" stroke-linecap="round"/><text transform="translate(328.82732,-435.02005) scale(0.14487,0.14487)" font-size="40" xml:space="preserve" fill-opacity="0.4902" fill="#000000" fill-rule="nonzero" stroke="none" stroke-width="1" stroke-linecap="butt" stroke-linejoin="miter" stroke-miterlimit="10" stroke-dasharray="" stroke-dashoffset="0" font-family="Sans Serif" font-weight="normal" text-anchor="start" style="mix-blend-mode: normal"><tspan x="0" dy="0">未知</tspan></text><text transform="translate(44.58365,-422.67415) scale(0.21309,0.21309)" font-size="40" xml:space="preserve" fill="#848484" fill-rule="nonzero" stroke="none" stroke-width="1" stroke-linecap="butt" stroke-linejoin="miter" stroke-miterlimit="10" stroke-dasharray="" stroke-dashoffset="0" font-family="Sans Serif" font-weight="normal" text-anchor="start" style="mix-blend-mode: normal"><tspan x="0" dy="0">函数图像²</tspan></text><path d="M110.08364,-425.23124h44" fill="none" stroke="#909090" stroke-width="10" stroke-linecap="round"/><text transform="translate(230.25034,-422.67415) scale(0.21309,0.21309)" font-size="40" xml:space="preserve" fill="#848484" fill-rule="nonzero" stroke="none" stroke-width="1" stroke-linecap="butt" stroke-linejoin="miter" stroke-miterlimit="10" stroke-dasharray="" stroke-dashoffset="0" font-family="Sans Serif" font-weight="normal" text-anchor="start" style="mix-blend-mode: normal"><tspan x="0" dy="0">函数图像²</tspan></text><path d="M290.41695,-425.23124h75.2" fill="none" stroke="#909090" stroke-width="10" stroke-linecap="round"/><path d="M18.89042,-408.44152v14" fill="none" stroke="#ff8c00" stroke-width="2.5" stroke-linecap="round"/><text transform="translate(42.26995,-365.27596) scale(0.22576,0.22576)" font-size="40" xml:space="preserve" fill="#0084ff" fill-rule="nonzero" stroke="none" stroke-width="1" stroke-linecap="butt" stroke-linejoin="miter" stroke-miterlimit="10" stroke-dasharray="" stroke-dashoffset="0" font-family="Sans Serif" font-weight="normal" text-anchor="start" style="mix-blend-mode: normal"><tspan x="0" dy="0">sin,cos,tan,asin,acos,atan,</tspan><tspan x="0" dy="46.15px">csc,sec,cot,acsc,asec,acot,</tspan><tspan x="0" dy="46.15px">sinh,cosh,tanh,asinh,acosh,atanh, </tspan><tspan x="0" dy="46.15px">csch,sech,coth,acsch,asech,acoth, </tspan><tspan x="0" dy="46.15px">abs,floor,ceil, gamma,ln,log,arg,</tspan><tspan x="0" dy="46.15px">Re,Im,erf,erfc,sgn,psi,round,li（复变模式下） </tspan><tspan x="0" dy="46.15px">sqrt,cbrt</tspan></text><text transform="translate(28.13679,-397.43684) scale(0.34792,0.34792)" font-size="40" xml:space="preserve" fill="#ff8d00" fill-rule="nonzero" stroke-opacity="0" stroke="#000000" stroke-width="0" stroke-linecap="butt" stroke-linejoin="miter" stroke-miterlimit="10" stroke-dasharray="" stroke-dashoffset="0" font-family="Sans Serif" font-weight="normal" text-anchor="start" style="mix-blend-mode: normal"><tspan x="0" dy="0">计算引擎</tspan></text><text transform="translate(37.33268,-379.09525) scale(0.28942,0.28942)" font-size="40" xml:space="preserve" fill="#0084ff" fill-rule="nonzero" stroke="none" stroke-width="1" stroke-linecap="butt" stroke-linejoin="miter" stroke-miterlimit="10" stroke-dasharray="" stroke-dashoffset="0" font-family="Sans Serif" font-weight="normal" text-anchor="start" style="mix-blend-mode: normal"><tspan x="0" dy="0">支持的函数</tspan></text><text transform="translate(218.09203,-379.09525) scale(0.28942,0.28942)" font-size="40" xml:space="preserve" fill="#0084ff" fill-rule="nonzero" stroke="none" stroke-width="1" stroke-linecap="butt" stroke-linejoin="miter" stroke-miterlimit="10" stroke-dasharray="" stroke-dashoffset="0" font-family="Sans Serif" font-weight="normal" text-anchor="start" style="mix-blend-mode: normal"><tspan x="0" dy="0">支持的运算</tspan></text><text transform="translate(238.47434,-365.77596) scale(0.22576,0.22576)" font-size="40" xml:space="preserve" fill="#0084ff" fill-rule="nonzero" stroke="none" stroke-width="1" stroke-linecap="butt" stroke-linejoin="miter" stroke-miterlimit="10" stroke-dasharray="" stroke-dashoffset="0" font-family="Sans Serif" font-weight="normal" text-anchor="start" style="mix-blend-mode: normal"><tspan x="0" dy="0">+,-,*,/,^,=,&lt;,&gt;,(,)</tspan><tspan x="0" dy="46.15px">求和，求积，积分，导数</tspan></text><text transform="translate(29.88582,-279.43685) scale(0.34792,0.34792)" font-size="40" xml:space="preserve" fill="#ff8d00" fill-rule="nonzero" stroke-opacity="0" stroke="#000000" stroke-width="0" stroke-linecap="butt" stroke-linejoin="miter" stroke-miterlimit="10" stroke-dasharray="" stroke-dashoffset="0" font-family="Sans Serif" font-weight="normal" text-anchor="start" style="mix-blend-mode: normal"><tspan x="0" dy="0">作品简介</tspan></text><path d="M18.89042,-291.44155v14" fill="none" stroke="#ff8c00" stroke-width="2.5" stroke-linecap="round"/><text transform="translate(40.432,-263.11527) scale(0.22576,0.22576)" font-size="40" xml:space="preserve" fill="#0084ff" fill-rule="nonzero" stroke="none" stroke-width="1" stroke-linecap="butt" stroke-linejoin="miter" stroke-miterlimit="10" stroke-dasharray="" stroke-dashoffset="0" font-family="Sans Serif" font-weight="normal" text-anchor="start" style="mix-blend-mode: normal"><tspan x="0" dy="0">        稽何计算器是SQY自主研发的数学软件，属于beta math项目。稽何计算器拥有全新架构，采用区</tspan><tspan x="0" dy="46.15px">块加载，功能强大，操作简单，性能超强。支持切换颜色主题、鼠标滚轮缩放，键盘输入，同时内置软</tspan><tspan x="0" dy="46.15px">键盘，手机电脑都能用。</tspan><tspan x="0" dy="46.15px">        稽何计算器支持多种模式：平面直角坐标系，极坐标系，3D坐标系，球极坐标系，编程。</tspan><tspan x="0" dy="46.15px">        此作品支持同时绘制16个函数和不等式，同时加载除e，i，x，y，z的21个变量。内置性能监视器，</tspan><tspan x="0" dy="46.15px">可检测FPS和绘制时间。</tspan></text><path d="M18.89042,-195.95204v14" fill="none" stroke="#ff8c00" stroke-width="2.5" stroke-linecap="round"/><text transform="translate(29.88582,-184.94736) scale(0.34792,0.34792)" font-size="40" xml:space="preserve" fill="#ff8d00" fill-rule="nonzero" stroke-opacity="0" stroke="#000000" stroke-width="0" stroke-linecap="butt" stroke-linejoin="miter" stroke-miterlimit="10" stroke-dasharray="" stroke-dashoffset="0" font-family="Sans Serif" font-weight="normal" text-anchor="start" style="mix-blend-mode: normal"><tspan x="0" dy="0">操作说明&amp;功能介绍</tspan></text><path d="M39.00001,106.2823v-273" fill="none" stroke="#ff8c00" stroke-width="2.5" stroke-linecap="round"/><text transform="translate(49.28811,-154.94738) scale(0.34792,0.34792)" font-size="40" xml:space="preserve" fill="#ff8d00" fill-rule="nonzero" stroke-opacity="0" stroke="#000000" stroke-width="0" stroke-linecap="butt" stroke-linejoin="miter" stroke-miterlimit="10" stroke-dasharray="" stroke-dashoffset="0" font-family="Sans Serif" font-weight="normal" text-anchor="start" style="mix-blend-mode: normal"><tspan x="0" dy="0">平面直角坐标系</tspan></text><text transform="translate(52.43203,-122.11977) scale(0.22576,0.22576)" font-size="40" xml:space="preserve" fill="#0084ff" fill-rule="nonzero" stroke="none" stroke-width="1" stroke-linecap="butt" stroke-linejoin="miter" stroke-miterlimit="10" stroke-dasharray="" stroke-dashoffset="0" font-family="Sans Serif" font-weight="normal" text-anchor="start" style="mix-blend-mode: normal"><tspan x="0" dy="0">        平面直角坐标系是最基本的坐标系，将会在初一接触。</tspan><tspan x="0" dy="46.15px">        在此坐标系下，将会采用区块加载技术。可以使用隐函数和不等式。支持积分，求和，求积，导数，</tspan><tspan x="0" dy="46.15px">可以方便的绘制傅里叶变换，x^2的导数，1/x自1到x的积分，功能强大。</tspan><tspan x="0" dy="46.15px">        你可以通过开始中的示例文件（除级坐标外的所有）来观察示例函数。内置初等函数、三角函数，</tspan><tspan x="0" dy="46.15px">激活函数等。</tspan><tspan x="0" dy="46.15px">        坐标系支持无限缩放，可以关闭/打开网格。可以选择拖动时是否绘制函数。还支持显示在鼠标指示</tspan><tspan x="0" dy="46.15px">处函数的值。精度默认是600，在屏幕上绘制600个点。最大是10000，会非常卡。精度并不是越高越好，</tspan><tspan x="0" dy="46.15px">请谨慎选择。定积分精度默认150，将区间分为400份，可以精确到2位小数，计算较慢。</tspan><tspan x="0" dy="46.15px">        在此坐标系下，函数支持分析，可计算极大值，极小值，零点（X轴截距），最大最小值，Y轴截距，</tspan><tspan x="0" dy="46.15px">奇偶性。数值计算的精度由绘图精度决定。</tspan></text><text transform="translate(49.53604,-136.7446) scale(0.25483,0.25483)" font-size="40" xml:space="preserve" fill="#ff8d00" fill-rule="nonzero" stroke-opacity="0" stroke="#000000" stroke-width="0" stroke-linecap="butt" stroke-linejoin="miter" stroke-miterlimit="10" stroke-dasharray="" stroke-dashoffset="0" font-family="Sans Serif" font-weight="normal" text-anchor="start" style="mix-blend-mode: normal"><tspan x="0" dy="0">实变函数</tspan></text><text transform="translate(49.53597,-12.7446) scale(0.25483,0.25483)" font-size="40" xml:space="preserve" fill="#ff8d00" fill-rule="nonzero" stroke-opacity="0" stroke="#000000" stroke-width="0" stroke-linecap="butt" stroke-linejoin="miter" stroke-miterlimit="10" stroke-dasharray="" stroke-dashoffset="0" font-family="Sans Serif" font-weight="normal" text-anchor="start" style="mix-blend-mode: normal"><tspan x="0" dy="0">复变函数</tspan></text><text transform="translate(52.80583,0.38024) scale(0.22576,0.22576)" font-size="40" xml:space="preserve" fill="#0084ff" fill-rule="nonzero" stroke="none" stroke-width="1" stroke-linecap="butt" stroke-linejoin="miter" stroke-miterlimit="10" stroke-dasharray="" stroke-dashoffset="0" font-family="Sans Serif" font-weight="normal" text-anchor="start" style="mix-blend-mode: normal"><tspan x="0" dy="0">        支持复数运算，但不支持积分、导数、求和、求积等高级运算。zeta,W函数不支持复数参数。在此</tspan><tspan x="0" dy="46.15px">坐标系下，将会采用区块加载技术。函数的实部将用0透明度的pen绘制，虚部将会用透明度50的pen绘</tspan><tspan x="0" dy="46.15px">制。函数不支持分析。</tspan></text><text transform="translate(49.53637,37.7554) scale(0.25483,0.25483)" font-size="40" xml:space="preserve" fill="#ff8d00" fill-rule="nonzero" stroke-opacity="0" stroke="#000000" stroke-width="0" stroke-linecap="butt" stroke-linejoin="miter" stroke-miterlimit="10" stroke-dasharray="" stroke-dashoffset="0" font-family="Sans Serif" font-weight="normal" text-anchor="start" style="mix-blend-mode: normal"><tspan x="0" dy="0">不等式&amp;隐式方程</tspan></text><text transform="translate(52.80584,51.38025) scale(0.22576,0.22576)" font-size="40" xml:space="preserve" fill="#0084ff" fill-rule="nonzero" stroke="none" stroke-width="1" stroke-linecap="butt" stroke-linejoin="miter" stroke-miterlimit="10" stroke-dasharray="" stroke-dashoffset="0" font-family="Sans Serif" font-weight="normal" text-anchor="start" style="mix-blend-mode: normal"><tspan x="0" dy="0">        以x，y作为变量，支持的运算符有=,&lt;,&gt;三种。绘制速度较慢。</tspan></text><text transform="translate(49.53638,67.75539) scale(0.25483,0.25483)" font-size="40" xml:space="preserve" fill="#ff8d00" fill-rule="nonzero" stroke-opacity="0" stroke="#000000" stroke-width="0" stroke-linecap="butt" stroke-linejoin="miter" stroke-miterlimit="10" stroke-dasharray="" stroke-dashoffset="0" font-family="Sans Serif" font-weight="normal" text-anchor="start" style="mix-blend-mode: normal"><tspan x="0" dy="0">平面几何画板</tspan></text><text transform="translate(52.80584,81.38025) scale(0.22576,0.22576)" font-size="40" xml:space="preserve" fill="#0084ff" fill-rule="nonzero" stroke="none" stroke-width="1" stroke-linecap="butt" stroke-linejoin="miter" stroke-miterlimit="10" stroke-dasharray="" stroke-dashoffset="0" font-family="Sans Serif" font-weight="normal" text-anchor="start" style="mix-blend-mode: normal"><tspan x="0" dy="0">        简单强大的几何画板，正十七边形尺规也能画。支持描点，自定义点，求解，支持直线、圆（半径</tspan><tspan x="0" dy="46.15px">或圆上一点）、角（定值角，普通角，角平分线）等对象，支持测量长度、角度，支持判断线线、线圆，</tspan><tspan x="0" dy="46.15px">圆圆交点。不支持注释。</tspan></text><text transform="translate(49.28811,128.05262) scale(0.34792,0.34792)" font-size="40" xml:space="preserve" fill="#ff8d00" fill-rule="nonzero" stroke-opacity="0" stroke="#000000" stroke-width="0" stroke-linecap="butt" stroke-linejoin="miter" stroke-miterlimit="10" stroke-dasharray="" stroke-dashoffset="0" font-family="Sans Serif" font-weight="normal" text-anchor="start" style="mix-blend-mode: normal"><tspan x="0" dy="0">平面极坐标系</tspan></text><path d="M39.00001,167.2823v-51" fill="none" stroke="#ff8c00" stroke-width="2.5" stroke-linecap="round"/><text transform="translate(53.75044,143.38025) scale(0.22576,0.22576)" font-size="40" xml:space="preserve" fill="#0084ff" fill-rule="nonzero" stroke="none" stroke-width="1" stroke-linecap="butt" stroke-linejoin="miter" stroke-miterlimit="10" stroke-dasharray="" stroke-dashoffset="0" font-family="Sans Serif" font-weight="normal" text-anchor="start" style="mix-blend-mode: normal"><tspan x="0" dy="0">        以夹角（θ）和半径（r）确定平面内任意一点。 坐标系支持无限缩放。区间可以选择，默认4pi</tspan><tspan x="0" dy="46.15px">（2周期）。最大可以调至100pi（50周期）。精度默认是720，最大是10000，会非常卡。精度并不是越</tspan><tspan x="0" dy="46.15px">高越好，请谨慎选择。建议周期越大时精度也越大。</tspan></text><text transform="translate(49.28811,190.55262) scale(0.34792,0.34792)" font-size="40" xml:space="preserve" fill="#ff8d00" fill-rule="nonzero" stroke-opacity="0" stroke="#000000" stroke-width="0" stroke-linecap="butt" stroke-linejoin="miter" stroke-miterlimit="10" stroke-dasharray="" stroke-dashoffset="0" font-family="Sans Serif" font-weight="normal" text-anchor="start" style="mix-blend-mode: normal"><tspan x="0" dy="0">立体几何</tspan></text><path d="M39.00001,178.2823v42" fill="none" stroke="#ff8c00" stroke-width="2.5" stroke-linecap="round"/><text transform="translate(52.66588,205.88025) scale(0.22576,0.22576)" font-size="40" xml:space="preserve" fill="#0084ff" fill-rule="nonzero" stroke="none" stroke-width="1" stroke-linecap="butt" stroke-linejoin="miter" stroke-miterlimit="10" stroke-dasharray="" stroke-dashoffset="0" font-family="Sans Serif" font-weight="normal" text-anchor="start" style="mix-blend-mode: normal"><tspan x="0" dy="0">        以x，y和f(x,y)进行绘制。坐标系支持无限缩放。精度默认是36，最大是100，取36*36=1296个点绘</tspan><tspan x="0" dy="46.15px">制。支持隐式方程和不等式的绘制。不等式支持x，y，z三个参数。</tspan></text><text transform="translate(49.71932,241.05262) scale(0.34792,0.34792)" font-size="40" xml:space="preserve" fill="#ff8d00" fill-rule="nonzero" stroke-opacity="0" stroke="#000000" stroke-width="0" stroke-linecap="butt" stroke-linejoin="miter" stroke-miterlimit="10" stroke-dasharray="" stroke-dashoffset="0" font-family="Sans Serif" font-weight="normal" text-anchor="start" style="mix-blend-mode: normal"><tspan x="0" dy="0">球极坐标系</tspan></text><path d="M39.43123,230.2823v28.5" fill="none" stroke="#ff8c00" stroke-width="2.5" stroke-linecap="round"/><text transform="translate(53.29207,255.38025) scale(0.22576,0.22576)" font-size="40" xml:space="preserve" fill="#0084ff" fill-rule="nonzero" stroke="none" stroke-width="1" stroke-linecap="butt" stroke-linejoin="miter" stroke-miterlimit="10" stroke-dasharray="" stroke-dashoffset="0" font-family="Sans Serif" font-weight="normal" text-anchor="start" style="mix-blend-mode: normal"><tspan x="0" dy="0">        以φ、θ确定空间内任意一点。 精度是20。</tspan></text><text transform="translate(49.71932,279.05261) scale(0.34792,0.34792)" font-size="40" xml:space="preserve" fill="#ff8d00" fill-rule="nonzero" stroke-opacity="0" stroke="#000000" stroke-width="0" stroke-linecap="butt" stroke-linejoin="miter" stroke-miterlimit="10" stroke-dasharray="" stroke-dashoffset="0" font-family="Sans Serif" font-weight="normal" text-anchor="start" style="mix-blend-mode: normal"><tspan x="0" dy="0">编程</tspan></text><path d="M39.43123,267.28229v68.5" fill="none" stroke="#ff8c00" stroke-width="2.5" stroke-linecap="round"/><text transform="translate(53.25737,295.38025) scale(0.22576,0.22576)" font-size="40" xml:space="preserve" fill="#0084ff" fill-rule="nonzero" stroke="none" stroke-width="1" stroke-linecap="butt" stroke-linejoin="miter" stroke-miterlimit="10" stroke-dasharray="" stroke-dashoffset="0" font-family="Sans Serif" font-weight="normal" text-anchor="start" style="mix-blend-mode: normal"><tspan x="0" dy="0">简单好用的脚本执行器。</tspan></text></g></g></svg>