<svg version="1.1" xmlns="http://www.w3.org/2000/svg" xmlns:xlink="http://www.w3.org/1999/xlink" width="19.875" height="40.5" viewBox="0,0,19.875,40.5"><g transform="translate(-231.62501,-161.07501)"><g data-paper-data="{&quot;isPaintingLayer&quot;:true}" fill-rule="nonzero" stroke="none" stroke-linecap="butt" stroke-linejoin="miter" stroke-miterlimit="10" stroke-dasharray="" stroke-dashoffset="0" style="mix-blend-mode: normal"><path d="M237.51258,180.02047c0.20472,-0.57323 0.88032,-2.14962 2.70238,-2.14962c2.04726,0 3.95121,1.82206 3.95121,4.54491c0,2.66144 -1.90395,4.60633 -4.13546,4.60633c-1.74016,0 -4.19688,-1.2693 -4.19688,-6.89926c0,-4.50396 2.70237,-7.14493 5.28192,-7.14493c1.78112,0 2.55908,1.0441 2.55908,2.10868c0,0.5937 -0.34803,0.90079 -0.85985,0.90079c-0.53228,0 -0.83937,-0.38898 -0.83937,-0.83937c0,-0.83937 0.77796,-0.83938 1.02363,-0.83938c-0.38898,-0.61417 -1.12599,-0.83937 -1.863,-0.83937c-1.10552,0 -3.62365,0.8189 -3.62365,5.99846zM242.09844,185.13861c0.38898,-0.77795 0.38898,-1.69922 0.38898,-2.74332c0,-0.88032 0,-1.90395 -0.32756,-2.66144c-0.30709,-0.69607 -0.90079,-1.45355 -2.02678,-1.45355c-1.84253,0 -2.57955,2.02679 -2.57955,3.64412c0,1.43308 0.20473,2.43623 0.38898,2.96852c0.18426,0.42992 0.79843,1.57639 2.0882,1.57639c0.8189,0 1.55591,-0.34803 2.06773,-1.33072z" fill="#ff0000" stroke-width="1"/><path d="M231.62501,201.57501v-40.5h19.875v40.5z" fill="none" stroke-width="0"/></g></g></svg>