<svg version="1.1" xmlns="http://www.w3.org/2000/svg" xmlns:xlink="http://www.w3.org/1999/xlink" width="62.07973" height="76.71684" viewBox="0,0,62.07973,76.71684"><g transform="translate(-208.96014,-148.88965)"><g data-paper-data="{&quot;isPaintingLayer&quot;:true}" fill-rule="nonzero" stroke-linejoin="miter" stroke-miterlimit="10" stroke-dasharray="" stroke-dashoffset="0" style="mix-blend-mode: normal"><path d="M271.03988,201.31721c0,5.4081 -2.62915,9.79312 -5.87022,9.79312h-50.33997c-3.24176,0 -5.86954,-4.38614 -5.86954,-9.79312v-42.63559c0,-5.4081 2.62778,-9.79196 5.86954,-9.79196h50.33929c3.24312,0 5.87022,4.38386 5.87022,9.79196v42.63559z" fill-opacity="0.21569" fill="#ffcc00" stroke="none" stroke-width="0" stroke-linecap="butt"/><text transform="translate(220.23841,222.51875) scale(0.24702,0.24702)" font-size="40" xml:space="preserve" fill="#000000" fill-rule="nonzero" stroke="none" stroke-width="1" stroke-linecap="butt" stroke-linejoin="miter" stroke-miterlimit="10" stroke-dasharray="" stroke-dashoffset="0" font-family="Sans Serif" font-weight="normal" text-anchor="start" style="mix-blend-mode: normal"><tspan x="0" dy="0">三角函数</tspan></text><path d="M219.76743,181.78201c0,0 8.16064,14.54133 20,0c12.3684,-15.19111 20.25,0 20.25,0" fill="none" stroke="#ff0000" stroke-width="1" stroke-linecap="round"/><g fill="none" stroke="#005fff" stroke-width="1" stroke-linecap="round"><path d="M252.32539,154.8c0,0 0.8,18.72467 -7.4,26.4c-6.06609,5.67797 -5,24 -5,24"/><path d="M264.72539,154.8c0,0 0.22622,5.29485 -0.79496,11.40745c-0.89918,5.38233 -2.76551,11.39869 -6.60504,14.99255c-6.0661,5.67797 -5,24 -5,24"/><path d="M239.92539,154.79999c0,0 0.8,18.72467 -7.4,26.4c-6.06609,5.67797 -5,24 -5,24"/><path d="M227.72539,154.80001c0,0 0.8,18.72467 -7.4,26.4c-6.06609,5.67797 -5,24 -5,24"/></g><path d="M215.79242,187.25701c0,0 20.27898,-0.08458 24.25491,-7.65945c4.10617,-7.823 25.14509,-7.94055 25.14509,-7.94055" fill="none" stroke="#03ff00" stroke-width="1" stroke-linecap="round"/></g></g></svg>