<svg version="1.1" xmlns="http://www.w3.org/2000/svg" xmlns:xlink="http://www.w3.org/1999/xlink" width="11.2" height="21.3" viewBox="0,0,11.2,21.3"><g transform="translate(-234.95,-165.85)"><g data-paper-data="{&quot;isPaintingLayer&quot;:true}" fill-rule="nonzero" stroke="none" stroke-linecap="butt" stroke-linejoin="miter" stroke-miterlimit="10" stroke-dasharray="" stroke-dashoffset="0" style="mix-blend-mode: normal"><path d="M239.21181,181.97011c-0.14331,0.57323 -0.14331,1.00316 -0.14331,1.08505c0,0.28662 0,0.94173 0.61418,0.94173c0.81891,0 1.18741,-1.08504 1.55591,-2.49765c0.08189,-0.30709 0.10236,-0.40945 0.28662,-0.40945c0.12284,0 0.20472,0.08188 0.20472,0.18425c0,0.08189 -0.28661,1.37167 -0.63465,2.04726c-0.32756,0.63465 -0.77796,1.08505 -1.45355,1.08505c-1.0441,0 -1.80158,-0.8189 -1.80158,-1.84253c0,-0.32756 0.04094,-0.49134 0.10236,-0.71654l2.5386,-10.1544c0.10236,-0.3685 0.10236,-0.40945 0.10236,-0.49134c0,-0.20472 0,-0.38898 -1.0441,-0.38898c-0.20472,0 -0.40945,0 -0.40945,-0.20472c0,-0.3685 0.14331,-0.38898 0.63465,-0.42992c0.3685,-0.02047 0.67559,-0.06142 1.02362,-0.08189c0.3685,-0.04094 1.10553,-0.10236 1.126,-0.10236c0.04094,0 0.24567,0 0.24567,0.20472c0,0.10236 -0.04095,0.2252 -0.06142,0.30709z" fill="#ff0000" stroke-width="1"/><path d="M234.95,187.15v-21.3h11.2v21.3z" fill="none" stroke-width="0"/></g></g></svg>