<svg version="1.1" xmlns="http://www.w3.org/2000/svg" xmlns:xlink="http://www.w3.org/1999/xlink" width="20.15789" height="28.52632" viewBox="0,0,20.15789,28.52632"><g transform="translate(-228.97368,-166.57893)"><g data-paper-data="{&quot;isPaintingLayer&quot;:true}" fill-rule="nonzero" stroke="none" stroke-linecap="butt" stroke-linejoin="miter" stroke-miterlimit="10" stroke-dasharray="" stroke-dashoffset="0" style="mix-blend-mode: normal"><path d="M228.97368,195.10525v-28.52632h20.15789v28.52632z" data-paper-data="{&quot;index&quot;:null}" fill="none" stroke-width="0"/><path d="M236.43709,189.1568c-0.06385,0 -0.14367,-0.03659 -0.14367,-0.14636c0,-0.05489 0,-0.09148 0.27138,-0.4025c1.59634,-1.84782 2.49029,-4.86654 2.49029,-8.59879c0,-3.54929 -0.75028,-6.60461 -2.60204,-8.76346c-0.15964,-0.16466 -0.15964,-0.20125 -0.15964,-0.25613c0,-0.10976 0.07982,-0.14636 0.14367,-0.14636c0.20752,0 1.51652,1.31726 2.29873,3.1102c0.81413,1.84782 1.18129,3.80542 1.18129,6.05575c0,1.62829 -0.2235,3.80542 -1.05359,5.76302c-0.94184,2.19543 -2.25084,3.38464 -2.42644,3.38464z" data-paper-data="{&quot;index&quot;:null}" fill="#ff0000" stroke-width="1"/></g></g></svg>