<svg version="1.1" xmlns="http://www.w3.org/2000/svg" xmlns:xlink="http://www.w3.org/1999/xlink" width="12.57545" height="14.57614" viewBox="0,0,12.57545,14.57614"><g transform="translate(-245.96228,-172.71193)"><g data-paper-data="{&quot;isPaintingLayer&quot;:true}" fill="none" fill-rule="nonzero" stroke="#000000" stroke-width="1" stroke-linejoin="miter" stroke-miterlimit="10" stroke-dasharray="" stroke-dashoffset="0" style="mix-blend-mode: normal"><path d="M246.46228,175.7128c0,-1.38119 1.11968,-2.50087 2.50087,-2.50087c1.38119,0 2.50087,1.11968 2.50087,2.50087c0,1.38119 -1.11968,2.50087 -2.50087,2.50087c-1.38119,0 -2.50087,-1.11968 -2.50087,-2.50087z" stroke-linecap="butt"/><path d="M253.03599,184.2872c0,-1.38119 1.11968,-2.50087 2.50087,-2.50087c1.38119,0 2.50087,1.11968 2.50087,2.50087c0,1.38119 -1.11968,2.50087 -2.50087,2.50087c-1.38119,0 -2.50087,-1.11968 -2.50087,-2.50087z" stroke-linecap="butt"/><path d="M256.89447,173.7121l-9.28893,12.57579" stroke-linecap="round"/></g></g></svg>