<svg version="1.1" xmlns="http://www.w3.org/2000/svg" xmlns:xlink="http://www.w3.org/1999/xlink" width="28.5" height="19.6" viewBox="0,0,28.5,19.6"><g transform="translate(-227.9121,-173.22262)"><g data-paper-data="{&quot;isPaintingLayer&quot;:true}" fill-rule="nonzero" stroke="none" stroke-linecap="butt" stroke-linejoin="miter" stroke-miterlimit="10" stroke-dasharray="" stroke-dashoffset="0" style="mix-blend-mode: normal"><path d="M238.29427,183.74669c-0.19274,0.77095 -0.19274,0.80951 -0.50113,1.79247c-0.23128,0.8095 -0.38548,1.31062 -0.94441,1.31062c-0.17347,0 -0.5204,-0.09638 -0.5204,-0.50113c0,-0.11564 0,-0.15419 0.15419,-0.46257c1.58045,-3.37293 2.06231,-5.04975 2.48633,-6.49529h-1.09861c-0.48185,0 -1.48409,0 -2.48633,1.58045c-0.09637,0.11564 -0.11565,0.17347 -0.25056,0.17347c-0.11564,0 -0.21201,-0.03855 -0.21201,-0.15419c0,-0.11564 0.61677,-1.13716 1.11788,-1.6961c0.88659,-0.94441 1.54192,-0.94442 1.98521,-0.94442h6.34109c0.34693,0 0.71313,0 0.71313,0.42402c0,0.61677 -0.63604,0.61677 -0.88659,0.61677h-2.15867c-0.40475,1.73465 -0.40475,3.10309 -0.40475,3.21874c0,0.13491 0,1.79247 0.52039,3.12237c0.13491,0.28911 0.13492,0.32766 0.13492,0.42402c0,0.32766 -0.34693,0.69386 -0.75168,0.69386c-0.79023,0 -0.79023,-2.08158 -0.79023,-2.35141c0,-1.54191 0.32765,-2.9489 0.84805,-5.10758h-2.17795z" fill="#ff0000" stroke-width="1"/><path d="M227.9121,192.82262v-19.6h28.5v19.6z" fill="none" stroke-width="0"/></g></g></svg>