<svg version="1.1" xmlns="http://www.w3.org/2000/svg" xmlns:xlink="http://www.w3.org/1999/xlink" width="42.83333" height="32.16667" viewBox="0,0,42.83333,32.16667"><g transform="translate(-219.27022,-162.0684)"><g data-paper-data="{&quot;isPaintingLayer&quot;:true}" fill-rule="nonzero" stroke="none" stroke-linecap="butt" stroke-linejoin="miter" stroke-miterlimit="10" stroke-dasharray="" stroke-dashoffset="0" style="mix-blend-mode: normal"><path d="M241.34096,178.2496c-0.96221,1.37166 -1.45355,3.74648 -1.45355,6.79689v1.02363c0,0.26614 0,1.06457 -0.85985,1.06457c-0.83938,0 -0.83937,-0.81891 -0.83937,-1.04411c0,-3.84885 2.06772,-7.20634 2.62048,-8.00477l2.1701,-3.11183h-4.34019c-0.28661,0 -1.82206,0 -1.98584,0.12284c-0.26614,0.2252 -0.45039,1.4945 -0.51181,1.863h-0.4504l0.63465,-4.09452h0.4504c0.08189,0.38898 0.12284,0.65512 2.60001,0.65512h4.93389v0.47087z" fill="#ff0000" stroke-width="1"/><path d="M219.27022,194.23506v-32.16667h42.83333v32.16667z" fill="none" stroke-width="0"/></g></g></svg>