<svg version="1.1" xmlns="http://www.w3.org/2000/svg" xmlns:xlink="http://www.w3.org/1999/xlink" width="12.78607" height="10.69957" viewBox="0,0,12.78607,10.69957"><g transform="translate(-233.60696,-177.15022)"><g data-paper-data="{&quot;isPaintingLayer&quot;:true}" fill="#ff0000" fill-rule="nonzero" stroke="none" stroke-width="1" stroke-linecap="butt" stroke-linejoin="miter" stroke-miterlimit="10" stroke-dasharray="" stroke-dashoffset="0" style="mix-blend-mode: normal"><path d="M237.85282,183.94361c-0.24262,0.97048 -0.24262,1.01901 -0.63082,2.25637c-0.29114,1.019 -0.48524,1.64982 -1.18883,1.64982c-0.21836,0 -0.65508,-0.12132 -0.65508,-0.63082c0,-0.14557 0,-0.1941 0.1941,-0.58229c1.98948,-4.24586 2.59604,-6.35665 3.1298,-8.1763h-1.38293c-0.60655,0 -1.86818,0 -3.1298,1.98948c-0.12131,0.14557 -0.14558,0.21836 -0.31541,0.21836c-0.14557,0 -0.26688,-0.04853 -0.26688,-0.1941c0,-0.14557 0.77639,-1.43146 1.40719,-2.13506c1.11605,-1.18883 1.94097,-1.18884 2.49899,-1.18884h7.9822c0.43672,0 0.89769,0 0.89769,0.53376c0,0.77639 -0.80065,0.77639 -1.11605,0.77639h-2.71735c-0.5095,2.18358 -0.5095,3.90619 -0.5095,4.05176c0,0.16983 0,2.25637 0.65507,3.93045c0.16983,0.36393 0.16984,0.41246 0.16984,0.53376c0,0.41246 -0.43672,0.87343 -0.94622,0.87343c-0.99475,0 -0.99475,-2.6203 -0.99475,-2.95997c0,-1.94096 0.41245,-3.71209 1.06753,-6.42944h-2.74161z"/></g></g></svg>