<svg version="1.1" xmlns="http://www.w3.org/2000/svg" xmlns:xlink="http://www.w3.org/1999/xlink" width="8.49611" height="9.23313" viewBox="0,0,8.49611,9.23313"><g transform="translate(-235.75195,-175.38343)"><g data-paper-data="{&quot;isPaintingLayer&quot;:true}" fill="#ff0000" fill-rule="nonzero" stroke="none" stroke-width="1" stroke-linecap="butt" stroke-linejoin="miter" stroke-miterlimit="10" stroke-dasharray="" stroke-dashoffset="0" style="mix-blend-mode: normal"><path d="M238.88426,184.61656c-1.863,0 -3.13231,-1.45355 -3.13231,-3.39845c0,-2.88663 2.66143,-5.83468 5.36381,-5.83468c1.863,0 3.1323,1.45355 3.1323,3.39845c0,2.88663 -2.64096,5.83468 -5.36381,5.83468zM241.66853,182.30316c0.77796,-1.24883 1.20789,-3.43939 1.20789,-4.2583c0,-1.43308 -0.77796,-2.25198 -1.78111,-2.25198c-0.83937,0 -1.98584,0.53229 -2.90711,2.10868c-0.57323,1.02363 -1.06457,3.11182 -1.06457,4.05356c0,1.43308 0.75748,2.25198 1.78111,2.25198c0.79843,0 1.92442,-0.53229 2.76379,-1.90394z"/></g></g></svg>