<svg version="1.1" xmlns="http://www.w3.org/2000/svg" xmlns:xlink="http://www.w3.org/1999/xlink" width="8.80321" height="9.23314" viewBox="0,0,8.80321,9.23314"><g transform="translate(-235.59839,-175.38343)"><g data-paper-data="{&quot;isPaintingLayer&quot;:true}" fill="#ff0000" fill-rule="nonzero" stroke="none" stroke-width="1" stroke-linecap="butt" stroke-linejoin="miter" stroke-miterlimit="10" stroke-dasharray="" stroke-dashoffset="0" style="mix-blend-mode: normal"><path d="M239.8362,184.61657c-0.18425,0 -1.20788,0 -1.94489,-0.63465c-0.63465,-0.57323 -0.69607,-1.41261 -0.69607,-1.86301c0,-0.49134 0,-1.12599 0.98269,-3.74648c0.30709,-0.77795 0.53229,-1.37166 0.53229,-1.90394c0,-0.67559 -0.34804,-0.6756 -0.53229,-0.6756c-0.77796,0 -1.57639,0.77796 -2.06773,2.5386c-0.08189,0.28662 -0.10236,0.36851 -0.28661,0.36851c-0.14331,0 -0.2252,-0.10237 -0.2252,-0.18426c0,-0.16378 0.75749,-3.1323 2.64096,-3.1323c1.00315,0 1.61733,0.77795 1.61733,1.6378c0,0.40945 -0.08189,0.61418 -0.40945,1.45355c-0.55276,1.47403 -1.02363,2.90711 -1.02363,3.93073c0,0.75749 0.24567,1.80158 1.4945,1.80158c2.4567,0 3.68507,-4.79057 3.68507,-5.65042c0,-1.06457 -0.53229,-1.61733 -0.73701,-1.80159c-0.08189,-0.08189 -0.2252,-0.2252 -0.2252,-0.47087c0,-0.40945 0.45039,-0.90079 0.94173,-0.90079c0.16378,0 0.81891,0.08189 0.81891,1.37166c0,1.16693 -1.16694,7.86147 -4.56538,7.86147z"/></g></g></svg>