<svg version="1.1" xmlns="http://www.w3.org/2000/svg" xmlns:xlink="http://www.w3.org/1999/xlink" width="10.42053" height="13.00006" viewBox="0,0,10.42053,13.00006"><g transform="translate(-234.78973,-175.19997)"><g data-paper-data="{&quot;isPaintingLayer&quot;:true}" fill="#ff0000" fill-rule="nonzero" stroke="none" stroke-width="1" stroke-linecap="butt" stroke-linejoin="miter" stroke-miterlimit="10" stroke-dasharray="" stroke-dashoffset="0" style="mix-blend-mode: normal"><path d="M238.6181,177.61574c0.08189,-0.3685 0.14331,-0.57324 0.14331,-1.06458c0,-0.61417 -0.16378,-0.94173 -0.63465,-0.94173c-0.81891,0 -1.20788,1.20788 -1.51497,2.41576c-0.12284,0.47087 -0.14331,0.49134 -0.30709,0.49134c-0.14331,0 -0.2252,-0.10237 -0.2252,-0.18426c0,-0.08189 0.28662,-1.33072 0.65512,-2.06773c0.38898,-0.77796 0.85985,-1.06457 1.45355,-1.06457c0.8189,0 1.61733,0.53229 1.78111,1.55591c0.2252,-0.28662 1.33071,-1.55591 2.64096,-1.55591c1.53545,0 2.60002,1.33071 2.60002,3.21419c0,3.00947 -2.49765,6.01893 -4.81105,6.01893c-1.06457,0 -1.61733,-0.79844 -1.84253,-1.37167c-0.12284,0.47087 -1.0441,3.99215 -1.0441,4.23782c0,0.16378 0.06142,0.30709 1.00315,0.30709c0.34804,0 0.49134,0 0.49134,0.2252c0,0.3685 -0.24567,0.3685 -0.3685,0.3685c-0.42992,0 -1.47403,-0.04095 -1.90395,-0.04095h-0.88032c-0.26614,0 -0.55275,0.04095 -0.8189,0.04095c-0.2252,0 -0.24567,-0.16378 -0.24567,-0.20473c0,-0.38898 0.20473,-0.38898 0.4504,-0.38898c0.83937,0 0.92126,-0.16378 1.06457,-0.77796zM238.8433,181.85356c-0.02047,0.10236 -0.06142,0.26614 -0.06142,0.32756c0,0.08189 0.2252,1.84253 1.61733,1.84253c0.94174,0 1.88347,-0.98268 2.39529,-2.0882c0.51182,-1.06457 1.08505,-3.37797 1.08505,-4.36066c0,-1.06457 -0.40945,-1.96536 -1.31024,-1.96536c-0.77796,0 -1.45356,0.57323 -1.67876,0.77795c-0.32756,0.28662 -0.90079,0.88033 -1.0441,1.45356z"/></g></g></svg>